<svg width="261" height="261" viewBox="0 0 261 261" fill="none" xmlns="http://www.w3.org/2000/svg">
  <path opacity="0.8" fill-rule="evenodd" clip-rule="evenodd"
    d="M260.024 137.184C260.15 134.84 260.213 132.481 260.213 130.107C260.213 129.015 260.2 127.926 260.173 126.84L0.0401994 126.84C0.013452 127.926 0 129.015 0 130.107C0 132.481 0.0636021 134.84 0.189196 137.184L260.024 137.184ZM259.057 147.527L1.15611 147.527C1.62358 151.02 2.22968 154.47 2.96871 157.87L257.244 157.87C257.983 154.47 258.59 151.02 259.057 147.527ZM254.544 168.213H5.66946C6.744 171.726 7.96324 175.176 9.32023 178.556H250.893C252.25 175.176 253.469 171.726 254.544 168.213ZM246.203 188.9H14.0101C15.8085 192.444 17.7645 195.895 19.8687 199.243H240.344C242.449 195.895 244.405 192.444 246.203 188.9ZM233.123 209.586H27.0901C29.8736 213.188 32.8418 216.641 35.9806 219.929H224.233C227.371 216.641 230.34 213.188 233.123 209.586ZM213.145 230.272H47.0678C51.5975 234.032 56.3864 237.49 61.4037 240.616H198.809C203.827 237.49 208.616 234.032 213.145 230.272ZM178.392 250.959H81.8211C96.7508 256.929 113.045 260.213 130.107 260.213C147.168 260.213 163.462 256.929 178.392 250.959ZM0.703254 116.497L259.51 116.497C259.147 113.007 258.646 109.557 258.013 106.154L2.2002 106.154C1.56691 109.557 1.06608 113.007 0.703254 116.497ZM4.56769 95.8107L255.646 95.8107C254.689 92.3017 253.59 88.8517 252.353 85.4675L7.85976 85.4675C6.62366 88.8517 5.52408 92.3017 4.56769 95.8107ZM12.1543 75.1243L248.059 75.1243C246.407 71.5871 244.601 68.1365 242.649 64.7811L17.5638 64.7811C15.612 68.1365 13.8059 71.5871 12.1543 75.1243ZM24.2549 54.4379L235.958 54.4379C233.389 50.8498 230.641 47.3978 227.729 44.0947L32.4844 44.0947C29.5719 47.3978 26.8245 50.8498 24.2549 54.4379ZM42.6785 33.7515L217.535 33.7515C213.445 30.0385 209.118 26.5823 204.579 23.4083L55.6342 23.4083C51.0953 26.5823 46.7682 30.0385 42.6785 33.7515ZM73.2145 13.0651L186.999 13.0651C169.813 4.69563 150.508 0 130.107 0C109.705 0 90.4006 4.69563 73.2145 13.0651Z"
    fill="white" />
</svg>