<svg width="1108" height="245" viewBox="0 0 1108 245" fill="none" xmlns="http://www.w3.org/2000/svg">
<g clip-path="url(#clip0)">
<path d="M142.1 231.4C140.6 231.5 139.1 231.5 137.6 231.4C136.4 231.3 135.4 231.5 134.5 232.4C134.6 232.4 134.6 232.5 134.7 232.5C141.8 232.5 148.9 232.6 156 232.6C156.2 232.6 156.4 232.2 156.7 231.8C154.6 231.4 145 231.2 142.1 231.4ZM198.1 221.6C198.4 221.7 198.7 221.7 198.9 221.9C200.6 223.4 202.3 222.7 203.9 221.9C204.3 221.7 204.7 221.4 205.1 221.2C205.3 221.1 205.4 221.1 205.6 221.1C206 221.3 206.4 221.5 207.1 221.8C207 220.7 206.9 219.9 206.8 219.2C207.5 219.6 207.8 220 207.9 220.5C208 221.2 208 222 208.1 222.8C208.1 223.7 208.5 224.5 209.3 224.5C211.6 224.5 213.7 225.5 216 225.2C217.2 225 218.2 224.3 219.5 224.3C220.8 224.3 222.2 224.2 223.5 224.2C224.2 224.2 225 224.2 225.7 224.2C227 224.2 228.1 224 229.1 222.8C217.5 168.2 205.9 113.5 194.3 58.7001H158.7C146.9 114 135.2 169.2 123.4 224.6C125.3 223.9 126.8 223.3 128.5 222.6C128.6 221.7 128.7 220.7 128.9 219.7C129 219.4 129.5 219.2 130.1 218.8C130.1 220.4 129.1 221.9 130.8 223C131.2 222.4 131.4 222 131.7 221.5C132.1 222.1 132.5 222.6 132.8 223.1C133.8 222.9 134.6 222.7 135.3 222.5C135.6 221.7 135.9 220.9 136.3 219.8C136.7 221.1 137 222 137.3 222.8C143.2 223.8 149 223 154.7 222.6C155 222.2 155.3 221.7 155.6 221.2C156.1 222.6 156 224.2 158.1 224.4C164.1 193.4 170.1 162.6 176 131.8C177.7 136.5 178.4 141.4 179.3 146.2C180.3 151.1 181.2 156.1 182.2 161.1C183.1 166 184.1 170.8 185 175.7C185.9 180.6 186.9 185.4 187.8 190.3C188.7 195.3 189.7 200.2 190.6 205.2C191.5 210 192.3 214.9 193.5 219.6C197.7 219 198 219.1 198.1 221.6ZM205.3 233.2C205.2 233.1 205.1 232.8 205 232.8C202.2 233 199.4 233.1 196.5 233.3C199.1 234.7 202.6 234.4 205.3 233.2ZM219.5 230.7C212.6 231.2 206.3 230.8 199.6 231C202.4 232.3 204.9 232.3 207.4 231.7C208.3 231.5 209.3 231.1 210.2 231.3C213.3 232 216.4 231.5 219.6 231.5C220.5 231.5 221.3 231.7 222.2 231.7C224.6 231.8 226.9 231.8 229.3 231.8C229.8 231.8 230.2 231.5 231.1 231.1C228.2 230.8 225.7 230.5 223.3 230.3C222.3 230.2 221.4 230 221.2 228.5C224.3 228.2 227.2 229.9 230.5 228.9C229.5 227.9 228.5 228.2 227.7 228.2C217.7 228.2 207.7 228.2 197.7 228.2C197.1 228.2 196.5 228.1 196 228.3C195.7 228.4 195.6 229 195.5 229.4C195.8 229.5 196 229.7 196.2 229.7C202.7 229.6 209.1 229.6 215.6 229.5C216.7 229.5 217.9 229.5 219.5 230.7ZM223.7 234.3C223 234.3 222.3 234.3 221.8 234.6C219.8 235.5 217.7 235.4 215.6 235.3C213.9 235.1 212.2 235.2 210.5 235C205.6 234.5 201.4 236.2 197.2 238.7C197.5 240.5 197.9 242.3 198.3 244.2H233.7C233 241.1 232.6 238 231.6 234.9C228.9 234.2 226.3 234.2 223.7 234.3ZM212.1 233.5C215.5 234.5 218.3 234.8 221 233C218.2 233.6 215.3 231.4 212.1 233.5ZM226.4 233.4C227.7 233.7 228.9 233.9 230.8 233.3C228.9 232.5 227.7 232.5 226.4 233.4ZM154.5 228.2C144.8 228.2 135.1 228.2 125.4 228.2C124.8 228.2 124.3 228.2 123.7 228.2C122.5 228.3 122.3 229 122.5 229.9C125.3 230.2 127.8 230.6 130.3 230.7C131.7 230.8 133.1 230.6 134.5 230.3C135.8 230 137 229.6 138.4 230C138.9 230.2 139.5 230.1 140.1 230.1C144.6 229.4 149 229.9 153.5 230C154.4 230 155.4 230.1 156.3 230C157.4 229.9 157.5 229.2 157 228.3C156.2 228.3 155.3 228.2 154.5 228.2ZM332.3 232.2C330.6 232.4 332.3 233.5 331.7 234.2C328.5 234.9 325.1 234.9 321.7 235C320.3 235 318.9 234.8 317.5 235.3C316.4 235.7 315.3 235.2 314.6 233.8C316.3 233.8 318 233.8 319.6 233.8C321.3 233.8 323 233.7 324.7 233.6C326.3 233.4 328 233.7 329.5 232.7C326.7 232.6 323.8 232.7 321 232.8C319.3 232.9 317.6 232.9 315.9 232.9C312.9 232.8 309.8 232.6 306.8 232.5C306.4 232.5 306 232.6 305.5 232.7C306.3 233.2 307.1 233.3 307.9 233.4C308.7 233.5 309.4 233.3 310.2 233.5C310.5 233.6 310.8 234.1 311.4 234.7C308.7 234.9 306.4 235.1 304.2 234.2C303.2 233.8 302.2 233.7 301 234.3C302.4 237.6 303.8 240.9 305.1 244.1H332.7V238.4C332.7 235.9 332.6 233.4 332.3 232.2ZM392.4 233.4H390.6V234.1C391.2 234 391.8 233.9 392.4 233.8V233.4ZM374.5 228.6V230.2C375.5 230.2 376.5 230.2 377.4 230.2C383.2 230.2 389 230.2 394.8 230.2C395.7 230.2 396.5 230.2 397.4 230.3C397.7 230.3 397.9 230.8 398.5 231.6C396.1 231.6 394.2 231.6 392.3 231.6C386.9 231.6 381.4 231.6 376 231.6C375.4 231.6 374.6 231.3 374.5 232.6C375.5 232.6 376.4 232.6 377.3 232.6C381.6 232.6 385.9 232.6 390.2 232.6C392.5 232.6 394.8 232.7 397 233C399.2 233.2 401.3 233.2 403.5 232.8C406.6 232.3 409.6 231.8 412.8 232.3C416.6 232.9 420.4 232.9 424.2 233.1C426.2 233.2 428.1 232.9 430 232C429.4 231.9 428.8 231.8 428.1 231.8C425.4 231.8 422.8 231.8 420.1 231.7C413.7 231.7 407.3 231.7 401 231.6C400.2 231.6 399.3 231.9 398.6 230.9C399.5 229.9 400.6 230.2 401.6 230.2C411.5 230.2 421.4 230.3 431.3 230.3C432 230.3 432.6 230.3 433.3 230.4C433.4 230.4 433.5 230.7 433.6 231C433 231.3 432.3 231.6 431.8 231.9C432 232.6 432.2 233.2 432.4 233.6C432.1 233.8 431.9 234 431.8 234.1C427.4 234.8 422.9 235.3 418.5 234.2C415.6 233.5 412.7 233.6 409.7 234C407.1 234.4 404.4 234.6 401.8 233.9C399.9 233.4 398.1 233.6 396.2 234.2C394.9 234.6 393.4 234.8 392 234.9C390.4 235 388.8 234.7 387.2 234.7C383.5 234.5 379.8 234.3 376.1 234.2C375.5 234.2 374.4 234.2 374.2 234.5C373.6 235.9 372.5 235.5 371.5 235.5C370.5 235.5 369.4 235.4 368.4 235.3C367.6 233.7 366.1 234.2 364.9 234.3C360.2 234.5 355.6 234.8 350.9 235.1C349.6 235.2 348.3 235.3 346.7 235.5C346.7 238.4 346.6 241.2 346.8 244.1H418.3C419.5 243.9 420.7 243.7 421.9 243.4C429.2 241.6 434.8 237.5 438.2 230.7C438.5 230.1 438.7 229.3 438.9 228.6C436.2 228.1 376.9 228.1 374.5 228.6ZM485.3 235.1C483.1 235.1 481.1 235.1 479.2 235.1C476.6 235.1 474.1 235 471.5 235.1C470.5 235.1 470 234.6 469.7 233.7C468.3 233.9 466.6 233.7 465.6 234.4C464.3 235.3 463.2 235.1 461.9 235.1C458.2 235.1 454.5 235 450.8 234.9C449.2 234.9 447.6 234.7 446.2 235.8C445.6 236.3 444.6 236.2 443.7 236.3C442.9 236.4 442 236.5 441 236.6C440.5 239 440 241.4 439.4 243.9H489.7C489.1 241.6 488.6 239.4 488 237.1C486.3 237.3 485.6 236.3 485.3 235.1ZM121.8 231.7C121.9 232.2 121.9 232.5 122 233C124.7 232.9 127.3 232.7 129.9 232.6C127.4 231.4 124.7 231.4 121.8 231.7ZM303.4 230.7C304.2 230.3 304.3 228.8 305.5 229C308.5 229.6 312 227.8 314.6 230.8C314.7 230.9 314.9 231 315.1 231.1C316 231.6 316.8 231.4 317.3 230.5C317.6 229.8 318 229.1 318.9 229.1C319.7 229.2 321 229.2 321.3 229.7C322.1 231.2 323.6 230.9 324.7 231.5C325.6 230.7 325.6 229.2 327.1 229.2C328.6 229.3 329 230.4 329.6 231.3C330.8 230.9 331.7 230.5 332.7 230.1V228.6C329.2 228.1 301.4 228.2 299 228.8C299.2 229.2 299.2 229.8 299.5 230C299.9 230.3 300.7 230.7 301 230.5C301.8 229.7 302.6 230.4 303.4 230.7ZM270.9 228.4C270.2 228.3 269.8 228.3 269.5 228.3C260 228.3 250.5 228.3 241 228.3C240.5 228.3 240 228.2 239.6 228.4C239.3 228.6 239.1 229.2 238.7 230H271V228.4H270.9ZM267.2 233.4C266 233.1 264.9 232.8 263.2 233.7C264.9 234 266.1 234.2 267.2 233.4ZM319.7 225.4C320.2 225.3 320.9 225.2 321.3 224.9C323.7 223.2 326.3 222.8 329.2 223C330.3 223.1 331.4 223 332.4 223C332.6 222.6 332.7 222.4 332.7 222.3C332.7 169.2 332.7 116.1 332.8 63.0001V58.6H300.3V61.7001C300.3 63.6001 300.3 65.4001 300.3 67.3001C300.3 70.3001 300.3 73.4001 300.3 76.4001V130.1C300.3 133.1 300.3 136.2 300.3 139.2C300.3 142.1 300.5 145 299.9 148C296.8 140.7 294.1 133.2 291.3 125.8C288.5 118.3 285.7 110.8 282.9 103.3C280.1 95.7001 277.2 88.1 274.4 80.6C271.7 73.3 269 66 266.2 58.6H238.7V58.8001C238.7 59.4001 238.7 60.2001 238.7 60.9001C238.7 61.2001 238.7 61.5001 238.7 61.8001V61.9001C238.7 115.8 238.8 169.7 238.8 223.5C238.8 223.6 238.9 223.7 238.9 223.8C238.9 223.9 239 224 239.1 224.2C241.5 224.6 244 224.9 246.6 224.5C246.7 223.5 246.8 222.7 246.9 221.9C249.3 222.4 247.6 225.4 250 226.2C251.2 224.5 253.1 224.7 254.8 224.5C256.6 224.3 258.4 224.6 260 223.6C260.1 223.5 260.5 223.6 260.7 223.8C262 224.7 262.8 223.7 263.5 223.2C265.8 224.9 268.2 224.4 270.8 224.4V171.3C270.8 170.1 270.8 168.8 270.8 167.6C270.8 166.5 270.6 165.3 271.5 164.1C279.9 184.2 288.2 204.2 296.6 224.2C299.4 224.5 302.1 224.8 304.7 225.2C309.8 225.8 314.7 226.1 319.7 225.4ZM270.9 234.9C269.8 234.9 268.8 234.9 267.9 234.9C264.1 234.8 260.3 234.7 256.5 234.6C254.9 234.5 253.3 234.3 251.7 234.3C247.6 234.4 243.5 234.6 239.5 234.8C239.3 234.8 239.2 235 238.8 235.2C238.8 236.5 238.8 238 238.8 239.5C238.8 240.9 238.9 242.4 238.9 243.9H271.1C271 240.9 271.2 238 270.9 234.9ZM270.8 232.5C270.8 232.3 270.8 232.1 270.9 231.9C268.4 231.2 265.8 231.5 263.3 231.4C260.6 231.3 258 231.3 255.3 231.3C252.6 231.3 250 231.3 247.3 231.3C244.8 231.3 242.2 231.3 239.7 231.7C243.6 232.1 247.5 232.3 251.3 232.5C252.6 232.6 254 232.6 255.3 232.4C259.8 231.8 264.2 231.8 268.6 232.4C269.4 232.6 270.1 232.5 270.8 232.5ZM485.3 229C485.3 228.8 485.1 228.6 484.8 228.2C484.4 228.9 484.1 229.5 483.7 230.2C485.3 230.7 485.4 230 485.3 229ZM368.4 224.4C368.5 224.5 368.8 224.4 368.9 224.3C369.4 223.7 369.4 223.1 368.9 222.6C368.8 222.5 368.7 222.5 368.4 222.4C367.8 223.2 367.7 223.8 368.4 224.4ZM480.8 230.6C482.3 230.6 482.3 230.6 482.8 228.3C481.3 228.8 481.3 228.8 480.8 230.6ZM349.9 224.9C354 224.6 358.1 224.3 362.1 224.2C363.6 224.1 365.1 224.4 366.9 224.5C366.9 223.4 367 222.4 367 221.3C367 219.8 367 219.8 367.5 218.6C368.2 219.4 367.2 220.9 368.6 221.5C369.8 219.2 370.3 217 370.2 214.6C370.1 213.2 369.9 211.6 370.4 210.3C371.1 208.4 370.9 206.6 371 204.7C371 203.9 371 203.1 371 202.2C371.4 204.1 371.1 206.1 371.4 207.9C371.9 211.1 372.4 214.2 372.1 217.5C372 218.3 372.4 219.1 373 219.8C373.4 219.2 373.6 218.8 374 218.1C374.5 220.5 373.8 222.6 374.7 224.6C375.3 224.6 375.7 224.7 376.2 224.7C378.7 224.7 381.1 224.8 383.6 225.1C387.7 225.6 392 225.9 395.5 223C396.1 223.2 396.6 223.3 397 223.5C399.3 224.7 401.6 225 404.2 224.1C405.1 223.8 406.1 223.8 407 223.7C410.1 223.5 413.3 223.3 416.4 223.1C417.3 223.1 418.4 223.1 419.2 223.5C421.6 224.7 423.9 224.6 426.3 223.5C427.8 222.9 429.3 222.9 431 223.4C434 224.3 437.2 223.7 440.3 223.8C441.2 220.2 441.5 216.8 441.5 213.3C441.5 172 441.5 130.6 441.5 89.3001C441.5 86.0001 441.2 82.6 440.5 79.4C438.3 68.6001 431.9 61.6 421 59.1C419.9 58.8 418.8 58.6001 417.7 58.5001H346.9V224.2C348 225.3 349 224.9 349.9 224.9ZM380.5 92.8001C381.1 92.7001 381.7 92.6 382.3 92.6C388.3 92.6 394.3 92.6 400.3 92.6C400.8 92.6 401.3 92.6 401.7 92.6C405.9 93 407.8 95.0001 407.9 99.2001C407.9 99.8001 407.9 100.3 407.9 100.9C407.9 134.9 407.9 168.9 407.9 202.9C407.9 203.9 407.9 204.8 407.8 205.8C407.5 208.7 406 210.3 403.2 210.8C402.2 211 401.1 211.1 400.1 211.1C394.1 211.1 388.1 211.1 382.1 211.1C381.5 211.1 381 211 380.5 210.9C380.1 208.7 380 96.2001 380.5 92.8001ZM372.2 199.1C371 200.3 370.9 200.2 369.6 199.1H372.2ZM458.2 234.3C459.3 234.2 460.3 234.1 461.3 234C461.4 234 461.5 233.7 461.6 233.6C459.3 232.9 459.3 232.9 458.2 234.3ZM482.2 232.7C483.5 233.1 484.3 233.4 485.2 232.2C484.4 232.1 483.9 232 483.3 232.1C483.1 232.1 482.9 232.3 482.2 232.7ZM480.3 232.9C480.7 232.8 481.2 232.6 481.6 232.5L481.5 232.1C481 232.2 480.6 232.2 480.1 232.3C480.1 232.5 480.3 232.9 480.3 232.9ZM525.8 228.4C527.9 228.4 529.7 228.8 531.2 230.7C531.9 230 532.5 229.7 533.3 230.2C534.4 230.9 535.7 231.1 537.1 230.8C538.8 230.5 540.7 230.5 542.4 230.4C543.1 230.4 543.9 230.6 544.6 230.7C546.6 231.2 548.6 231.4 550.9 231.3C550.6 230.1 550.3 229.2 550.1 228.2H517.8C520.5 228.4 523.2 228.4 525.8 228.4ZM485.7 218.8C483.8 221.9 483.6 222.5 483.9 224.6C485.3 222.9 486 221.3 485.7 218.8ZM536 233.6C538.6 234.1 541 234.3 543.2 232.7C541.7 232.6 540.2 232.4 538.7 232.3C537.6 232.3 536.6 232.4 536 233.6ZM442.3 232.1C442.3 232.3 442.3 232.5 442.3 232.7C443.4 232.9 444.5 233.1 445.6 233.4C447.4 233.9 449.1 233.8 450.9 233.3C452.4 232.8 454.1 232.6 455.6 232.6C462.2 232.6 468.7 232.8 475.3 232.9C476.3 232.9 477.2 233 478.1 232.9C478.4 232.9 478.6 232.6 479 232.3C478.3 232 477.8 231.8 477.1 231.4C478.1 231.1 478.8 230.9 479.6 230.7C479.8 229.9 479.9 229.2 480.1 228.3C479.4 228.2 478.8 228.1 478.3 228.1C467.2 228.1 456 228.1 444.9 228.1C444.3 228.1 443.7 228.1 443.2 228.3C442.9 228.4 442.7 229 442.4 229.5C447.1 230.2 451.7 230.8 456.2 230.1C462 229.3 467.6 230.5 473.2 231.3C462.9 230.8 452.6 231.5 442.3 232.1ZM499 233.2C497.4 236.7 497.8 240.4 498.3 244C498.3 244 498.3 244 498.3 244.1H499.1C498.8 242.3 498.5 240.6 498.5 239C498.4 237.1 498.8 235.2 499 233.2ZM350.5 230.9C355.7 230.7 360.9 230.5 366.2 230.3C366.5 230.3 366.7 230.1 367.1 230C367 229.5 366.9 229 366.8 228.3C364.1 228.3 361.5 228.3 359 228.3C355.3 228.3 351.6 228.3 347.9 228.4C347.7 228.4 347.4 228.6 347.1 228.8C347.1 229.4 347.2 229.9 347.2 230.7C348.2 230.7 349.4 230.9 350.5 230.9ZM114 228.3C113.6 228.1 113.1 228.2 112.6 228.2C103.2 228.2 93.8001 228.1 84.4001 228.1C83.9001 228.1 83.3001 228.2 82.8001 228.3V229.9C93.5001 229.8 103.9 229.7 114.7 229.6C114.4 229 114.3 228.4 114 228.3ZM86.8001 233.7C86.8001 233.5 86.7001 233.4 86.7001 233.2C86.1001 233.2 85.5001 233.3 84.9001 233.3C84.9001 233.5 85.0001 233.8 85.0001 234L86.8001 233.7ZM103.9 235.1C101.7 235.1 99.5001 235.3 97.4001 235.4C93.3001 235.5 89.2001 234.8 85.1001 235.1C83.5001 235.2 82.7001 235.6 82.7001 236.9C82.6001 239.2 82.7001 241.5 82.7001 244.1H114.6V235.1C110.8 235.1 107.3 235.1 103.9 235.1ZM155.3 234.2C144.8 234.2 134.4 234.2 123.9 234.3C123.1 234.3 122.2 234.5 121.3 234.6C120.6 237.7 120 240.7 119.3 244.1H154.3C155.4 240.2 156 236.1 155.8 234.4C155.6 234.3 155.5 234.2 155.3 234.2ZM97.8001 234C99.2001 234.3 100.4 234.3 101.9 233.4C100.2 233.1 99.0001 232.9 97.8001 234ZM97.4001 231.1C95.4001 231.1 93.5001 231.2 91.5001 230.6C90.8001 230.4 89.7001 230.1 89.3001 230.5C88.0001 231.6 86.4001 231.3 85.0001 231.6C84.3001 231.7 83.6001 232 83.0001 232.2C85.3001 232.6 87.5001 232.7 89.7001 232.6C96.4001 232.4 103.2 232.3 109.9 232.1C111.4 232.1 112.9 232.1 115 232.1C114.2 231.4 114.1 231.2 114 231.2C108.4 231.1 102.9 231 97.4001 231.1ZM32.1 228.1C21.4 227.9 10.8 228.1 0.100006 228.1C0.200006 228.9 0.300002 229.5 0.400002 230.2C4.80001 230.2 9.10001 230.2 13.3 230.2C13.7 230.2 14 230.1 14.4 230C16.1 229.5 17.8 229.6 19.5 230C20.3 230.2 21.2 230.3 22 230.3C24.8 230.4 27.5 230.4 30.3 230.3C30.9 230.3 31.6 230.2 32.2 230.1V228.1H32.1ZM360 232.6C362 232.6 364 232.6 366 232.6C366.3 232.6 366.7 232.3 367 232.1C364.1 231.6 361.3 230.8 358.5 231.4C356.8 231.8 355.1 231.8 353.4 231.6C351.8 231.4 350.2 231.5 348.6 231.5C348.1 231.5 347.7 231.9 347.2 232.1C349.3 232.5 351.4 232.6 353.4 232.6C353.5 232.6 353.6 232.7 353.8 232.8C353.3 233 352.8 233.1 352.2 233.2C352.2 233.4 352.3 233.6 352.3 233.8C354 233.7 355.7 233.6 357.6 233.6C357.4 233.1 357.3 232.9 357 232.4C358.1 232.6 359 232.6 360 232.6ZM2.4 231.5C1.9 231.5 1.4 231.5 1 231.5C0 231.5 4.57466e-06 232.1 0.200005 232.7C2.00001 232.7 3.80001 232.7 5.60001 232.7C7.10001 232.7 8.70001 232.6 9.90001 233.1C11.2 233.6 12.1 233.6 13.3 233C14.8 232.3 16.5 232 18.1 233.1C19.4 234 20.8 233.9 22.2 233.5C25.2 232.8 27.2 232.7 30.7 233.6C31.7 233.8 32.1 233.4 32.1 231.9C31.4 231.8 30.7 231.7 29.9 231.7C20.6 231.6 11.5 231.6 2.4 231.5ZM82.6001 222.8C85.1001 223.3 85.5001 221.6 86.0001 220C87.1001 222.2 87.0001 222.3 89.5001 222.7C91.6001 223.1 93.6001 223.3 95.7001 223.5C97.3001 223.7 98.7001 223.5 99.5001 221.8C99.5001 221.7 99.8001 221.7 99.7001 221.8C100.7 222.2 101.4 222.8 102.1 222.8C104.2 222.9 106.3 222.7 108.4 222.6C109 222.6 109.6 222.2 110 222C111.4 222.7 112.7 223.4 114.1 224C114.3 223.8 114.4 223.8 114.5 223.7C114.6 223.5 114.7 223.4 114.7 223.2C114.7 222.7 114.7 222.2 114.7 221.8C114.7 168.7 114.6 115.5 114.6 62.4001V58.7001H84.8001C76.0001 81.3001 67.3 103.8 58.2 126.8C49.1 103.6 40.2 81.1001 31.4 58.7001H0.100006V222.3C2.00001 222.4 3.8 222.8 5.40001 221.7C5.20001 221.2 5.00001 220.7 4.70001 220C5.90001 220.4 6.70001 220.7 7.80001 221.1C7.50001 219.7 7.20001 218.7 7.00001 217.7C8.00001 217.8 8.80001 217.9 9.70001 218C10.6 219.5 8.10001 220.7 9.40001 222.4C12.5 222.9 15.9 221.5 19.1 223.3C19.2 222.6 19.4 222.1 19.3 221.7C19.2 221.2 18.9 220.8 18.6 220.3C19.3 220.2 19.9 220 20.6 219.9C20.6 220.7 20.5 221.5 20.5 222.1C22.1 222.5 23.6 222.9 25 223.2C26.7 223.6 27.1 223.3 28.1 221.6C27.7 221.4 27.3 221.2 26.9 221C27.4 220 27.9 219 28.6 217.5C28.9 219.5 29.2 221 29.4 222.4C31.2 222 32.2 221.1 32 219.2C31.9 218.5 32 217.9 32 217.2V148.2C32.2 148.2 32.5 148.1 32.7 148.1C41 167.2 49.3 186.2 57.8 205.8C58.4 204.4 58.9 203.5 59.2 202.5C66.4 185.1 73.6001 167.7 80.8001 150.3C81.1001 149.6 81.5001 148.9 81.8001 148.2C82.0001 148.3 82.1001 148.3 82.3001 148.4V201.5C82.3001 205.1 82.3001 208.7 82.3001 212.4C82.6001 215.8 82.5001 219.3 82.6001 222.8ZM32 234.8H0C0 235.8 0 236.7 0 237.6V244.1H32.3V238.7C32.2 237.4 32.2 236.1 32 234.8ZM506.1 151.9C506.3 152.1 506.6 152.3 506.9 152.6C509.8 155.3 512 154 512.9 151.5C513 151.2 513.1 151 513.2 150.7C513.9 148.9 514.6 147.2 515.4 145.4C516.9 142 517.7 138.5 517.7 134.9C517.7 134 517.8 133.1 517.9 132.2C518.6 132.6 518.8 133 519 133.5C519.4 134.8 519.5 136.1 520 137.4C520.9 139.8 522.3 140.4 524.7 140C525.4 139.9 526.1 139.7 527.5 139.4C526.5 140.5 526.1 141.1 525.6 141.5C524.5 142.4 523.4 143.3 522.2 144.1C519.4 146 517.6 148.6 516.5 151.7C516.1 152.8 515.6 154 515.2 155C515.3 155.2 515.4 155.3 515.4 155.4C517.8 157 519.6 158.9 520.4 161.8C521.2 164.6 520.3 167.3 520.2 170C518.5 171.3 519.8 172.5 520.1 173.9C520.6 175.9 521 178 521.3 180C521.4 181.2 521.2 182.4 522.2 183.4C522.6 183.8 522.5 184.9 522.3 185.6C521.9 187.5 521.4 189.5 520.8 191.4C520.5 192.3 520.2 193.2 519.9 194.1C519.2 195.7 518.3 197.1 518.4 199.1C518.5 200.3 517.6 201.6 517 202.8C516.5 203.7 516 204.5 514.6 204.5C513.7 204.5 512.9 205.2 512 205.7C511.6 208.2 510.9 210.7 511.1 213.1C511.2 215.6 510.8 218 510.4 220.4C510.3 221 510.2 221.6 510 222.5H514C515 224.4 516.4 224.7 518.3 224.1C519.3 223.8 520.3 224 520.9 222.9C521.1 222.6 521.9 222.6 522.5 222.5C522.7 222.8 522.9 223 523 223.2C524.4 225.3 524.8 225.5 527.1 224.3C528.1 223.8 529 223.8 529.8 224.2C532.9 225.4 535.9 224.6 538.7 223.5C540.3 222.9 541.7 222.8 543.3 222.8C545.1 222.9 547 223.1 549 222.7C537.4 167.8 525.8 113.2 514.2 58.6H478.6C467 113.2 455.3 167.9 443.6 222.7C445 222.9 446.1 223.1 447.2 223.2C449.3 223.4 451.4 223.3 453.3 224.4C453.7 224.7 454.5 224.8 455 224.6C456.7 223.8 458.4 224.4 460 224.5C461.3 224.6 462.8 224.7 463.9 224.2C465 223.7 465.8 222.6 466.9 221.6C467.5 222.1 468.3 222.7 468.8 223.4C469.6 224.7 470.7 225.1 472.2 224.9C474.6 224.6 476.9 224.5 479.3 224.3C479.9 224.2 480.6 224.1 481.3 224.1C481.6 223.2 481.9 222.4 482.2 221.6C482.7 219.8 483.2 217.9 484.9 216.7C485.2 216.5 485.4 215.9 485.4 215.5C485.4 214.5 485.3 213.4 485.2 212.4C485.1 211.5 485 210.5 484.9 209.6C484.3 210.2 484.1 210.8 484 211.4C483.9 212 483.9 212.6 483.8 213.1C483.5 213.9 483 214.1 482.2 213.5C482.3 212.5 482.4 211.5 482.4 210.5C482.4 206.8 482.1 203.1 482.3 199.4C482.4 197.3 482.7 195.1 483.7 193.3C484.6 191.8 484.6 190.3 484.8 188.7C484.4 189 484.1 189.3 483.9 189.7C482.9 191.6 482 193.5 481 195.3C479.9 197.3 479.2 199.2 480 201.5C480.3 202.2 480.5 203.4 479.2 204C478.8 203.4 478.5 202.8 478 202.1C477.5 204.3 480.9 205.7 478.9 207.9C478.6 207.8 478.3 207.9 478.2 207.7C476 205.3 474.6 202.7 475 199.3C475.1 198.5 475.7 197.6 474.9 196.9C474.3 196.3 474.5 195.8 474.6 195.1C474.9 193.6 475.9 192.1 475.2 190.5C474 190.4 472.9 190.3 472.3 191.6C472.1 192 471.6 192.3 471.2 192.5C469.4 193.8 467.6 195 465.8 196.2C463.4 197.9 463.3 197.9 460.6 196.5C458.5 197.3 457.1 198.6 457 201C457 201.9 456.5 202.7 456.1 204C456.3 201.9 456.4 200.2 456.5 198.4C455.8 198.2 455.3 198.1 454.6 198C455.3 197.7 455.9 197.4 456.4 197.2C456.2 196.7 456.1 196.4 456 196.1C458.2 195.5 459.9 194.2 461.1 192.3C461.7 191.4 462.6 190.6 463.2 189.9C468.5 191.1 472.9 187.8 475.9 182.7C473.7 184.5 472.3 186.6 470 187.3C471.6 185.5 473.3 183.7 474.9 181.9C476.6 180 478.2 178 479.9 176C480.1 175.8 480.3 175.5 480.2 175.3C479.7 173.9 480.8 173 481.1 171.8C481.3 170.9 481.7 170.1 482.1 169.1C481.2 168.8 480.5 168.6 479.8 168.3C479.6 166.3 480.3 164.6 480.9 162.9C481.9 160.2 483.3 158 485.9 156.6C486.5 156.3 487 155.8 487.3 155.3C488.2 153.8 489.4 153 491.3 153.3C491.5 151.7 491.3 150.3 490.7 149C489.7 146.7 489.7 144.2 490.2 141.7C491 137.7 495.5 134.8 499.5 135.6C502.9 136.2 504.2 138.7 504.9 141.5C505.4 143.4 505.6 145.4 505.8 147.4C506.2 149 506.1 150.4 506.1 151.9ZM844.301 235.4C843.201 235.4 842.001 235.3 840.901 235.2C836.301 234.7 831.601 234.3 827.001 235.5C824.501 236.1 822.101 236.1 819.701 235.4C817.201 234.7 815.101 235.3 812.701 236.3C813.601 238.9 814.501 241.5 815.301 244.1H851.101C850.001 241 848.901 238 847.601 235.2C846.401 235.3 845.301 235.4 844.301 235.4ZM817.201 234C819.301 233.8 821.301 233.3 823.401 234.1C824.101 234.4 825.101 234 825.901 233.8C826.401 233.7 826.901 233.2 827.501 233.2C831.501 233.1 835.501 233.1 839.501 233.1C840.101 233.1 840.901 233.9 841.301 233.7C843.101 232.7 845.001 233.5 847.001 233C846.401 231.3 845.801 229.8 845.101 228.1C844.001 228.1 843.101 228.1 842.101 228.1C831.601 228.1 821.201 228.1 810.701 228.2C810.601 228.2 810.501 228.3 810.401 228.3C810.301 228.4 810.301 228.5 810.201 228.7C810.501 229.5 810.801 230.5 811.101 231.5C812.301 231.5 813.301 231.5 814.301 231.5C816.401 231.4 818.301 231.3 820.401 230.3C821.801 229.6 823.901 229.7 825.401 230.3C827.001 230.9 828.501 231.1 830.101 231.1C832.101 231.1 834.101 230.9 836.101 230.7C837.601 230.6 839.301 231.1 840.701 229.9C841.001 229.6 841.801 229.8 842.301 230C843.201 230.3 843.901 230.8 845.201 231.3C833.801 232.2 822.801 231.7 811.901 232.7C811.701 233.7 812.101 234.2 812.901 234.2C814.301 234.2 815.801 234.1 817.201 234ZM877.501 228.1C871.201 228.1 864.901 228.1 858.601 228.1C858.201 228.1 857.701 228.3 857.201 228.4C857.301 229.2 857.301 230 857.401 230.9C858.701 230.9 859.801 231 860.901 231C864.901 230.9 868.901 230.8 872.901 230.8C873.701 230.8 874.401 230.7 875.201 230.8C875.601 230.9 875.901 231.3 876.501 231.9C875.301 232.1 874.601 232.3 873.901 232.3C869.001 232.4 864.201 232.4 859.301 232.5C858.601 232.5 857.801 232.3 857.101 233.3C867.901 234.8 878.401 233.4 888.801 233C888.901 233.2 889.001 233.4 889.001 233.7C888.601 234 888.201 234.5 887.701 234.6C886.901 234.8 886.001 234.8 885.101 234.8C878.801 234.8 872.501 234.8 866.201 234.8C863.201 234.8 860.201 235 856.901 235.1C856.901 236.8 856.901 238.4 856.901 239.9C856.901 240.8 856.801 241.7 856.901 242.6V244.3H890.401V228.4C889.501 228.3 888.801 228.2 888.101 228.2C884.701 228 881.101 228.1 877.501 228.1ZM887.201 231.4C885.101 231.6 883.001 231.8 880.801 232C880.601 231 880.701 230.4 881.601 230.4C883.301 230.3 885.001 230.3 886.701 230.4C886.901 230.4 887.101 230.7 887.301 230.8C887.201 231 887.201 231.2 887.201 231.4ZM857.401 61.9001C857.101 85.4 857.201 222.4 857.601 224.6H860.301C865.701 224.6 871.201 224.6 876.601 224.6C877.801 224.6 879.001 224.7 880.201 225.2C881.501 225.7 883.001 226.1 884.301 226C886.301 225.9 888.301 225.3 890.601 224.8C890.701 224.5 890.801 224.3 890.801 224C890.801 169.5 890.801 114.9 890.801 60.4001V58.6H857.301V61.9001H857.401ZM976.201 223.5C976.401 223.5 976.601 223.4 976.801 223.5C978.601 224.7 980.501 224.3 982.401 224.3C983.601 224.3 984.501 223.8 985.601 223.6C988.301 223.1 991.001 222.8 993.701 222.5C994.201 222.4 994.801 222.7 995.301 223C996.201 223.4 997.001 223.9 997.901 224.2C998.501 224.4 999.201 224.5 999.801 224.4C1001.1 224.1 1002.3 223.7 1003.7 223.2C992.101 168.3 980.401 113.6 968.801 58.7001H933.501C931.501 66.8001 897.901 223.8 898.101 225.8C898.701 225.7 899.501 225.9 899.901 225.5C901.101 224.5 902.501 224.5 904.001 224.6C906.201 224.7 908.401 224.8 910.601 224.9C913.001 224.9 915.301 224.9 917.701 224.9C918.601 224.9 919.301 224.8 920.101 225.5C921.101 226.4 922.201 226.3 923.201 225.5C924.201 224.7 925.301 224.8 926.401 224.9C928.401 225.1 930.401 225.2 932.401 225.3C932.601 224.8 932.701 224.7 932.701 224.6C932.801 224.4 932.801 224.2 932.901 224.1C938.801 193.6 944.801 163 950.701 132.5C950.701 132.4 950.801 132.3 950.901 132.3C951.001 132.3 951.101 132.3 951.501 132.3C957.201 162 962.901 191.7 968.501 221.4C970.901 222.6 973.301 224 976.201 223.5ZM919.601 224.4C919.401 223.9 919.101 223.6 919.101 223.3C919.201 223 919.601 222.9 919.801 222.7C920.001 223 920.301 223.2 920.301 223.5C920.301 223.7 920.001 223.9 919.601 224.4ZM496.9 228.3C497.5 229.4 498 230.3 498.6 231.5C498.9 230.3 499.4 229.4 498.8 228.3H496.9ZM727.6 228.2C727.9 228.8 728.001 229.5 728.201 229.5C729.701 229.6 731.2 229.8 732.6 230.5C732.8 230.6 733.3 230.6 733.4 230.5C734.3 229.4 735.701 230 736.701 229.5C736.801 229.2 736.901 229 737.001 228.8C737.001 228.6 737.001 228.4 737.001 228.1H727.6V228.2ZM728.9 231.1C728.3 231.1 727.801 231.2 727.701 232C727.701 232.8 728.301 232.9 728.801 232.9C730.801 233 732.701 233.1 734.701 233.1C735.501 233.1 735.9 232.7 735.9 231.5C734 231.4 732.101 231.2 730.201 231.1C729.901 231.1 729.4 231.1 728.9 231.1ZM819.401 226.4C820.001 226.4 820.501 226.6 821.001 226.8C822.501 227.6 823.701 227.3 824.801 226C825.601 225.1 826.601 224.4 827.801 224.7C829.301 225.1 830.801 225 832.201 225.1C834.101 225.2 836.001 225.2 837.901 225.2C839.201 225.2 840.601 225.1 841.901 225C842.401 225 842.901 224.8 843.601 224.7C843.201 223.6 842.901 222.7 842.501 221.8C835.801 204.5 829.101 187.2 822.501 169.9C822.101 168.9 821.401 167.9 821.701 166.8C824.201 166.5 826.601 166.3 828.901 165.9C836.701 164.4 841.501 159.8 842.801 152.3C843.201 150.3 843.301 148.3 843.301 146.3C843.301 125.2 843.401 104 843.301 82.9C843.301 78.7001 843.001 74.5001 841.801 70.5001C840.101 64.8001 836.501 61.2 830.801 59.6C829.601 59.3 828.401 59.0001 827.201 58.9001H749.501C749.501 60.3001 749.4 61.5001 749.4 62.7001C749.4 115.7 749.4 168.8 749.4 221.8C749.4 222.6 749.4 223.3 749.4 224.1C749.5 224.7 749.701 225.3 749.801 226C753.001 226.2 756.001 226.1 759.001 225.6C760.301 225.3 762.001 225.4 763.101 226C764.901 227 766.401 226.8 768.201 226C768.801 225.7 769.901 225.6 770.301 226C770.901 226.7 771.601 226.9 772.501 227C773.001 227.1 773.401 227.7 774.401 228.5C772.901 228.5 771.901 228.5 771.001 228.5C764.201 228.5 757.501 228.5 750.701 228.5C750.401 228.5 750.001 228.7 749.501 228.8C749.601 229.6 749.601 230.3 749.701 231.2C752.301 231.3 754.801 231.6 757.201 231.6C758.301 231.6 759.301 231.2 760.401 230.9C760.401 230.9 760.401 230.9 760.301 231C762.901 230.4 765.601 230.5 768.201 230.7C772.601 231 777.001 230.8 781.301 230.8C782.801 230.8 782.801 230.6 782.601 228.6H776.701C778.601 227.2 781.101 227.1 783.001 225V221.7C783.001 180.4 783.001 139 783.001 97.7001C783.001 96.8001 783.001 96 783.001 95.1C783.001 94.5 783.201 93.9001 783.301 93.2001C783.901 93.2001 784.201 93.1 784.601 93.1C790.901 93.1 797.201 93.1 803.501 93.1C803.901 93.1 804.301 93.1 804.601 93.1C807.001 93.4 808.201 94.4001 808.501 96.8001C808.701 98.1001 808.701 99.5001 808.801 100.8C808.801 109.1 808.801 117.4 808.801 125.7C808.801 126.9 808.701 128.2 808.601 129.4C808.301 132.2 807.201 133.2 804.401 133.5C803.601 133.6 802.901 133.6 802.101 133.6C799.001 133.6 795.801 133.6 792.701 133.6C792.001 133.6 791.201 133.7 790.401 133.8C790.401 134.5 790.301 135.1 790.301 135.6C790.301 146.8 790.301 158.1 790.301 169.3C790.301 170.3 790.501 171.4 790.801 172.4C796.501 189.5 802.301 206.7 808.101 223.8C808.901 226.1 809.001 226.1 811.301 226.3C814.101 225.9 816.801 226.1 819.401 226.4ZM760.601 230.4C759.601 230.3 758.601 230.1 757.501 230C759.101 229 759.501 228.9 761.601 229.2C761.101 229.7 760.801 230 760.601 230.4ZM751.201 234.5C752.301 234.4 753.501 234.4 754.601 234C756.601 233.4 758.701 233.3 760.801 233.6C762.501 233.8 764.201 234 765.901 233.7C769.201 233.1 772.301 233.4 775.501 234C778.001 234.5 780.501 234.4 783.101 234.1V232C782.301 232 781.701 232 781.101 232C779.301 231.9 777.501 232.1 775.701 231.8C769.201 230.8 762.801 231.4 756.401 232.2C754.701 232.4 753.001 232.5 751.301 232.7C750.701 232.8 749.801 232.7 749.801 233.6C749.701 234.7 750.601 234.6 751.201 234.5ZM749.501 236C749.601 238.8 749.301 241.4 749.701 244H783.001V235.8C777.401 235.6 772.001 235.7 766.701 235.1C761.001 234.6 755.501 236 749.501 236ZM737.201 76.2001C735.901 66.4001 730.301 60.6001 720.501 59.0001C717.101 58.5001 713.7 58.3001 710.3 58.3001C697.1 58.2001 683.8 58.3001 670.6 58.3001C668.7 58.3001 666.8 58.2001 664.9 58.5001C662.1 58.8001 659.2 59.2001 656.5 59.9001C649.6 61.7001 645.3 66.3 644.2 73.4C643.5 77.6 643.2 81.9001 643.2 86.2001C643.1 129.5 643.1 172.8 643.2 216.2C643.2 219.3 643.5 222.5 643.6 225.6C643.6 226.2 643.9 226.8 644.2 227.5C645.4 227.1 646.4 226.8 647.2 226.6C647.4 225.9 647.6 225.4 647.7 225C648 224.9 648.1 224.9 648.2 224.9C651.4 225 654.7 224.1 657.6 226.1C657.8 226.2 658.2 226.1 658.4 226.2C659.1 226.3 659.9 226.3 660.6 226.6C662.4 227.4 664 227.6 665.7 226.3V224.1C666.4 224.7 666.9 225 667.4 225.4C667.7 225.6 667.9 226.1 668.2 226.1C669.9 226.2 671.6 226.9 673.2 225.7C674.6 224.7 676 224.7 677.4 225.6C678.7 226.5 679.9 226.3 681.3 225.5C684.5 223.8 687.9 224.8 691.3 225.1C691.4 225.1 691.4 225.2 691.5 225.3C694.6 227 697.8 226.7 700.8 225.4C702.4 224.7 703.6 224.5 705.1 225.4C706.1 226.1 707.2 226.1 708.4 225.8C711.3 225.2 714.3 224.5 717.301 225.2C717.401 225.2 717.601 225 718.001 224.8V217.8C718.001 216.6 718.001 215.3 718.001 214.1C718.101 212.9 717.701 211.7 718.801 210.6C718.901 212.1 719.101 213.6 719.201 215.3C719.701 215.2 720.3 215.2 720.4 215C721.2 212.7 722.3 210.5 722.4 208C722.4 204.6 722.501 201.3 723.001 197.9C723.601 194.2 723.1 190.3 723.1 186.6C722.7 185.9 721.201 186.6 721.501 185C722.601 185.1 723.801 185.1 725.301 185.2C724.601 186.4 723.4 186.6 723.4 187.9C723.4 193.7 724.201 199.4 724.801 205.2C724.901 206.6 724.801 208 724.801 209.4C724.801 210.8 725.201 212 726.201 213.2C726.601 212.2 726.901 211.4 727.201 210.6C727.401 210.6 727.601 210.7 727.701 210.7V225.3C730.301 226 732.5 226.5 734.9 226.1C737.6 225.7 737.8 225.8 737.9 223.2C738 220.9 738.001 218.6 738.001 216.3C738.001 193.7 738.001 171.2 738.001 148.6C738.001 128.1 738.001 107.7 738.001 87.2001C737.901 83.6001 737.701 79.8001 737.201 76.2001ZM704.201 210.5C704.001 210.7 704 210.8 703.9 210.8C703.8 210.9 703.801 210.9 703.701 210.9C703.501 211 703.3 211 703.1 211C695.2 211 687.3 211 679.4 211C678.6 211 677.9 211 677 211C676.9 210.2 676.7 209.6 676.7 209C676.6 208.4 676.7 207.9 676.7 207.3V96.3001C676.7 95.2001 676.7 94.1001 676.7 92.7001H703.8C704 92.9001 704.1 92.9001 704.1 93.0001C704.1 93.1001 704.201 93.2001 704.201 93.3001C704.201 131.9 704.3 170.4 704.3 209C704.2 209.5 704.201 210.1 704.201 210.5ZM1096.6 228.2C1095.8 229.3 1095.8 230.4 1096.5 232C1097.4 230.5 1097.2 229.4 1096.6 228.2ZM1087.4 207C1086.3 207.1 1085.5 207.1 1084.8 207.2C1084.1 210 1084.2 213 1085 215.3C1085.9 215.1 1086.9 214.8 1087.9 214.6C1087.5 212 1087.9 209.5 1087.4 207ZM1002.3 228.1C991.601 228.1 981.001 228.2 970.301 228.2C970.201 228.2 970.101 228.3 970.101 228.3C970.001 228.4 970.001 228.4 969.801 228.7C970.801 233.7 971.701 238.8 972.701 244.1H1008.1C1006.9 238.7 1005.8 233.4 1004.7 228.1C1003.8 228.1 1003 228.1 1002.3 228.1ZM1096.1 206.6C1096 207.7 1096 208.3 1095.9 208.9C1097.3 208.4 1097.2 207.7 1096.1 206.6ZM1084.6 231.8H1087.5V228.2H1084.6V231.8ZM1106.9 235.3C1103.9 235.5 1100.8 234.4 1098 236.1C1097.9 236.2 1097.6 236.1 1097.4 236.1C1093.6 236.1 1089.8 236.1 1086 236.1C1085.4 236.1 1084.8 235.7 1084.2 235.4C1083.4 235 1084.1 234 1084 234C1082.2 233.6 1083 232.2 1082.8 231.2C1082.7 230.2 1083.1 229.1 1082.3 228.1H1072.9C1075.2 233.7 1077.4 238.9 1079.5 244H1107.1C1107.1 242.5 1107.1 241.1 1107.1 239.8C1107.1 238.3 1107.4 236.8 1106.9 235.3ZM1029.3 228.1C1026.6 228.1 1024 228.1 1021.3 228.1C1018.7 228.1 1016 227.9 1013.4 228.3V244.1H1045.5C1045.5 238.9 1045.5 233.6 1045.5 228.1H1029.3ZM1079.4 219.7C1081.9 219.9 1082.8 218.6 1082.8 215.9C1082.8 211.5 1082.8 207.1 1082.8 202.8C1082.8 201.1 1082.8 199.4 1082.9 197.7C1082.9 197.3 1083.2 197 1083.4 196.6C1084.7 199.3 1084 202.1 1084.5 204.9H1087.1C1087 203.2 1086.8 201.5 1088.4 200.5C1088.9 198.1 1089.4 195.8 1089.7 193.4C1089.9 191.7 1089.5 190 1089.5 188.3C1089.6 185.8 1089.8 183.4 1089.9 180.9C1089.9 180.5 1089.5 180.1 1089.3 179.7C1090.8 178.7 1091 177.3 1091 175.7C1091.1 170 1090.5 164.3 1091.3 158.6C1091.4 158 1091.2 157.3 1091.2 156.8C1090.2 156.7 1089.4 156.8 1088.7 156.6C1087.6 156.2 1087.8 155.4 1088.1 154.6C1089.3 153.9 1090 154.9 1090.9 155.1C1091.9 155.4 1092.8 153.8 1094 154.5C1095 156.6 1093.1 156.7 1092.1 157.3C1092.1 163.8 1092.1 170.1 1092.1 176.3C1092.1 176.8 1092.2 177.3 1092.4 177.7C1093.4 180 1093.7 182.4 1093.8 184.9C1093.9 186.4 1093.2 188.1 1094.6 189.5C1094.7 189.6 1094.5 190.2 1094.4 190.5C1094.3 190.8 1093.9 191.1 1093.9 191.5C1093.8 195 1093.5 198.4 1095.8 201.5C1096.1 201.9 1096.1 202.6 1096.2 203.1C1096.2 203.4 1096.2 203.7 1096.2 204C1096.2 204.3 1096.3 204.6 1096.3 204.8C1097.2 203.4 1096.9 202 1097 200.6C1097.1 199.2 1096.7 197.7 1098.2 196.3C1099.3 199.6 1098.6 202.6 1098.8 205.6C1099 208.6 1098.9 211.6 1098.9 214.6C1101.7 214.2 1104.2 213.8 1107 213.4C1107 212.4 1107 211.2 1107 210.1C1107 160.7 1107 111.3 1107 61.8001C1107 61.6001 1107 61.4001 1107 61.2001C1107 61.0001 1107 60.8001 1107 60.5001V58.5001H1074.7V148.2C1074.5 148.2 1074.3 148.3 1074.1 148.3C1062.9 118.4 1051.8 88.4 1040.6 58.4001H1013.3V61.2001C1013.3 114.2 1013.3 167.3 1013.3 220.3C1013.3 221 1013.3 221.6 1013.3 222.3C1013.4 223.4 1014 223.9 1015 223.7C1015.8 223.5 1016.7 223.2 1017.3 222.7C1018.4 221.9 1019.4 221.8 1020.7 222.1C1021.9 222.4 1023.1 222.4 1024.4 222.4C1026.5 222.3 1028.6 222.2 1030.7 222C1032.3 221.9 1034 221.8 1035.5 221.4C1037.3 220.9 1038.8 221 1040.4 221.9C1041.9 222.7 1043.5 223.3 1045.5 223.1C1045.5 221.8 1045.6 220.7 1045.6 219.6C1045.6 202 1045.6 184.4 1045.6 166.7C1045.6 165.7 1045.4 164.7 1046.1 163.3C1054.2 182.7 1062.1 201.7 1070 220.7C1070.5 220.7 1070.8 220.7 1071 220.7C1073.8 220.6 1076.5 219.6 1079.4 219.7ZM1107 233.7V228.5C1105.1 228 1102.2 227.9 1099.2 228.4C1098.7 230.3 1099.4 232.3 1098.8 234.4C1101.4 234.1 1104.1 233.9 1107 233.7ZM1095.9 214.9C1096.2 214.8 1096.7 214.9 1096.7 214.7C1097.3 213.5 1097.1 212.3 1096.4 211.1C1096.3 212.4 1095.3 213.5 1095.9 214.9ZM893.801 244.1H929.001C930.001 238.9 931.001 233.7 932.101 228.2H897.201C896.001 233.5 894.901 238.7 893.801 244.1ZM930.301 229.9C930.301 230.1 930.301 230.3 930.301 230.5C929.801 230.5 929.201 230.4 928.701 230.4C928.701 230.3 928.701 230.1 928.701 230C929.201 229.9 929.701 229.9 930.301 229.9ZM929.801 232.6C927.901 233.6 926.001 233.3 924.001 232.7C925.901 232 926.901 231.9 929.801 232.6ZM916.401 230.9C914.301 231.8 913.401 231.8 911.201 231.1C913.001 230.6 914.501 230.9 916.401 230.9ZM906.201 231.4C904.001 232.3 901.701 231.8 899.001 231.5C901.501 230.7 902.801 230.6 906.201 231.4ZM898.701 234.4H903.401C903.401 234.5 903.401 234.7 903.401 234.8C902.701 234.8 902.001 234.8 901.201 234.8C900.401 234.8 899.501 234.8 898.701 234.8C898.701 234.7 898.701 234.5 898.701 234.4ZM628.4 235.2C619.4 234.3 610.5 235.5 601.6 235.4C599.9 235.4 598.4 235.8 597.1 236.9C596.1 237.8 595 238.1 593.7 237.9C592.9 237.8 592 237.9 591.1 237.9C590.9 237.3 590.9 236.9 590.7 236.6C590.2 235.7 589.4 234.6 588.3 235.1C587.3 235.5 586.5 235.3 585.5 235.2C580.1 234.3 574.6 234.9 569.3 235.7C565.1 236.3 561 236.2 556.6 235.8C556.6 237.5 556.5 239.3 556.5 241.1V244.2H634.8C634.8 241 634.9 238.1 634.8 235.4C632.6 235.2 630.5 235.4 628.4 235.2ZM582.4 236.1H587.2C586 237.5 584.6 237.6 582.4 236.1ZM513.3 192.5C513.3 191.7 513.4 190.9 513.4 190C511.7 190.7 512.4 191.6 513.3 192.5ZM545.2 235.5C541.8 235.5 538.4 235.6 535 235.4C533 235.3 530.9 235.1 528.7 234.3C529.4 233.9 529.9 233.6 530.4 233.3C530.3 233.1 530.3 233 530.2 232.8C528.9 232.6 527.7 232.2 526.4 232.1C525.1 232 523.7 232.8 522.5 231.6C523.1 231.1 523.4 230.4 522.5 230.1C521.7 229.8 520.8 229.7 520 229.8C517.9 229.9 515.9 230.2 513.8 230.5C513.6 230.5 513.5 230.9 513.3 231.2C516 232.5 518.6 230.6 521.2 231.3C521.3 231.9 521.4 232.4 521.5 233.1C522.1 233.3 522.7 233.6 523.3 233.8C523.9 234 524.6 234.1 525.2 234.3C524.1 234.8 523.1 234.9 522 235C518.3 235.2 514.6 235.5 510.9 235.7C509.5 235.8 508.6 236.3 507.9 237.5C506.6 239.6 506.4 241.9 506 244.3H553.6C553 241.5 552.4 238.7 551.8 235.7C549.5 235.5 547.3 235.5 545.2 235.5ZM520.3 237.4C518.3 237.8 516.2 238.2 514.2 238.6C513.5 238.7 513 238.4 512.9 237.8C512.9 237.4 513.3 236.9 513.6 236.5C513.7 236.3 514.1 236.2 514.4 236.2C516.6 236.1 518.7 236.2 520.8 236.3C520.8 236.5 520.9 236.7 520.9 236.9C520.7 237.1 520.5 237.4 520.3 237.4ZM525.1 237.1C526.4 236.3 527.2 236.5 528 237.1H525.1ZM558.8 233.9C558.8 233.7 558.9 233.4 558.9 233.2C558.4 233.1 557.8 232.9 557.3 232.8C557.1 232.8 556.8 233.2 556.8 233.3C556.9 233.6 557.1 234.1 557.3 234.1C557.8 234.1 558.3 233.9 558.8 233.9ZM571.9 232.7C569.7 232.7 567.5 232.7 565.2 232.7C564.8 232.7 564.4 232.7 564.1 232.7C563.9 232.7 563.7 232.8 563.6 232.9C563.5 232.9 563.4 233 563.4 233.1C563.3 233.2 563.3 233.3 563.2 233.5C565 234.3 568.7 234.6 570.7 234C571.2 233.8 572.1 233.8 571.9 232.7ZM463.1 195.6C464.6 194.7 466.1 193.7 468 192.6C465.4 192.3 464.4 194.1 462.8 195L463.1 195.6ZM479.7 179C479.1 179.6 478.5 180.3 477.5 181.3C479.4 180.4 479.4 180.4 479.7 179ZM499 218.8C497.7 220.1 498 221.6 497.2 223.1C498.1 222.9 498.6 222.8 499 222.7V218.8ZM475.1 187.1C476.2 186.3 477.4 185.4 478.6 184.5C478.2 184.2 477.9 183.9 477.8 183.9C476.3 184.4 475.7 185.7 475.1 187.1ZM578.9 234.3C580.8 234.3 582.7 233.8 584.6 233C584.1 232.5 583.5 232.1 583 232.2C581.2 232.3 579.5 232.5 577.7 232.8C577.5 232.8 577.3 233.1 576.9 233.3C577.3 234.4 578.2 234.3 578.9 234.3ZM513.5 181.8C513.2 181 513.4 180 512.2 179.6C512 185.3 512 185.3 513.3 186.3C513.4 185.1 513.5 184 513.6 182.9C513.6 182.6 513.6 182.2 513.5 181.8ZM599.6 233.8C601.4 233.9 603.1 233.9 604.9 233.9C605 233.9 605.1 233.3 605.3 232.9C603.1 232.5 601.1 232.6 598.5 232.9C599.2 233.5 599.4 233.8 599.6 233.8ZM663.1 234.2C664.9 234.2 666.6 234.6 668.3 233.5C666.3 232.2 663.8 232.5 663.1 234.2ZM685.8 233C681.1 232.4 676.3 232 671.5 231.3C669 230.9 666.5 230.8 664 231.3C667 231.6 670.1 231.8 673.1 232.3C677.4 233.1 681.6 233.3 685.8 233ZM689.6 234.5C678.7 234.5 667.7 235.4 656.8 234.9C656.1 234.9 655.5 234.9 654.8 234.9C653.9 234.9 653.2 235.1 652.6 235.8C651.6 237 650.3 236.9 648.9 236.4C648.3 236.2 647.7 235.8 646.6 235.3C649.1 239.5 652.4 241.5 656.3 242.8C660.2 244.1 664.3 244.5 668.4 244.5C683.1 244.5 697.9 244.5 712.6 244.5C715.2 244.5 717.701 244.2 720.301 243.9C723.701 243.4 727 242.4 729.9 240.4C731.8 239.1 733.401 237.6 734.501 235.4C731.401 235.2 728.601 235 725.801 234.8C713.7 234.2 701.7 234.5 689.6 234.5ZM719.001 216.8C718.901 219.6 718.8 222.3 719.1 225C719.1 225.1 719.5 225.2 719.9 225.5C720 224.1 719.701 222.7 720.301 221.8C721.301 220.1 720.601 218.6 720.701 216.8H719.001ZM710.4 232.2C713 232.5 715.4 233.1 718.301 232.3C716.201 231.2 712.7 231.2 710.4 232.2ZM719.1 228.9C719.1 229.2 719.501 229.7 719.701 229.7C720.201 229.7 720.6 229.5 721.4 229.2C720.8 228.6 720.601 228.2 720.201 228.1C719.601 228 719 228.2 719.1 228.9ZM648.2 229.7C648.4 230 648.6 230.6 648.8 230.6C651.1 230.5 652.3 231.8 652.8 233.6C654.1 233.2 655.1 232.8 656.2 232.7C658.3 232.4 660.4 232.2 662.4 231.9C662.9 231.8 663.3 231.5 663.7 231.3H658.4C664.6 229.5 671 229.5 677.3 229.9C682.3 230.2 687.4 230.7 692.4 230.7C699.7 230.7 707 230.3 714.4 230.1C715.3 230.1 716.101 230 717.001 229.9C718.001 229.8 717.901 229.1 717.701 228.4C715.501 228 646.8 228 644.2 228.4C644 229.4 644.2 230.2 645 231.1C645.9 230.4 646.6 229.8 647.7 228.9C648 229.2 648.1 229.5 648.2 229.7ZM594.4 234.2C594.4 234 594.5 233.7 594.5 233.5C593.2 232.3 591.6 232.9 590.1 232.8C589.1 232.7 587.8 232.4 587.1 233.7C587.4 233.9 587.6 234.3 587.8 234.3C590 234.2 592.2 234.2 594.4 234.2ZM620.9 232.8C616.8 231.6 613.2 232.6 609.5 232.7C609.3 232.7 609.2 233 608.9 233.4C609.3 233.6 609.6 233.9 609.9 233.9C613.2 233.9 616.5 233.8 619.8 233.7C620.1 233.7 620.3 233.3 620.9 232.8ZM634.2 225.9C635 224.8 634.9 223.6 634.9 222.4C634.9 219.6 634.9 216.9 634.9 214.1C634.9 213.5 634.7 212.9 634.6 212.1H609C606.2 212.1 603.5 212.2 600.7 212.1C597.9 212 595.1 212.4 592.4 211.9C592.3 211.6 592.2 211.5 592.2 211.4C592.2 211.3 592.2 211.2 592.2 211.1C592.2 211 592.2 210.9 592.2 210.8C592.2 210.7 592.2 210.6 592.2 210.5C592.2 210.4 592.2 210.3 592.2 210.2C592.2 161.2 592.2 112.1 592.2 63.1V58.6H556.7V62.0001C556.7 114.3 556.7 166.5 556.7 218.8C556.7 219.5 556.7 220.1 556.7 220.8C556.8 222.4 557.6 223.2 559.1 223.4C559.6 223.5 560.1 223.3 560.5 223.4C561.1 223.5 561.9 223.6 562.3 224C563.2 224.8 564.2 224.8 565.2 224.7C568.7 224.5 572.2 224 575.6 223.1C577.5 222.6 579.4 222.3 580.3 224.7C581.3 224.6 582.1 224.5 583 224.5C588.4 224.5 593.8 224.5 599.3 224.6C606.9 224.7 614.5 224.8 622.1 225C623.1 225 624.2 225.3 625.2 225.4C626.8 225.5 628.4 225.6 630 225.7C630.6 225.7 631.3 225.7 632 225.7C632.1 226.4 632.2 226.9 632.3 227.5C632.3 227.6 632.1 227.8 631.9 228.2H556.9V231.2C558.4 231.1 559.7 230.9 561 230.9C563.8 231 566.7 231.5 569.5 230.8C569.8 230.7 570.3 230.9 570.6 231C572.6 231.6 574.6 231.5 576.5 230.8C577.9 230.3 579.2 230.2 580.7 230.6C581.7 230.9 583 230.9 584.1 230.6C585.9 230.1 587.7 230.2 589.5 230.6C593.9 231.6 598.3 231.8 602.8 230.9C604 230.7 605.1 230.4 606.3 230C608.5 229.3 610.9 229 613.2 230.1C617.2 231.9 621.3 231.9 625.5 230.8C626.6 230.5 627.8 230.2 628.8 230.4C630.4 230.7 631.8 230.6 633 229.5C633.4 229.1 634.2 229.1 635.3 228.8C633.8 228 633.6 226.8 634.2 225.9ZM620.5 230C619.4 230 618.3 229.8 617.3 229.8V229.4H623.6C622.6 230.5 621.4 230.1 620.5 230Z" fill="white"/>
<path d="M485.7 21.4H0.0999756V28.5H485.7V21.4Z" fill="white"/>
<path d="M1107.1 21.4H621.7V28.5H1107.1V21.4Z" fill="white"/>
<path d="M606.4 16.8C606.4 14.8 606.4 13 606.4 10.9C599 10.9 591.7 10.9 584.3 10.9C584.3 9.49999 584.3 8.3 584.3 7C591.9 7 599.4 7 607 7C607 4.6 607 2.4 607 0C596.9 0 586.9 0 576.8 0C576.8 9.5 576.8 19 576.8 28.5C587 28.5 597.1 28.5 607.3 28.5C607.3 26.2 607.3 23.9 607.3 21.5C599.6 21.5 591.9 21.5 584.3 21.5C584.3 19.8 584.3 18.3 584.3 16.8C591.7 16.8 599 16.8 606.4 16.8ZM558.3 0C558.3 3.5 558.3 6.89999 558.3 10.4C551.6 10.4 545.1 10.4 538.5 10.4C538.5 6.89999 538.5 3.4 538.5 0C535.9 0 533.6 0 531.2 0C531.2 9.5 531.2 19 531.2 28.5C533.7 28.5 536.1 28.5 538.6 28.5C538.6 24.6 538.6 20.8 538.6 16.9C545.2 16.9 551.7 16.9 558.4 16.9C558.4 20.8 558.4 24.6 558.4 28.5C561 28.5 563.4 28.5 565.8 28.5C565.8 19 565.8 9.5 565.8 0C563.3 0 560.9 0 558.3 0ZM508.5 28.5C508.5 21 508.5 13.7 508.5 6.2C512.6 6.2 516.6 6.2 520.7 6.2C520.7 4 520.7 2 520.7 0C510 0 499.5 0 488.9 0C488.9 2.1 488.9 4.1 488.9 6.3C493 6.3 496.9 6.3 501.1 6.3C501.1 13.8 501.1 21.1 501.1 28.5C503.5 28.5 505.9 28.5 508.5 28.5Z" fill="white"/>
</g>
<defs>
<clipPath id="clip0">
<rect width="1107.19" height="244.5" fill="white"/>
</clipPath>
</defs>
</svg>
