<svg width="26" height="26" viewBox="0 0 26 26" fill="currentColor" xmlns="http://www.w3.org/2000/svg">
  <path
    d="M2.37131 11.5366C3.05696 12.7073 8.40506 18.9122 13.3418 25L22.9409 11.5366C22.9409 11.5366 25.0763 8.80567 24.9979 6.85366C24.9398 5.40872 24.6663 4.4827 23.6266 3.34146C22.8046 2.43924 22.1038 2.05647 20.884 1.58537C19.8781 1.19688 19.2124 1 18.1414 1C17.0703 1 16.3616 1.12423 15.3987 1.58537C14.408 2.05987 13.3418 3.34146 13.3418 3.34146C13.3418 3.34146 11.819 2.05647 10.5992 1.58537C9.59327 1.19688 8.96056 1 7.85654 1C6.75252 1 6.11981 1.19688 5.11392 1.58537C3.89411 2.05647 2.37131 3.34146 2.37131 3.34146C2.37131 3.34146 1 4.5122 1 6.85366C1 9.19512 1.68565 10.3659 2.37131 11.5366Z"
    stroke="white" stroke-linecap="round" stroke-linejoin="round" stroke-width="2" />
</svg>