<svg width="443" height="280" viewBox="0 0 443 280" fill="none" xmlns="http://www.w3.org/2000/svg">
  <rect width="443" height="280" rx="17" fill="url(#paint0_linear)" />
  <path
    d="M42.062 225.502L43.1289 229H44.8359L40.5498 215.492H39.1118L34.7515 229H36.4678L37.5532 225.502H42.062ZM38.0171 224.009L39.8262 218.146L41.6074 224.009H38.0171ZM50.0127 227.887C50.0127 228.245 50.124 228.552 50.3467 228.805C50.5755 229.053 50.9126 229.176 51.3579 229.176C51.797 229.176 52.1341 229.053 52.3691 228.805C52.6042 228.558 52.7217 228.252 52.7217 227.887C52.7217 227.516 52.6042 227.203 52.3691 226.95C52.1403 226.69 51.8032 226.56 51.3579 226.56C50.9064 226.56 50.5693 226.69 50.3467 226.95C50.124 227.209 50.0127 227.522 50.0127 227.887ZM60.3198 215.492H58.1953V229H59.8652V223.61L59.7261 218.164L62.0176 225.243H63.001L65.4966 217.969L65.3574 223.61V229H67.0273V215.492H64.8936L62.5186 222.246L60.3198 215.492ZM69.8477 215.492V216.986H73.0112V227.516H69.8477V229H78.0117V227.516H74.7739V216.986H78.0117V215.492H69.8477ZM83.1978 227.543V215.492H81.4814V229H89.8032V227.543H83.1978ZM94.6089 227.543V215.492H92.8926V229H101.214V227.543H94.6089ZM111.512 222.756V221.3H105.872V216.958H112.366V215.492H104.155V229H112.449V227.543H105.872V222.756H111.512ZM119.964 223.489L122.617 229H124.426L124.436 228.889L121.569 223.118C121.94 222.957 122.28 222.763 122.589 222.534C122.899 222.305 123.165 222.042 123.387 221.745C123.61 221.448 123.783 221.117 123.907 220.752C124.037 220.388 124.102 219.986 124.102 219.546C124.102 218.866 123.981 218.275 123.74 217.774C123.505 217.267 123.18 216.847 122.766 216.513C122.345 216.179 121.856 215.928 121.3 215.761C120.743 215.594 120.149 215.505 119.519 215.492H115.557V229H117.264V223.489H119.964ZM117.264 222.079V216.902H119.519C119.933 216.909 120.313 216.967 120.66 217.079C121.012 217.19 121.315 217.354 121.569 217.57C121.822 217.793 122.02 218.068 122.163 218.396C122.305 218.718 122.376 219.095 122.376 219.528C122.376 219.936 122.302 220.298 122.153 220.613C122.005 220.923 121.804 221.185 121.55 221.402C121.291 221.618 120.991 221.785 120.65 221.903C120.31 222.014 119.948 222.073 119.565 222.079H117.264Z"
    fill="#ECB237" />
  <path
    d="M38.1953 245.852L36.1562 248.406L37.2969 249.234L38.9531 246.469L40.625 249.305L41.7656 248.445L39.7656 245.914L42.75 245.18L42.3281 243.789L39.4922 244.961L39.7188 241.625H38.3281L38.5234 244.914L35.6719 243.734L35.25 245.102L38.1953 245.852ZM47.8047 245.852L45.7656 248.406L46.9062 249.234L48.5625 246.469L50.2344 249.305L51.375 248.445L49.375 245.914L52.3594 245.18L51.9375 243.789L49.1016 244.961L49.3281 241.625H47.9375L48.1328 244.914L45.2812 243.734L44.8594 245.102L47.8047 245.852ZM57.4141 245.852L55.375 248.406L56.5156 249.234L58.1719 246.469L59.8438 249.305L60.9844 248.445L58.9844 245.914L61.9688 245.18L61.5469 243.789L58.7109 244.961L58.9375 241.625H57.5469L57.7422 244.914L54.8906 243.734L54.4688 245.102L57.4141 245.852ZM67.0234 245.852L64.9844 248.406L66.125 249.234L67.7812 246.469L69.4531 249.305L70.5938 248.445L68.5938 245.914L71.5781 245.18L71.1562 243.789L68.3203 244.961L68.5469 241.625H67.1562L67.3516 244.914L64.5 243.734L64.0781 245.102L67.0234 245.852ZM86.2422 245.852L84.2031 248.406L85.3438 249.234L87 246.469L88.6719 249.305L89.8125 248.445L87.8125 245.914L90.7969 245.18L90.375 243.789L87.5391 244.961L87.7656 241.625H86.375L86.5703 244.914L83.7188 243.734L83.2969 245.102L86.2422 245.852ZM95.8516 245.852L93.8125 248.406L94.9531 249.234L96.6094 246.469L98.2812 249.305L99.4219 248.445L97.4219 245.914L100.406 245.18L99.9844 243.789L97.1484 244.961L97.375 241.625H95.9844L96.1797 244.914L93.3281 243.734L92.9062 245.102L95.8516 245.852ZM105.461 245.852L103.422 248.406L104.562 249.234L106.219 246.469L107.891 249.305L109.031 248.445L107.031 245.914L110.016 245.18L109.594 243.789L106.758 244.961L106.984 241.625H105.594L105.789 244.914L102.938 243.734L102.516 245.102L105.461 245.852ZM115.07 245.852L113.031 248.406L114.172 249.234L115.828 246.469L117.5 249.305L118.641 248.445L116.641 245.914L119.625 245.18L119.203 243.789L116.367 244.961L116.594 241.625H115.203L115.398 244.914L112.547 243.734L112.125 245.102L115.07 245.852ZM134.289 245.852L132.25 248.406L133.391 249.234L135.047 246.469L136.719 249.305L137.859 248.445L135.859 245.914L138.844 245.18L138.422 243.789L135.586 244.961L135.812 241.625H134.422L134.617 244.914L131.766 243.734L131.344 245.102L134.289 245.852ZM143.898 245.852L141.859 248.406L143 249.234L144.656 246.469L146.328 249.305L147.469 248.445L145.469 245.914L148.453 245.18L148.031 243.789L145.195 244.961L145.422 241.625H144.031L144.227 244.914L141.375 243.734L140.953 245.102L143.898 245.852ZM153.508 245.852L151.469 248.406L152.609 249.234L154.266 246.469L155.938 249.305L157.078 248.445L155.078 245.914L158.062 245.18L157.641 243.789L154.805 244.961L155.031 241.625H153.641L153.836 244.914L150.984 243.734L150.562 245.102L153.508 245.852ZM163.117 245.852L161.078 248.406L162.219 249.234L163.875 246.469L165.547 249.305L166.688 248.445L164.688 245.914L167.672 245.18L167.25 243.789L164.414 244.961L164.641 241.625H163.25L163.445 244.914L160.594 243.734L160.172 245.102L163.117 245.852ZM184.188 253V241.625H184.07L179.766 243.281V244.602L182.742 243.469V253H184.188ZM196.086 253V251.82H190.375L193.43 248.508C193.716 248.195 193.987 247.883 194.242 247.57C194.503 247.253 194.732 246.932 194.93 246.609C195.122 246.286 195.276 245.961 195.391 245.633C195.505 245.299 195.562 244.964 195.562 244.625C195.562 244.172 195.482 243.753 195.32 243.367C195.164 242.982 194.938 242.648 194.641 242.367C194.344 242.086 193.979 241.867 193.547 241.711C193.12 241.549 192.638 241.469 192.102 241.469C191.518 241.469 190.997 241.562 190.539 241.75C190.086 241.938 189.703 242.19 189.391 242.508C189.073 242.826 188.831 243.198 188.664 243.625C188.497 244.047 188.414 244.497 188.414 244.977H189.867C189.867 244.622 189.911 244.302 190 244.016C190.094 243.729 190.234 243.484 190.422 243.281C190.604 243.083 190.833 242.93 191.109 242.82C191.391 242.711 191.721 242.656 192.102 242.656C192.414 242.656 192.693 242.711 192.938 242.82C193.188 242.924 193.401 243.068 193.578 243.25C193.75 243.432 193.88 243.648 193.969 243.898C194.062 244.143 194.109 244.406 194.109 244.688C194.109 244.917 194.081 245.141 194.023 245.359C193.966 245.573 193.87 245.799 193.734 246.039C193.599 246.284 193.419 246.549 193.195 246.836C192.971 247.122 192.693 247.451 192.359 247.82L188.633 251.961V253H196.086ZM200.406 246.617V247.789H201.438C201.797 247.789 202.125 247.831 202.422 247.914C202.724 247.997 202.982 248.125 203.195 248.297C203.404 248.469 203.565 248.685 203.68 248.945C203.799 249.201 203.859 249.505 203.859 249.859C203.859 250.219 203.807 250.531 203.703 250.797C203.604 251.057 203.461 251.276 203.273 251.453C203.086 251.63 202.859 251.763 202.594 251.852C202.328 251.935 202.031 251.977 201.703 251.977C201.375 251.977 201.076 251.93 200.805 251.836C200.539 251.742 200.312 251.609 200.125 251.438C199.938 251.266 199.792 251.057 199.688 250.812C199.589 250.568 199.539 250.297 199.539 250H198.094C198.094 250.5 198.188 250.945 198.375 251.336C198.568 251.727 198.826 252.057 199.148 252.328C199.471 252.599 199.852 252.805 200.289 252.945C200.732 253.086 201.203 253.156 201.703 253.156C202.214 253.156 202.688 253.083 203.125 252.938C203.568 252.786 203.951 252.568 204.273 252.281C204.596 252 204.849 251.654 205.031 251.242C205.214 250.831 205.305 250.359 205.305 249.828C205.305 249.568 205.273 249.305 205.211 249.039C205.154 248.773 205.052 248.521 204.906 248.281C204.755 248.042 204.555 247.826 204.305 247.633C204.06 247.44 203.753 247.284 203.383 247.164C203.69 247.034 203.953 246.872 204.172 246.68C204.396 246.482 204.578 246.271 204.719 246.047C204.859 245.828 204.964 245.602 205.031 245.367C205.099 245.133 205.133 244.906 205.133 244.688C205.133 244.161 205.049 243.698 204.883 243.297C204.716 242.896 204.482 242.56 204.18 242.289C203.878 242.018 203.516 241.815 203.094 241.68C202.672 241.539 202.206 241.469 201.695 241.469C201.169 241.469 200.69 241.552 200.258 241.719C199.831 241.88 199.464 242.102 199.156 242.383C198.849 242.669 198.609 243.005 198.438 243.391C198.271 243.771 198.188 244.177 198.188 244.609H199.641C199.641 244.312 199.69 244.044 199.789 243.805C199.888 243.565 200.029 243.359 200.211 243.188C200.388 243.016 200.602 242.885 200.852 242.797C201.107 242.703 201.388 242.656 201.695 242.656C202.013 242.656 202.294 242.698 202.539 242.781C202.789 242.859 202.997 242.979 203.164 243.141C203.336 243.307 203.466 243.518 203.555 243.773C203.643 244.023 203.688 244.318 203.688 244.656C203.688 244.943 203.638 245.206 203.539 245.445C203.44 245.685 203.297 245.891 203.109 246.062C202.917 246.234 202.68 246.37 202.398 246.469C202.122 246.568 201.802 246.617 201.438 246.617H200.406ZM214.188 249.18V241.625H212.648L207.555 249.508V250.359H212.742V253H214.188V250.359H215.773V249.18H214.188ZM209.156 249.18L212.508 243.984L212.742 243.547V249.18H209.156Z"
    fill="#ECB237" />
  <circle cx="362" cy="239" r="22" fill="#FFC12E" />
  <circle cx="392" cy="239" r="22" fill="#FB410E" />
  <mask id="mask0" mask-type="alpha" maskUnits="userSpaceOnUse" x="162" y="36" width="281" height="118">
    <rect x="162.455" y="36" width="280.545" height="117.13" fill="#C4C4C4" />
  </mask>
  <g mask="url(#mask0)">
    <line y1="-1" x2="223.672" y2="-1" transform="matrix(0.703503 -0.710692 0.703503 0.710692 57.8974 155.221)"
      stroke="white" stroke-opacity="0.05" stroke-width="2" />
    <line y1="-1" x2="223.672" y2="-1" transform="matrix(0.703503 -0.710692 0.703503 0.710692 72.3904 155.221)"
      stroke="white" stroke-opacity="0.05" stroke-width="2" />
    <line y1="-1" x2="223.672" y2="-1" transform="matrix(0.703503 -0.710692 0.703503 0.710692 86.8835 155.221)"
      stroke="white" stroke-opacity="0.05" stroke-width="2" />
    <line y1="-1" x2="223.672" y2="-1" transform="matrix(0.703503 -0.710692 0.703503 0.710692 101.377 155.221)"
      stroke="white" stroke-opacity="0.05" stroke-width="2" />
    <line y1="-1" x2="223.672" y2="-1" transform="matrix(0.703503 -0.710692 0.703503 0.710692 115.87 155.221)"
      stroke="white" stroke-opacity="0.05" stroke-width="2" />
    <line y1="-1" x2="223.672" y2="-1" transform="matrix(0.703503 -0.710692 0.703503 0.710692 130.363 155.221)"
      stroke="white" stroke-opacity="0.05" stroke-width="2" />
    <line y1="-1" x2="223.672" y2="-1" transform="matrix(0.703503 -0.710692 0.703503 0.710692 144.856 155.221)"
      stroke="white" stroke-opacity="0.05" stroke-width="2" />
    <line y1="-1" x2="223.672" y2="-1" transform="matrix(0.703503 -0.710692 0.703503 0.710692 159.349 155.221)"
      stroke="white" stroke-opacity="0.05" stroke-width="2" />
    <line y1="-1" x2="223.672" y2="-1" transform="matrix(0.703503 -0.710692 0.703503 0.710692 173.842 155.221)"
      stroke="white" stroke-opacity="0.05" stroke-width="2" />
    <line y1="-1" x2="223.672" y2="-1" transform="matrix(0.703503 -0.710692 0.703503 0.710692 188.335 155.221)"
      stroke="white" stroke-opacity="0.05" stroke-width="2" />
    <line y1="-1" x2="223.672" y2="-1" transform="matrix(0.703503 -0.710692 0.703503 0.710692 202.828 155.221)"
      stroke="white" stroke-opacity="0.05" stroke-width="2" />
    <line y1="-1" x2="223.672" y2="-1" transform="matrix(0.703503 -0.710692 0.703503 0.710692 217.322 155.221)"
      stroke="white" stroke-opacity="0.05" stroke-width="2" />
    <line y1="-1" x2="223.672" y2="-1" transform="matrix(0.703503 -0.710692 0.703503 0.710692 231.815 155.221)"
      stroke="white" stroke-opacity="0.05" stroke-width="2" />
    <line y1="-1" x2="223.672" y2="-1" transform="matrix(0.703503 -0.710692 0.703503 0.710692 246.308 155.221)"
      stroke="white" stroke-opacity="0.05" stroke-width="2" />
    <line y1="-1" x2="223.672" y2="-1" transform="matrix(0.703503 -0.710692 0.703503 0.710692 260.801 155.221)"
      stroke="white" stroke-opacity="0.05" stroke-width="2" />
    <line y1="-1" x2="223.672" y2="-1" transform="matrix(0.703503 -0.710692 0.703503 0.710692 275.294 155.221)"
      stroke="white" stroke-opacity="0.05" stroke-width="2" />
    <line y1="-1" x2="223.672" y2="-1" transform="matrix(0.703503 -0.710692 0.703503 0.710692 289.787 155.221)"
      stroke="white" stroke-opacity="0.05" stroke-width="2" />
    <line y1="-1" x2="223.672" y2="-1" transform="matrix(0.703503 -0.710692 0.703503 0.710692 304.28 155.221)"
      stroke="white" stroke-opacity="0.05" stroke-width="2" />
    <line y1="-1" x2="223.672" y2="-1" transform="matrix(0.703503 -0.710692 0.703503 0.710692 318.773 155.221)"
      stroke="white" stroke-opacity="0.05" stroke-width="2" />
    <line y1="-1" x2="223.672" y2="-1" transform="matrix(0.703503 -0.710692 0.703503 0.710692 333.266 155.221)"
      stroke="white" stroke-opacity="0.05" stroke-width="2" />
    <line y1="-1" x2="223.672" y2="-1" transform="matrix(0.703503 -0.710692 0.703503 0.710692 347.76 155.221)"
      stroke="white" stroke-opacity="0.05" stroke-width="2" />
    <line y1="-1" x2="223.672" y2="-1" transform="matrix(0.703503 -0.710692 0.703503 0.710692 362.253 155.221)"
      stroke="white" stroke-opacity="0.05" stroke-width="2" />
    <line y1="-1" x2="223.672" y2="-1" transform="matrix(0.703503 -0.710692 0.703503 0.710692 376.746 155.221)"
      stroke="white" stroke-opacity="0.05" stroke-width="2" />
    <line y1="-1" x2="223.672" y2="-1" transform="matrix(0.703503 -0.710692 0.703503 0.710692 391.239 155.221)"
      stroke="white" stroke-opacity="0.05" stroke-width="2" />
    <line y1="-1" x2="223.672" y2="-1" transform="matrix(0.703503 -0.710692 0.703503 0.710692 405.732 155.221)"
      stroke="white" stroke-opacity="0.05" stroke-width="2" />
    <line y1="-1" x2="223.672" y2="-1" transform="matrix(0.703503 -0.710692 0.703503 0.710692 420.225 155.221)"
      stroke="white" stroke-opacity="0.05" stroke-width="2" />
    <line y1="-1" x2="223.672" y2="-1" transform="matrix(0.703503 -0.710692 0.703503 0.710692 434.718 155.221)"
      stroke="white" stroke-opacity="0.05" stroke-width="2" />
  </g>
  <mask id="mask1" mask-type="alpha" maskUnits="userSpaceOnUse" x="0" y="55" width="279" height="118">
    <rect y="55.8702" width="278.545" height="117.13" fill="#C4C4C4" />
  </mask>
  <g mask="url(#mask1)">
    <line y1="-1" x2="222.884" y2="-1" transform="matrix(0.700956 -0.713204 0.700956 0.713204 -103.812 175.092)"
      stroke="white" stroke-opacity="0.2" stroke-width="2" />
    <line y1="-1" x2="222.884" y2="-1" transform="matrix(0.700956 -0.713204 0.700956 0.713204 -89.4223 175.092)"
      stroke="white" stroke-opacity="0.2" stroke-width="2" />
    <line y1="-1" x2="222.884" y2="-1" transform="matrix(0.700956 -0.713204 0.700956 0.713204 -75.0325 175.092)"
      stroke="white" stroke-opacity="0.2" stroke-width="2" />
    <line y1="-1" x2="222.884" y2="-1" transform="matrix(0.700956 -0.713204 0.700956 0.713204 -60.6427 175.092)"
      stroke="white" stroke-opacity="0.2" stroke-width="2" />
    <line y1="-1" x2="222.884" y2="-1" transform="matrix(0.700956 -0.713204 0.700956 0.713204 -46.2529 175.092)"
      stroke="white" stroke-opacity="0.2" stroke-width="2" />
    <line y1="-1" x2="222.884" y2="-1" transform="matrix(0.700956 -0.713204 0.700956 0.713204 -31.8631 175.092)"
      stroke="white" stroke-opacity="0.2" stroke-width="2" />
    <line y1="-1" x2="222.884" y2="-1" transform="matrix(0.700956 -0.713204 0.700956 0.713204 -17.4733 175.092)"
      stroke="white" stroke-opacity="0.2" stroke-width="2" />
    <line y1="-1" x2="222.884" y2="-1" transform="matrix(0.700956 -0.713204 0.700956 0.713204 -3.0835 175.092)"
      stroke="white" stroke-opacity="0.2" stroke-width="2" />
    <line y1="-1" x2="222.884" y2="-1" transform="matrix(0.700956 -0.713204 0.700956 0.713204 11.3062 175.092)"
      stroke="white" stroke-opacity="0.2" stroke-width="2" />
    <line y1="-1" x2="222.884" y2="-1" transform="matrix(0.700956 -0.713204 0.700956 0.713204 25.6961 175.092)"
      stroke="white" stroke-opacity="0.2" stroke-width="2" />
    <line y1="-1" x2="222.884" y2="-1" transform="matrix(0.700956 -0.713204 0.700956 0.713204 40.0858 175.092)"
      stroke="white" stroke-opacity="0.2" stroke-width="2" />
    <line y1="-1" x2="222.884" y2="-1" transform="matrix(0.700956 -0.713204 0.700956 0.713204 54.4756 175.092)"
      stroke="white" stroke-opacity="0.2" stroke-width="2" />
    <line y1="-1" x2="222.884" y2="-1" transform="matrix(0.700956 -0.713204 0.700956 0.713204 68.8654 175.092)"
      stroke="white" stroke-opacity="0.2" stroke-width="2" />
    <line y1="-1" x2="222.884" y2="-1" transform="matrix(0.700956 -0.713204 0.700956 0.713204 83.2552 175.092)"
      stroke="white" stroke-opacity="0.2" stroke-width="2" />
    <line y1="-1" x2="222.884" y2="-1" transform="matrix(0.700956 -0.713204 0.700956 0.713204 97.645 175.092)"
      stroke="white" stroke-opacity="0.2" stroke-width="2" />
    <line y1="-1" x2="222.884" y2="-1" transform="matrix(0.700956 -0.713204 0.700956 0.713204 112.035 175.092)"
      stroke="white" stroke-opacity="0.2" stroke-width="2" />
    <line y1="-1" x2="222.884" y2="-1" transform="matrix(0.700956 -0.713204 0.700956 0.713204 126.425 175.092)"
      stroke="white" stroke-opacity="0.2" stroke-width="2" />
    <line y1="-1" x2="222.884" y2="-1" transform="matrix(0.700956 -0.713204 0.700956 0.713204 140.814 175.092)"
      stroke="white" stroke-opacity="0.2" stroke-width="2" />
    <line y1="-1" x2="222.884" y2="-1" transform="matrix(0.700956 -0.713204 0.700956 0.713204 155.204 175.092)"
      stroke="white" stroke-opacity="0.2" stroke-width="2" />
    <line y1="-1" x2="222.884" y2="-1" transform="matrix(0.700956 -0.713204 0.700956 0.713204 169.594 175.092)"
      stroke="white" stroke-opacity="0.2" stroke-width="2" />
    <line y1="-1" x2="222.884" y2="-1" transform="matrix(0.700956 -0.713204 0.700956 0.713204 183.984 175.092)"
      stroke="white" stroke-opacity="0.2" stroke-width="2" />
    <line y1="-1" x2="222.884" y2="-1" transform="matrix(0.700956 -0.713204 0.700956 0.713204 198.374 175.092)"
      stroke="white" stroke-opacity="0.2" stroke-width="2" />
    <line y1="-1" x2="222.884" y2="-1" transform="matrix(0.700956 -0.713204 0.700956 0.713204 212.763 175.092)"
      stroke="white" stroke-opacity="0.2" stroke-width="2" />
    <line y1="-1" x2="222.884" y2="-1" transform="matrix(0.700956 -0.713204 0.700956 0.713204 227.153 175.092)"
      stroke="white" stroke-opacity="0.2" stroke-width="2" />
    <line y1="-1" x2="222.884" y2="-1" transform="matrix(0.700956 -0.713204 0.700956 0.713204 241.543 175.092)"
      stroke="white" stroke-opacity="0.2" stroke-width="2" />
    <line y1="-1" x2="222.884" y2="-1" transform="matrix(0.700956 -0.713204 0.700956 0.713204 255.933 175.092)"
      stroke="white" stroke-opacity="0.2" stroke-width="2" />
    <line y1="-1" x2="222.884" y2="-1" transform="matrix(0.700956 -0.713204 0.700956 0.713204 270.323 175.092)"
      stroke="white" stroke-opacity="0.2" stroke-width="2" />
  </g>
  <path
    d="M60.939 44.5V46.633C60.939 60.537 60.07 72.9927 58.332 84H39.372C40.3727 79.1547 40.873 73.572 40.873 67.252C40.873 60.8793 40.4517 53.2953 39.609 44.5H60.939ZM90.7603 78.865C94.3416 78.865 97.2646 78.5753 99.5293 77.996C98.5813 72.15 95.8953 67.805 91.4713 64.961C90.9973 69.6483 90.7603 74.283 90.7603 78.865ZM70.8523 60.3C70.8523 54.77 71.3526 49.5033 72.3533 44.5H116.198C113.828 51.8733 109.299 57.219 102.61 60.537C108.667 62.6963 113.512 65.6983 117.146 69.543C116.672 74.441 115.54 79.26 113.749 84H74.0123C71.9056 76.6793 70.8523 68.7793 70.8523 60.3ZM92.1033 59.51C94.6839 58.8253 97.0803 57.6403 99.2923 55.955C101.504 54.2697 103.084 52.1893 104.032 49.714C99.8189 49.714 96.3956 49.8457 93.7623 50.109C93.1303 53.1637 92.5773 56.2973 92.1033 59.51ZM174.762 83.368V84H156.434C156.223 81.1033 155.776 77.996 155.091 74.678C151.404 78.3647 147.718 81.472 144.031 84H125.624C125.255 81.8407 125.071 78.9967 125.071 75.468C125.071 71.8867 125.598 68.3053 126.651 64.724C130.443 63.618 134.077 61.7483 137.553 59.115C141.082 56.4817 143.636 53.6377 145.216 50.583C143.741 48.2657 142.24 46.238 140.713 44.5H166.941C172.155 55.9287 174.762 68.8847 174.762 83.368ZM153.669 68.911C152.352 64.3817 150.562 59.9577 148.297 55.639C145.822 62.907 144.4 69.78 144.031 76.258C147.928 74.1513 151.141 71.7023 153.669 68.911ZM227.219 44.5C227.535 50.03 227.693 55.876 227.693 62.038C227.693 68.1473 227.429 75.468 226.903 84H219.319C209.101 78.5227 199.727 71.0703 191.195 61.643C191.616 65.1717 191.827 68.8057 191.827 72.545C191.827 76.2317 191.695 80.05 191.432 84H182.189C183.242 77.522 183.769 71.5443 183.769 66.067C183.769 60.537 183.505 56.1657 182.979 52.953C180.872 49.793 179.213 46.9753 178.002 44.5H200.438C202.65 48.292 205.652 52.2157 209.444 56.271C213.288 60.2737 216.949 63.4073 220.425 65.672C220.425 57.9827 219.556 50.9253 217.818 44.5H227.219ZM268.128 49.319C266.285 49.003 264.494 48.845 262.756 48.845C261.071 48.845 259.017 49.1347 256.594 49.714C255.804 53.032 255.409 56.271 255.409 59.431C255.409 67.5943 259.043 73.8617 266.311 78.233C271.157 75.0203 275.528 71.0177 279.425 66.225C279.583 68.3317 279.715 71.5443 279.82 75.863C275.923 78.9177 271.947 81.314 267.891 83.052C263.836 84.79 258.78 85.659 252.723 85.659H250.906C246.166 83.605 242.427 80.5767 239.688 76.574C237.002 72.5713 235.659 68.358 235.659 63.934C235.659 58.0353 238.082 53.032 242.927 48.924C247.773 44.7633 254.804 42.683 264.02 42.683C269.182 42.683 274.58 43.3413 280.215 44.658C279.373 47.976 278.319 51.1097 277.055 54.059C273.737 54.375 270.314 54.533 266.785 54.533C267.312 53.0583 267.76 51.3203 268.128 49.319ZM292.289 83.763C287.602 77.759 285.258 71.597 285.258 65.277C285.258 58.957 287.892 53.6113 293.158 49.24C298.425 44.8687 305.166 42.683 313.382 42.683C317.754 42.683 322.099 43.3413 326.417 44.658C330.209 49.4507 332.105 54.5857 332.105 60.063C332.105 66.9623 329.288 72.9663 323.652 78.075C318.017 83.1837 311.197 85.738 303.191 85.738C299.768 85.738 296.134 85.0797 292.289 83.763ZM304.297 49.556C302.454 52.716 301.532 56.429 301.532 60.695C301.532 64.961 302.454 68.911 304.297 72.545C306.193 76.1263 308.774 78.707 312.039 80.287C314.515 77.127 315.752 73.4667 315.752 69.306C315.752 65.1453 314.725 61.2743 312.671 57.693C310.67 54.1117 307.879 51.3993 304.297 49.556Z"
    fill="white" />
  <path
    d="M46.479 90.5V91.013C46.479 94.357 46.27 97.3527 45.852 100H41.292C41.5327 98.8347 41.653 97.492 41.653 95.972C41.653 94.4393 41.5517 92.6153 41.349 90.5H46.479ZM59.8072 90.5C59.8832 91.83 59.9212 93.236 59.9212 94.718C59.9212 96.1873 59.8579 97.948 59.7312 100H57.9072C55.4499 98.6827 53.1952 96.8903 51.1432 94.623C51.2445 95.4717 51.2952 96.3457 51.2952 97.245C51.2952 98.1317 51.2635 99.05 51.2002 100H48.9772C49.2305 98.442 49.3572 97.0043 49.3572 95.687C49.3572 94.357 49.2939 93.3057 49.1672 92.533C48.6605 91.773 48.2615 91.0953 47.9702 90.5H53.3662C53.8982 91.412 54.6202 92.3557 55.5322 93.331C56.4569 94.2937 57.3372 95.0473 58.1732 95.592C58.1732 93.7427 57.9642 92.0453 57.5462 90.5H59.8072ZM70.0832 91.735C69.7539 93.7363 69.5892 95.3703 69.5892 96.637C69.5892 97.9037 69.6399 99.0247 69.7412 100H65.5992C65.1686 97.986 64.9532 95.82 64.9532 93.502C64.9532 93.1093 64.9659 92.5203 64.9912 91.735C63.9146 92.0517 63.2559 92.78 63.0152 93.92L61.1342 93.806L61.8182 90.5H74.4532C74.1999 91.8933 73.9086 93.0333 73.5792 93.92L71.6602 93.806C71.7109 93.6033 71.7362 93.4007 71.7362 93.198C71.7362 92.704 71.5842 92.3367 71.2802 92.096C70.9762 91.8553 70.5772 91.735 70.0832 91.735ZM82.3967 94.319L84.1827 94.433C84.3601 94.433 84.4931 94.4267 84.5817 94.414L83.6887 96.086H83.5177C83.2771 96.086 82.9351 96.0227 82.4917 95.896C82.0484 95.7567 81.7317 95.687 81.5417 95.687C81.0224 95.687 80.6107 96.0227 80.3067 96.694C80.2561 97.3147 80.2181 97.9353 80.1927 98.556C80.8514 98.6827 81.3707 98.746 81.7507 98.746H81.9217C82.4664 98.746 82.8971 98.6257 83.2137 98.385C83.5431 98.1443 83.7774 97.7137 83.9167 97.093L86.1967 97.188C86.0067 98.2773 85.7534 99.2147 85.4367 100H76.1077C75.8544 98.29 75.7277 96.5927 75.7277 94.908C75.7277 93.2233 75.8164 91.754 75.9937 90.5H86.1777C85.9497 91.868 85.7471 92.8307 85.5697 93.388C84.8224 93.426 84.1384 93.4513 83.5177 93.464C83.6191 93.1727 83.6697 92.9003 83.6697 92.647C83.6697 92.039 83.2137 91.735 82.3017 91.735C81.9597 91.735 81.5797 91.773 81.1617 91.849C80.8831 93.0523 80.6677 94.11 80.5157 95.022C81.0224 94.5533 81.6494 94.319 82.3967 94.319ZM99.0768 93.806L99.0578 94.452C98.0445 94.9967 96.7778 95.421 95.2578 95.725C96.3471 96.0163 97.3985 96.162 98.4118 96.162H98.8108C99.5075 97.188 99.9571 98.4673 100.16 100H95.2388C95.1121 99.1133 94.8525 98.3533 94.4598 97.72C94.0798 97.074 93.6111 96.637 93.0538 96.409C93.0411 96.6243 93.0348 97.055 93.0348 97.701C93.0348 98.347 93.0728 99.1133 93.1488 100H89.0068C88.6395 98.1633 88.4558 96.4597 88.4558 94.889C88.4558 93.3057 88.5445 91.8427 88.7218 90.5H98.6398C98.9311 91.7793 99.0768 92.8813 99.0768 93.806ZM93.4528 91.773C93.3008 92.8877 93.1868 93.9833 93.1108 95.06C93.8075 94.9587 94.3775 94.7117 94.8208 94.319C94.5801 93.4703 94.1241 92.6217 93.4528 91.773ZM112.948 90.5C113.024 91.83 113.062 93.236 113.062 94.718C113.062 96.1873 112.998 97.948 112.872 100H111.048C108.59 98.6827 106.336 96.8903 104.284 94.623C104.385 95.4717 104.436 96.3457 104.436 97.245C104.436 98.1317 104.404 99.05 104.341 100H102.118C102.371 98.442 102.498 97.0043 102.498 95.687C102.498 94.357 102.434 93.3057 102.308 92.533C101.801 91.773 101.402 91.0953 101.111 90.5H106.507C107.039 91.412 107.761 92.3557 108.673 93.331C109.597 94.2937 110.478 95.0473 111.314 95.592C111.314 93.7427 111.105 92.0453 110.687 90.5H112.948ZM127.366 99.848V100H122.958C122.907 99.278 122.8 98.5307 122.635 97.758C121.85 98.556 120.963 99.3033 119.975 100H115.548C115.459 99.4807 115.415 98.7967 115.415 97.948C115.415 97.0867 115.542 96.2253 115.795 95.364C116.707 95.098 117.581 94.6483 118.417 94.015C119.266 93.3817 119.88 92.6977 120.26 91.963C119.918 91.431 119.557 90.9433 119.177 90.5H125.485C126.739 93.2233 127.366 96.3393 127.366 99.848ZM122.293 96.371C121.964 95.2437 121.533 94.1797 121.001 93.179C120.406 94.927 120.064 96.58 119.975 98.138C120.887 97.6693 121.66 97.0803 122.293 96.371ZM136.695 91.735C136.365 93.7363 136.201 95.3703 136.201 96.637C136.201 97.9037 136.251 99.0247 136.353 100H132.211C131.78 97.986 131.565 95.82 131.565 93.502C131.565 93.1093 131.577 92.5203 131.603 91.735C130.526 92.0517 129.867 92.78 129.627 93.92L127.746 93.806L128.43 90.5H141.065C140.811 91.8933 140.52 93.0333 140.191 93.92L138.272 93.806C138.322 93.6033 138.348 93.4007 138.348 93.198C138.348 92.704 138.196 92.3367 137.892 92.096C137.588 91.8553 137.189 91.735 136.695 91.735ZM147.602 90.5V91.013C147.602 94.357 147.393 97.3527 146.975 100H142.415C142.656 98.8347 142.776 97.492 142.776 95.972C142.776 94.4393 142.675 92.6153 142.472 90.5H147.602ZM150.993 99.943C149.866 98.499 149.302 97.017 149.302 95.497C149.302 93.977 149.936 92.6913 151.202 91.64C152.469 90.5887 154.09 90.063 156.066 90.063C157.118 90.063 158.163 90.2213 159.201 90.538C160.113 91.6907 160.569 92.9257 160.569 94.243C160.569 95.9023 159.892 97.3463 158.536 98.575C157.181 99.8037 155.541 100.418 153.615 100.418C152.792 100.418 151.918 100.26 150.993 99.943ZM153.881 91.716C153.438 92.476 153.216 93.369 153.216 94.395C153.216 95.421 153.438 96.371 153.881 97.245C154.337 98.1063 154.958 98.727 155.743 99.107C156.339 98.347 156.636 97.4667 156.636 96.466C156.636 95.4653 156.389 94.5343 155.895 93.673C155.414 92.8117 154.743 92.1593 153.881 91.716ZM173.436 90.5C173.512 91.83 173.55 93.236 173.55 94.718C173.55 96.1873 173.487 97.948 173.36 100H171.536C169.079 98.6827 166.824 96.8903 164.772 94.623C164.873 95.4717 164.924 96.3457 164.924 97.245C164.924 98.1317 164.892 99.05 164.829 100H162.606C162.859 98.442 162.986 97.0043 162.986 95.687C162.986 94.357 162.923 93.3057 162.796 92.533C162.289 91.773 161.89 91.0953 161.599 90.5H166.995C167.527 91.412 168.249 92.3557 169.161 93.331C170.086 94.2937 170.966 95.0473 171.802 95.592C171.802 93.7427 171.593 92.0453 171.175 90.5H173.436ZM187.854 99.848V100H183.446C183.395 99.278 183.288 98.5307 183.123 97.758C182.338 98.556 181.451 99.3033 180.463 100H176.036C175.947 99.4807 175.903 98.7967 175.903 97.948C175.903 97.0867 176.03 96.2253 176.283 95.364C177.195 95.098 178.069 94.6483 178.905 94.015C179.754 93.3817 180.368 92.6977 180.748 91.963C180.406 91.431 180.045 90.9433 179.665 90.5H185.973C187.227 93.2233 187.854 96.3393 187.854 99.848ZM182.781 96.371C182.452 95.2437 182.021 94.1797 181.489 93.179C180.894 94.927 180.552 96.58 180.463 98.138C181.375 97.6693 182.148 97.0803 182.781 96.371ZM193.421 98.537C194.016 98.6763 194.586 98.746 195.131 98.746C195.676 98.746 196.106 98.6257 196.423 98.385C196.752 98.1317 196.993 97.701 197.145 97.093L199.425 97.169C199.235 98.309 198.982 99.2527 198.665 100H189.336C189.095 98.3787 188.975 96.7003 188.975 94.965C188.975 93.2297 189.064 91.7413 189.241 90.5H194.713C193.877 93.7047 193.446 96.3837 193.421 98.537ZM212.405 98.765C213.266 98.765 213.969 98.6953 214.514 98.556C214.286 97.15 213.64 96.105 212.576 95.421C212.462 96.5483 212.405 97.663 212.405 98.765ZM207.617 94.3C207.617 92.97 207.737 91.7033 207.978 90.5H218.523C217.953 92.2733 216.864 93.559 215.255 94.357C216.712 94.8763 217.877 95.5983 218.751 96.523C218.637 97.701 218.365 98.86 217.934 100H208.377C207.87 98.2393 207.617 96.3393 207.617 94.3ZM212.728 94.11C213.349 93.9453 213.925 93.6603 214.457 93.255C214.989 92.8497 215.369 92.3493 215.597 91.754C214.584 91.754 213.76 91.7857 213.127 91.849C212.975 92.5837 212.842 93.3373 212.728 94.11ZM232.608 99.848V100H228.2C228.149 99.3033 228.042 98.556 227.877 97.758C226.99 98.6447 226.104 99.392 225.217 100H220.79C220.701 99.4807 220.657 98.7967 220.657 97.948C220.657 97.0867 220.784 96.2253 221.037 95.364C221.949 95.098 222.823 94.6483 223.659 94.015C224.508 93.3817 225.122 92.6977 225.502 91.963C225.147 91.4057 224.786 90.918 224.419 90.5H230.727C231.981 93.2487 232.608 96.3647 232.608 99.848ZM227.535 96.371C227.218 95.2817 226.788 94.2177 226.243 93.179C225.648 94.927 225.306 96.58 225.217 98.138C226.154 97.6313 226.927 97.0423 227.535 96.371ZM245.224 90.5C245.3 91.83 245.338 93.236 245.338 94.718C245.338 96.1873 245.275 97.948 245.148 100H243.324C240.867 98.6827 238.612 96.8903 236.56 94.623C236.662 95.4717 236.712 96.3457 236.712 97.245C236.712 98.1317 236.681 99.05 236.617 100H234.394C234.648 98.442 234.774 97.0043 234.774 95.687C234.774 94.357 234.711 93.3057 234.584 92.533C234.078 91.773 233.679 91.0953 233.387 90.5H238.783C239.315 91.412 240.037 92.3557 240.949 93.331C241.874 94.2937 242.754 95.0473 243.59 95.592C243.59 93.7427 243.381 92.0453 242.963 90.5H245.224ZM257.362 90.367H257.989C258.8 90.367 259.402 90.272 259.794 90.082C259.237 90.9053 258.699 91.621 258.179 92.229H257.875C257.229 92.229 256.602 92.1277 255.994 91.925C255.133 92.6343 254.443 93.578 253.923 94.756C255.266 95.098 256.761 95.3007 258.407 95.364C258.787 96.3267 259.047 97.872 259.186 100H254.265C254.05 99.0627 253.721 98.2013 253.277 97.416C252.847 96.618 252.397 96.0733 251.928 95.782C251.84 96.8207 251.795 97.6567 251.795 98.29C251.795 98.9233 251.814 99.4933 251.852 100H247.672C247.432 98.138 247.311 96.5673 247.311 95.288C247.311 93.996 247.406 92.4 247.596 90.5H252.878C252.498 92.0707 252.239 93.388 252.099 94.452C252.669 93.5147 253.265 92.7293 253.885 92.096C254.519 91.45 255.266 90.9053 256.127 90.462C256.457 90.3987 256.868 90.367 257.362 90.367ZM266.445 90.5V91.013C266.445 94.357 266.236 97.3527 265.818 100H261.258C261.498 98.8347 261.619 97.492 261.619 95.972C261.619 94.4393 261.517 92.6153 261.315 90.5H266.445ZM279.773 90.5C279.849 91.83 279.887 93.236 279.887 94.718C279.887 96.1873 279.824 97.948 279.697 100H277.873C275.416 98.6827 273.161 96.8903 271.109 94.623C271.21 95.4717 271.261 96.3457 271.261 97.245C271.261 98.1317 271.229 99.05 271.166 100H268.943C269.196 98.442 269.323 97.0043 269.323 95.687C269.323 94.357 269.26 93.3057 269.133 92.533C268.626 91.773 268.227 91.0953 267.936 90.5H273.332C273.864 91.412 274.586 92.3557 275.498 93.331C276.423 94.2937 277.303 95.0473 278.139 95.592C278.139 93.7427 277.93 92.0453 277.512 90.5H279.773ZM288.985 99.069L289.004 98.271C289.004 97.3717 288.928 96.3013 288.776 95.06H292.88C292.88 96.8587 292.791 98.5053 292.614 100C290.651 100.279 288.618 100.418 286.515 100.418H285.299C284.146 99.924 283.247 99.202 282.601 98.252C281.955 97.2893 281.632 96.2697 281.632 95.193C281.632 93.7617 282.208 92.552 283.361 91.564C284.526 90.5633 286.224 90.063 288.453 90.063C289.618 90.063 290.917 90.2213 292.348 90.538C292.133 91.3993 291.886 92.1593 291.607 92.818C290.834 92.8687 290.005 92.9067 289.118 92.932C289.257 92.5013 289.359 92.077 289.422 91.659C289.017 91.583 288.599 91.545 288.168 91.545C287.75 91.545 287.25 91.6147 286.667 91.754C286.464 92.6153 286.363 93.3943 286.363 94.091C286.363 95.1423 286.597 96.1303 287.066 97.055C287.547 97.967 288.187 98.6383 288.985 99.069Z"
    fill="#FFC12E" />
  <defs>
    <linearGradient id="paint0_linear" x1="6.60121e-06" y1="280" x2="443" y2="2.4285e-05"
      gradientUnits="userSpaceOnUse">
      <stop stop-color="#D62A2A" />
      <stop offset="0.921875" stop-color="#C15B2F" />
    </linearGradient>
  </defs>
</svg>