<svg width="261" height="190" viewBox="0 0 261 190" fill="none" xmlns="http://www.w3.org/2000/svg">
  <path d="M53.8097 58.3459H0V189.687H53.8097V58.3459Z" fill="#403939" />
  <path d="M53.8097 58.3459H32.1819V189.687H53.8097V58.3459Z" fill="black" />
  <path d="M54.1911 58.3459H53.426V189.687H54.1911V58.3459Z" fill="white" />
  <path
    d="M32.1724 54.884V58.6548H31.4073V55.7542H29.0452V58.4271H28.2801V55.7542H25.5296V58.4271H24.7645V55.7542H22.0115V58.4271H21.2464V55.7542H18.4935V58.4271H17.7284V55.7542H14.9755V58.4271H14.2104V55.7542H11.4574V58.4271H10.6947V55.7542H7.94178V58.4271H7.17667V55.7542H4.42374V58.4271H3.65864V55.7542H0.779388V58.4271H0.0142822V54.884H32.1724Z"
    fill="#403939" />
  <path d="M32.1819 67.8855H0V68.7015H32.1819V67.8855Z" fill="#E5E5E5" />
  <path d="M53.8097 67.8855H32.1819V68.7015H53.8097V67.8855Z" fill="white" />
  <path d="M32.1819 75.2808H0V76.0967H32.1819V75.2808Z" fill="#E5E5E5" />
  <path d="M53.8097 75.2808H32.1819V76.0967H53.8097V75.2808Z" fill="white" />
  <path d="M32.1819 82.6787H0V83.4947H32.1819V82.6787Z" fill="#E5E5E5" />
  <path d="M53.8097 82.6787H32.1819V83.4947H53.8097V82.6787Z" fill="white" />
  <path d="M32.1819 90.0737H0V90.8897H32.1819V90.0737Z" fill="#E5E5E5" />
  <path d="M53.8097 90.0737H32.1819V90.8897H53.8097V90.0737Z" fill="white" />
  <path d="M32.1819 97.4719H0V98.2879H32.1819V97.4719Z" fill="#E5E5E5" />
  <path d="M53.8097 97.4719H32.1819V98.2879H53.8097V97.4719Z" fill="white" />
  <path d="M32.1819 104.867H0V105.683H32.1819V104.867Z" fill="#E5E5E5" />
  <path d="M53.8097 104.867H32.1819V105.683H53.8097V104.867Z" fill="white" />
  <path d="M32.1819 112.265H0V113.081H32.1819V112.265Z" fill="#E5E5E5" />
  <path d="M53.8097 112.265H32.1819V113.081H53.8097V112.265Z" fill="white" />
  <path d="M32.1819 119.66H0V120.476H32.1819V119.66Z" fill="#E5E5E5" />
  <path d="M53.8097 119.66H32.1819V120.476H53.8097V119.66Z" fill="white" />
  <path d="M32.1819 127.058H0V127.874H32.1819V127.058Z" fill="#E5E5E5" />
  <path d="M53.8097 127.058H32.1819V127.874H53.8097V127.058Z" fill="white" />
  <path d="M32.1819 134.453H0V135.269H32.1819V134.453Z" fill="#E5E5E5" />
  <path d="M53.8097 134.453H32.1819V135.269H53.8097V134.453Z" fill="white" />
  <path d="M32.1819 141.851H0V142.667H32.1819V141.851Z" fill="#E5E5E5" />
  <path d="M53.8097 141.851H32.1819V142.667H53.8097V141.851Z" fill="white" />
  <path d="M32.1819 149.247H0V150.063H32.1819V149.247Z" fill="#E5E5E5" />
  <path d="M53.8097 149.247H32.1819V150.063H53.8097V149.247Z" fill="white" />
  <path d="M32.1819 156.645H0V157.461H32.1819V156.645Z" fill="#E5E5E5" />
  <path d="M53.8097 156.645H32.1819V157.461H53.8097V156.645Z" fill="white" />
  <path d="M32.1819 164.04H0V164.856H32.1819V164.04Z" fill="#E5E5E5" />
  <path d="M32.1819 171.554H0V172.37H32.1819V171.554Z" fill="#E5E5E5" />
  <path d="M32.1819 178.949H0V179.765H32.1819V178.949Z" fill="#E5E5E5" />
  <path d="M53.8097 164.04H32.1819V164.856H53.8097V164.04Z" fill="white" />
  <path d="M53.8097 171.63H32.1819V172.446H53.8097V171.63Z" fill="white" />
  <path d="M53.8097 178.949H32.1819V179.765H53.8097V178.949Z" fill="white" />
  <path
    d="M54.191 54.884V58.9449H53.426V55.7542H50.151V58.3268H49.3859V55.7542H46.633V58.3268H45.8679V55.7542H43.1173V58.3268H42.3522V55.7542H39.5993V58.3268H38.8342V55.7542H36.0813V58.3268H35.3162V55.7542H32.1819V54.884H54.191Z"
    fill="white" />
  <path d="M89.0591 0.455322H57.1204V189.554H89.0591V0.455322Z" fill="#403939" />
  <path d="M125.62 0.455322H89.0592V189.554H125.62V0.455322Z" fill="black" />
  <path d="M126.02 189.554H125.219V0.910846H89.0568V0H126.02V189.554Z" fill="white" />
  <path d="M121.32 8.43896H88.8733V15.1971H121.32V8.43896Z" fill="#403939" />
  <path d="M121.32 22.0664H88.8733V28.8246H121.32V22.0664Z" fill="#403939" />
  <path d="M121.32 35.6938H88.8733V42.452H121.32V35.6938Z" fill="#403939" />
  <path d="M121.32 49.3242H88.8733V56.0824H121.32V49.3242Z" fill="#403939" />
  <path d="M121.32 62.9517H88.8733V69.7098H121.32V62.9517Z" fill="#403939" />
  <path d="M121.32 76.5791H88.8733V83.3373H121.32V76.5791Z" fill="#403939" />
  <path d="M121.32 90.2095H88.8733V96.9677H121.32V90.2095Z" fill="#403939" />
  <path d="M121.32 103.837H88.8733V110.595H121.32V103.837Z" fill="#403939" />
  <path d="M121.704 15.1971H120.938V8.87262H62.6191V8.00244H121.704V15.1971Z" fill="#1B1818" />
  <path d="M121.704 28.8247H120.938V22.503H62.6191V21.6328H121.704V28.8247Z" fill="#1B1818" />
  <path d="M121.704 42.4522H120.938V36.1304H62.6191V35.2603H121.704V42.4522Z" fill="#1B1818" />
  <path d="M121.704 56.0823H120.938V49.7579H62.6191V48.8877H121.704V56.0823Z" fill="#1B1818" />
  <path d="M121.704 69.7098H120.938V63.3853H62.6191V62.5151H121.704V69.7098Z" fill="#1B1818" />
  <path d="M121.704 83.3374H120.938V77.0157H62.6191V76.1455H121.704V83.3374Z" fill="#1B1818" />
  <path d="M121.704 96.9649H120.938V90.6431H62.6191V89.7729H121.704V96.9649Z" fill="#1B1818" />
  <path d="M121.704 110.595H120.938V104.271H62.6191V103.4H121.704V110.595Z" fill="#1B1818" />
  <path d="M121.32 117.429H88.8733V124.187H121.32V117.429Z" fill="#403939" />
  <path d="M121.32 131.057H88.8733V137.815H121.32V131.057Z" fill="#403939" />
  <path d="M121.32 144.687H88.8733V151.445H121.32V144.687Z" fill="#403939" />
  <path d="M121.32 158.314H88.8733V165.073H121.32V158.314Z" fill="#403939" />
  <path d="M121.704 124.187H120.938V117.866H62.6191V116.995H121.704V124.187Z" fill="#1B1818" />
  <path d="M121.704 137.815H120.938V131.493H62.6191V130.623H121.704V137.815Z" fill="#1B1818" />
  <path d="M121.704 151.445H120.938V145.121H62.6191V144.25H121.704V151.445Z" fill="#1B1818" />
  <path d="M121.704 165.073H120.938V158.748H62.6191V157.878H121.704V165.073Z" fill="#1B1818" />
  <path d="M121.32 171.869H88.8733V178.627H121.32V171.869Z" fill="#403939" />
  <path d="M121.704 178.627H120.938V172.302H62.6191V171.432H121.704V178.627Z" fill="#1B1818" />
  <path d="M185.312 27.3391H148.94V189.554H185.312V27.3391Z" fill="#403939" />
  <path d="M228.81 189.69H185.312V27.3391L228.81 68.3382V189.69Z" fill="black" />
  <path d="M229.211 189.69H228.41V68.5495L185.057 27.6887L185.567 26.9893L229.211 68.1239V189.69Z" fill="white" />
  <path d="M193.952 48.3699V180.438H189.955V44.6045L193.952 48.3699Z" fill="#E5E5E5" />
  <path d="M201.505 55.4888V180.438H197.508V51.7234L201.505 55.4888Z" fill="#E5E5E5" />
  <path d="M209.061 62.6101V180.438H205.064V58.842L209.061 62.6101Z" fill="#E5E5E5" />
  <path d="M216.612 69.7288V180.438H212.615V65.9607L216.612 69.7288Z" fill="#E5E5E5" />
  <path d="M224.168 76.8477V180.438H220.17V73.0796L224.168 76.8477Z" fill="#E5E5E5" />
  <path
    d="M193.952 180.893C193.899 180.893 193.847 180.881 193.799 180.859C193.75 180.836 193.706 180.802 193.669 180.76C193.632 180.718 193.602 180.667 193.582 180.612C193.562 180.557 193.551 180.498 193.551 180.438V48.5841L190.067 45.2985C190.022 45.2621 189.985 45.2156 189.957 45.1619C189.928 45.1083 189.91 45.0486 189.903 44.9867C189.896 44.9247 189.901 44.8618 189.916 44.8019C189.931 44.7419 189.957 44.6861 189.992 44.6381C190.027 44.59 190.071 44.5506 190.12 44.5224C190.169 44.4943 190.222 44.4778 190.277 44.4742C190.332 44.4705 190.387 44.4797 190.438 44.5012C190.49 44.5227 190.537 44.5561 190.577 44.5992L194.35 48.1694V180.459C194.345 180.576 194.301 180.686 194.227 180.767C194.153 180.847 194.054 180.893 193.952 180.893V180.893Z"
    fill="#1B1818" />
  <path
    d="M201.505 180.893C201.399 180.893 201.298 180.844 201.224 180.759C201.149 180.674 201.107 180.558 201.107 180.438V55.7029L197.637 52.4336C197.592 52.3971 197.555 52.3506 197.527 52.297C197.499 52.2433 197.48 52.1836 197.473 52.1217C197.466 52.0598 197.471 51.9968 197.486 51.9369C197.501 51.8769 197.527 51.8211 197.562 51.7731C197.597 51.725 197.641 51.6857 197.69 51.6575C197.739 51.6293 197.792 51.6128 197.847 51.6092C197.902 51.6055 197.957 51.6147 198.008 51.6362C198.06 51.6577 198.107 51.6911 198.147 51.7342L201.906 55.2772V180.438C201.906 180.498 201.895 180.557 201.875 180.612C201.855 180.667 201.826 180.718 201.788 180.76C201.751 180.802 201.707 180.836 201.658 180.859C201.61 180.881 201.558 180.893 201.505 180.893V180.893Z"
    fill="#1B1818" />
  <path
    d="M209.061 180.893C209.008 180.893 208.956 180.881 208.908 180.858C208.859 180.836 208.815 180.802 208.778 180.76C208.741 180.717 208.711 180.667 208.691 180.612C208.671 180.557 208.66 180.498 208.66 180.438V62.8215L205.14 59.5034C205.095 59.4669 205.058 59.4204 205.03 59.3668C205.002 59.3131 204.984 59.2535 204.977 59.1915C204.97 59.1296 204.974 59.0667 204.989 59.0067C205.005 58.9467 205.031 58.891 205.066 58.8429C205.101 58.7948 205.144 58.7555 205.193 58.7273C205.242 58.6991 205.296 58.6827 205.35 58.679C205.405 58.6754 205.46 58.6846 205.512 58.7061C205.563 58.7276 205.61 58.7609 205.65 58.804L209.464 62.3959V180.438C209.464 180.498 209.453 180.557 209.433 180.613C209.413 180.668 209.383 180.718 209.346 180.761C209.308 180.803 209.264 180.836 209.215 180.859C209.166 180.882 209.114 180.893 209.061 180.893V180.893Z"
    fill="#1B1818" />
  <path
    d="M216.612 180.893C216.506 180.892 216.405 180.844 216.33 180.759C216.256 180.674 216.214 180.558 216.214 180.438V69.943L212.729 66.6601C212.649 66.5827 212.599 66.4723 212.589 66.353C212.58 66.2337 212.612 66.1151 212.679 66.0228C212.746 65.9304 212.843 65.8719 212.948 65.8598C213.052 65.8476 213.157 65.8829 213.239 65.958L217.012 69.5147V180.438C217.012 180.559 216.97 180.674 216.895 180.76C216.82 180.845 216.718 180.893 216.612 180.893Z"
    fill="#1B1818" />
  <path
    d="M224.168 180.893C224.115 180.893 224.063 180.881 224.014 180.858C223.966 180.836 223.922 180.802 223.884 180.76C223.847 180.717 223.818 180.667 223.798 180.612C223.777 180.557 223.767 180.498 223.767 180.438V77.0616L220.247 73.7435C220.204 73.706 220.169 73.6591 220.143 73.6058C220.117 73.5525 220.101 73.4937 220.095 73.4331C220.09 73.3724 220.095 73.3111 220.11 73.2527C220.126 73.1944 220.151 73.1402 220.186 73.0933C220.22 73.0465 220.262 73.0079 220.31 72.98C220.358 72.9521 220.41 72.9353 220.463 72.9307C220.517 72.9261 220.571 72.9338 220.621 72.9533C220.672 72.9728 220.719 73.0037 220.759 73.0441L224.573 76.6333V180.438C224.573 180.498 224.562 180.558 224.542 180.613C224.521 180.669 224.491 180.719 224.454 180.762C224.416 180.804 224.371 180.837 224.322 180.86C224.273 180.883 224.221 180.894 224.168 180.893Z"
    fill="#1B1818" />
  <path d="M179.787 53.377H130.732V189.687H179.787V53.377Z" fill="black" />
  <path d="M169.681 41.3271H140.478V49.6251H169.681V41.3271Z" fill="white" />
  <path d="M141.146 41.3271H139.813V49.6251H141.146V41.3271Z" fill="#1B1818" />
  <path d="M146.132 49.625H145.333V53.3768H146.132V49.625Z" fill="white" />
  <path d="M165.584 49.625H164.785V53.3768H165.584V49.625Z" fill="white" />
  <path d="M260.94 189.552H254.896V59.8423H260.94V189.552ZM255.611 188.738H260.225V60.6555H255.611V188.738Z"
    fill="#1B1818" />
  <path
    d="M260.563 66.6954C260.469 66.6944 260.378 66.6517 260.311 66.5761L255 60.5363C254.934 60.4597 254.897 60.3565 254.897 60.249C254.897 60.1414 254.934 60.0382 255 59.9616C255.033 59.9236 255.073 59.8934 255.116 59.8728C255.159 59.8522 255.206 59.8416 255.253 59.8416C255.3 59.8416 255.347 59.8522 255.39 59.8728C255.433 59.8934 255.473 59.9236 255.506 59.9616L260.816 66.0014C260.866 66.0583 260.9 66.1307 260.914 66.2095C260.928 66.2884 260.92 66.3701 260.893 66.4443C260.866 66.5186 260.821 66.5821 260.762 66.6268C260.703 66.6714 260.634 66.6953 260.563 66.6954V66.6954Z"
    fill="#1B1818" />
  <path
    d="M255.258 66.6955C255.163 66.6945 255.072 66.6517 255.005 66.5762C254.939 66.4996 254.901 66.3964 254.901 66.2889C254.901 66.1813 254.939 66.0781 255.005 66.0015L260.315 59.9617C260.348 59.9217 260.388 59.8897 260.431 59.8675C260.475 59.8453 260.523 59.8333 260.571 59.8323C260.619 59.8314 260.666 59.8414 260.711 59.8619C260.755 59.8823 260.796 59.9128 260.83 59.9514C260.864 59.99 260.89 60.036 260.908 60.0866C260.926 60.1372 260.935 60.1915 260.934 60.2461C260.934 60.3007 260.923 60.3545 260.904 60.4044C260.884 60.4543 260.856 60.4992 260.821 60.5364L255.496 66.5762C255.433 66.6489 255.347 66.6915 255.258 66.6955Z"
    fill="#1B1818" />
  <path
    d="M260.563 72.7352C260.469 72.7342 260.378 72.6914 260.311 72.6159L255 66.5761C254.934 66.4995 254.897 66.3963 254.897 66.2888C254.897 66.1812 254.934 66.078 255 66.0014C255.033 65.9634 255.073 65.9332 255.116 65.9126C255.159 65.892 255.206 65.8813 255.253 65.8813C255.3 65.8813 255.347 65.892 255.39 65.9126C255.433 65.9332 255.473 65.9634 255.506 66.0014L260.816 72.0412C260.866 72.0981 260.9 72.1705 260.914 72.2493C260.928 72.3281 260.92 72.4099 260.893 72.4841C260.866 72.5584 260.821 72.6218 260.762 72.6665C260.703 72.7112 260.634 72.7351 260.563 72.7352V72.7352Z"
    fill="#1B1818" />
  <path
    d="M255.258 72.7353C255.163 72.7343 255.072 72.6915 255.005 72.616C254.939 72.5394 254.901 72.4362 254.901 72.3287C254.901 72.2211 254.939 72.1179 255.005 72.0413L260.315 66.0015C260.348 65.9616 260.388 65.9295 260.431 65.9073C260.475 65.8851 260.523 65.8731 260.571 65.8721C260.619 65.8712 260.666 65.8812 260.711 65.9017C260.755 65.9221 260.796 65.9526 260.83 65.9912C260.864 66.0298 260.89 66.0758 260.908 66.1264C260.926 66.177 260.935 66.2313 260.934 66.2859C260.934 66.3405 260.923 66.3943 260.904 66.4442C260.884 66.4941 260.856 66.539 260.821 66.5762L255.496 72.616C255.433 72.6886 255.347 72.7313 255.258 72.7353V72.7353Z"
    fill="#1B1818" />
  <path
    d="M260.563 78.775C260.469 78.774 260.378 78.7313 260.311 78.6557L255 72.6159C254.934 72.5393 254.897 72.4361 254.897 72.3285C254.897 72.221 254.934 72.1178 255 72.0412C255.033 72.0032 255.073 71.973 255.116 71.9524C255.159 71.9318 255.206 71.9211 255.253 71.9211C255.3 71.9211 255.347 71.9318 255.39 71.9524C255.433 71.973 255.473 72.0032 255.506 72.0412L260.816 78.081C260.866 78.1379 260.9 78.2103 260.914 78.2891C260.928 78.368 260.92 78.4497 260.893 78.5239C260.866 78.5982 260.821 78.6617 260.762 78.7063C260.703 78.751 260.634 78.7749 260.563 78.775V78.775Z"
    fill="#1B1818" />
  <path
    d="M255.258 78.7748C255.163 78.7739 255.072 78.7311 255.005 78.6556C254.939 78.579 254.901 78.4757 254.901 78.3682C254.901 78.2607 254.939 78.1574 255.005 78.0809L260.315 72.041C260.348 72.0011 260.388 71.9691 260.431 71.9468C260.475 71.9246 260.523 71.9126 260.571 71.9117C260.619 71.9107 260.666 71.9208 260.711 71.9412C260.755 71.9617 260.796 71.9921 260.83 72.0307C260.864 72.0693 260.89 72.1153 260.908 72.166C260.926 72.2166 260.935 72.2708 260.934 72.3254C260.934 72.38 260.923 72.4339 260.904 72.4837C260.884 72.5336 260.856 72.5785 260.821 72.6157L255.496 78.6556C255.433 78.7282 255.347 78.7708 255.258 78.7748V78.7748Z"
    fill="#1B1818" />
  <path
    d="M260.563 84.8148C260.469 84.8138 260.378 84.771 260.311 84.6955L255 78.6557C254.934 78.5791 254.897 78.4759 254.897 78.3683C254.897 78.2608 254.934 78.1576 255 78.081C255.033 78.043 255.073 78.0128 255.116 77.9922C255.159 77.9716 255.206 77.9609 255.253 77.9609C255.3 77.9609 255.347 77.9716 255.39 77.9922C255.433 78.0128 255.473 78.043 255.506 78.081L260.816 84.1208C260.866 84.1777 260.9 84.2501 260.914 84.3289C260.928 84.4077 260.92 84.4894 260.893 84.5637C260.866 84.638 260.821 84.7014 260.762 84.7461C260.703 84.7908 260.634 84.8147 260.563 84.8148V84.8148Z"
    fill="#1B1818" />
  <path
    d="M255.258 84.8148C255.163 84.8139 255.072 84.7711 255.005 84.6956C254.939 84.619 254.901 84.5158 254.901 84.4082C254.901 84.3007 254.939 84.1975 255.005 84.1209L260.315 78.0811C260.383 78.0092 260.473 77.9701 260.565 77.972C260.658 77.9738 260.746 78.0165 260.812 78.091C260.877 78.1655 260.915 78.266 260.917 78.3714C260.918 78.4767 260.884 78.5787 260.821 78.6558L255.496 84.6956C255.433 84.7682 255.347 84.8108 255.258 84.8148Z"
    fill="#1B1818" />
  <path
    d="M260.563 90.8546C260.469 90.8536 260.378 90.8108 260.311 90.7353L255 84.6955C254.934 84.6189 254.897 84.5157 254.897 84.4081C254.897 84.3006 254.934 84.1974 255 84.1208C255.033 84.0828 255.073 84.0526 255.116 84.032C255.159 84.0113 255.206 84.0007 255.253 84.0007C255.3 84.0007 255.347 84.0113 255.39 84.032C255.433 84.0526 255.473 84.0828 255.506 84.1208L260.816 90.1606C260.866 90.2175 260.9 90.2899 260.914 90.3687C260.928 90.4475 260.92 90.5293 260.893 90.6035C260.866 90.6778 260.821 90.7412 260.762 90.7859C260.703 90.8306 260.634 90.8545 260.563 90.8546Z"
    fill="#1B1818" />
  <path
    d="M255.258 90.8546C255.163 90.8537 255.072 90.8109 255.005 90.7354C254.939 90.6588 254.901 90.5556 254.901 90.448C254.901 90.3405 254.939 90.2373 255.005 90.1607L260.315 84.1209C260.383 84.049 260.473 84.0099 260.565 84.0118C260.658 84.0136 260.746 84.0563 260.812 84.1308C260.877 84.2053 260.915 84.3058 260.917 84.4112C260.918 84.5165 260.884 84.6185 260.821 84.6956L255.496 90.7299C255.433 90.8046 255.348 90.8492 255.258 90.8546V90.8546Z"
    fill="#1B1818" />
  <path
    d="M260.563 96.8944C260.469 96.8934 260.378 96.8507 260.311 96.7751L255 90.7299C254.934 90.6533 254.897 90.5501 254.897 90.4426C254.897 90.335 254.934 90.2318 255 90.1552C255.033 90.1172 255.073 90.087 255.116 90.0664C255.159 90.0458 255.206 90.0352 255.253 90.0352C255.3 90.0352 255.347 90.0458 255.39 90.0664C255.433 90.087 255.473 90.1172 255.506 90.1552L260.816 96.195C260.866 96.2519 260.9 96.3243 260.914 96.4031C260.928 96.482 260.92 96.5637 260.893 96.6379C260.866 96.7122 260.821 96.7757 260.762 96.8204C260.703 96.865 260.634 96.8889 260.563 96.889V96.8944Z"
    fill="#1B1818" />
  <path
    d="M255.258 96.8944C255.163 96.8935 255.072 96.8507 255.005 96.7752C254.939 96.6986 254.901 96.5953 254.901 96.4878C254.901 96.3803 254.939 96.277 255.005 96.2005L260.315 90.1607C260.383 90.0888 260.473 90.0497 260.565 90.0516C260.658 90.0534 260.746 90.0961 260.812 90.1706C260.877 90.2451 260.915 90.3456 260.917 90.451C260.918 90.5563 260.884 90.6583 260.821 90.7354L255.496 96.7752C255.433 96.8478 255.347 96.8904 255.258 96.8944V96.8944Z"
    fill="#1B1818" />
  <path
    d="M260.563 102.929C260.469 102.928 260.378 102.885 260.311 102.81L255 96.7697C254.934 96.6931 254.897 96.5899 254.897 96.4823C254.897 96.3748 254.934 96.2716 255 96.195C255.033 96.157 255.073 96.1268 255.116 96.1062C255.159 96.0855 255.206 96.075 255.253 96.075C255.3 96.075 255.347 96.0855 255.39 96.1062C255.433 96.1268 255.473 96.157 255.506 96.195L260.816 102.235C260.866 102.292 260.9 102.364 260.914 102.443C260.928 102.522 260.92 102.603 260.893 102.678C260.866 102.752 260.821 102.815 260.762 102.86C260.703 102.905 260.634 102.929 260.563 102.929V102.929Z"
    fill="#1B1818" />
  <path
    d="M255.258 102.929C255.163 102.928 255.072 102.885 255.005 102.809C254.939 102.733 254.901 102.63 254.901 102.522C254.901 102.414 254.939 102.311 255.005 102.235L260.315 96.1948C260.383 96.123 260.473 96.0839 260.565 96.0858C260.658 96.0876 260.746 96.1303 260.812 96.2048C260.877 96.2793 260.915 96.3798 260.917 96.4852C260.918 96.5905 260.884 96.6925 260.821 96.7695L255.496 102.815C255.432 102.885 255.347 102.926 255.258 102.929Z"
    fill="#1B1818" />
  <path
    d="M260.563 108.974C260.516 108.974 260.47 108.964 260.427 108.943C260.383 108.923 260.344 108.893 260.311 108.855L255 102.815C254.934 102.738 254.897 102.635 254.897 102.528C254.897 102.42 254.934 102.317 255 102.24C255.033 102.202 255.073 102.172 255.116 102.151C255.159 102.131 255.206 102.12 255.253 102.12C255.3 102.12 255.347 102.131 255.39 102.151C255.433 102.172 255.473 102.202 255.506 102.24L260.816 108.28C260.849 108.318 260.876 108.362 260.894 108.412C260.912 108.461 260.922 108.514 260.922 108.567C260.922 108.621 260.912 108.674 260.894 108.723C260.876 108.772 260.849 108.817 260.816 108.855C260.783 108.893 260.744 108.923 260.701 108.944C260.657 108.964 260.61 108.975 260.563 108.974V108.974Z"
    fill="#1B1818" />
  <path
    d="M255.258 108.974C255.211 108.974 255.164 108.964 255.121 108.943C255.077 108.923 255.038 108.893 255.005 108.855C254.939 108.778 254.901 108.675 254.901 108.567C254.901 108.46 254.939 108.357 255.005 108.28L260.315 102.24C260.348 102.2 260.388 102.168 260.431 102.146C260.475 102.124 260.523 102.112 260.571 102.111C260.619 102.11 260.666 102.12 260.711 102.14C260.755 102.161 260.796 102.191 260.83 102.23C260.864 102.269 260.89 102.315 260.908 102.365C260.926 102.416 260.935 102.47 260.934 102.525C260.934 102.579 260.923 102.633 260.904 102.683C260.884 102.733 260.856 102.778 260.821 102.815L255.496 108.855C255.433 108.928 255.348 108.971 255.258 108.974V108.974Z"
    fill="#1B1818" />
  <path
    d="M260.563 115.014C260.516 115.014 260.47 115.004 260.426 114.983C260.383 114.963 260.344 114.933 260.311 114.895L255 108.855C254.965 108.818 254.937 108.773 254.917 108.723C254.898 108.673 254.887 108.619 254.887 108.564C254.886 108.51 254.895 108.456 254.912 108.405C254.93 108.354 254.957 108.308 254.991 108.27C255.025 108.231 255.066 108.201 255.11 108.18C255.155 108.16 255.202 108.15 255.25 108.151C255.298 108.152 255.346 108.164 255.39 108.186C255.433 108.208 255.473 108.24 255.506 108.28L260.816 114.314C260.849 114.352 260.876 114.397 260.894 114.446C260.912 114.495 260.922 114.548 260.922 114.602C260.922 114.655 260.912 114.708 260.894 114.757C260.876 114.807 260.849 114.852 260.816 114.889C260.784 114.929 260.744 114.96 260.701 114.981C260.658 115.003 260.611 115.014 260.563 115.014V115.014Z"
    fill="#1B1818" />
  <path
    d="M255.258 115.014C255.211 115.014 255.164 115.004 255.121 114.983C255.077 114.963 255.038 114.932 255.005 114.894C254.939 114.818 254.901 114.715 254.901 114.607C254.901 114.5 254.939 114.396 255.005 114.32L260.315 108.28C260.383 108.204 260.473 108.162 260.568 108.162C260.663 108.162 260.753 108.204 260.821 108.28C260.854 108.317 260.881 108.362 260.899 108.412C260.917 108.461 260.926 108.514 260.926 108.567C260.926 108.621 260.917 108.674 260.899 108.723C260.881 108.772 260.854 108.817 260.821 108.855L255.496 114.894C255.433 114.968 255.348 115.011 255.258 115.014V115.014Z"
    fill="#1B1818" />
  <path
    d="M260.563 121.054C260.516 121.054 260.47 121.044 260.427 121.023C260.383 121.003 260.344 120.972 260.311 120.934L255 114.895C254.961 114.859 254.929 114.815 254.906 114.765C254.882 114.714 254.869 114.659 254.865 114.602C254.862 114.545 254.869 114.488 254.887 114.435C254.904 114.382 254.931 114.333 254.966 114.292C255.001 114.251 255.043 114.219 255.089 114.198C255.135 114.177 255.185 114.167 255.235 114.169C255.285 114.171 255.334 114.185 255.379 114.21C255.424 114.235 255.464 114.271 255.496 114.314L260.807 120.354C260.84 120.392 260.867 120.437 260.885 120.486C260.903 120.535 260.912 120.588 260.912 120.642C260.912 120.695 260.903 120.748 260.885 120.797C260.867 120.847 260.84 120.891 260.807 120.929C260.775 120.967 260.738 120.998 260.696 121.019C260.654 121.04 260.609 121.052 260.563 121.054V121.054Z"
    fill="#1B1818" />
  <path
    d="M255.258 121.054C255.211 121.054 255.164 121.043 255.121 121.023C255.077 121.002 255.038 120.972 255.005 120.934C254.939 120.858 254.901 120.754 254.901 120.647C254.901 120.539 254.939 120.436 255.005 120.36L260.311 114.314C260.378 114.239 260.469 114.197 260.563 114.197C260.658 114.197 260.749 114.239 260.816 114.314C260.849 114.352 260.876 114.397 260.894 114.446C260.912 114.495 260.921 114.548 260.921 114.602C260.921 114.655 260.912 114.708 260.894 114.757C260.876 114.807 260.849 114.851 260.816 114.889L255.496 120.934C255.433 121.008 255.348 121.051 255.258 121.054V121.054Z"
    fill="#1B1818" />
  <path
    d="M260.563 127.093C260.516 127.094 260.47 127.083 260.426 127.063C260.383 127.042 260.344 127.012 260.311 126.974L255 120.934C254.965 120.897 254.937 120.852 254.917 120.802C254.898 120.752 254.887 120.699 254.887 120.644C254.886 120.589 254.895 120.535 254.912 120.485C254.93 120.434 254.957 120.388 254.991 120.349C255.025 120.311 255.066 120.28 255.11 120.26C255.155 120.239 255.202 120.229 255.25 120.23C255.298 120.231 255.346 120.243 255.39 120.265C255.433 120.288 255.473 120.32 255.506 120.36L260.816 126.399C260.849 126.437 260.876 126.482 260.894 126.531C260.912 126.58 260.922 126.633 260.922 126.687C260.922 126.74 260.912 126.793 260.894 126.843C260.876 126.892 260.849 126.937 260.816 126.974C260.783 127.013 260.744 127.043 260.7 127.063C260.657 127.084 260.61 127.094 260.563 127.093V127.093Z"
    fill="#1B1818" />
  <path
    d="M255.258 127.093C255.211 127.094 255.164 127.083 255.121 127.063C255.077 127.042 255.038 127.012 255.005 126.974C254.939 126.897 254.901 126.794 254.901 126.687C254.901 126.579 254.939 126.476 255.005 126.399L260.315 120.36C260.383 120.284 260.473 120.242 260.568 120.242C260.663 120.242 260.753 120.284 260.821 120.36C260.854 120.397 260.881 120.442 260.899 120.491C260.917 120.54 260.926 120.593 260.926 120.647C260.926 120.7 260.917 120.753 260.899 120.803C260.881 120.852 260.854 120.897 260.821 120.934L255.496 126.974C255.433 127.048 255.348 127.09 255.258 127.093V127.093Z"
    fill="#1B1818" />
  <path
    d="M260.563 133.133C260.469 133.133 260.378 133.091 260.311 133.017L255 126.974C254.937 126.897 254.903 126.795 254.904 126.69C254.906 126.584 254.944 126.484 255.009 126.409C255.075 126.335 255.163 126.292 255.256 126.29C255.348 126.288 255.438 126.328 255.506 126.399L260.816 132.439C260.849 132.477 260.876 132.522 260.894 132.572C260.912 132.621 260.922 132.674 260.922 132.728C260.922 132.782 260.912 132.835 260.894 132.884C260.876 132.934 260.849 132.979 260.816 133.017C260.783 133.054 260.743 133.084 260.7 133.104C260.657 133.124 260.61 133.134 260.563 133.133Z"
    fill="#1B1818" />
  <path
    d="M255.258 133.133C255.187 133.133 255.118 133.109 255.059 133.064C255 133.02 254.955 132.956 254.928 132.882C254.901 132.808 254.893 132.726 254.907 132.647C254.921 132.568 254.955 132.496 255.005 132.439L260.315 126.399C260.383 126.324 260.473 126.281 260.568 126.281C260.663 126.281 260.753 126.324 260.821 126.399C260.854 126.437 260.881 126.482 260.899 126.531C260.917 126.58 260.926 126.633 260.926 126.687C260.926 126.74 260.917 126.793 260.899 126.842C260.881 126.892 260.854 126.936 260.821 126.974L255.496 133.019C255.432 133.09 255.347 133.131 255.258 133.133V133.133Z"
    fill="#1B1818" />
  <path
    d="M260.563 139.176C260.469 139.175 260.378 139.132 260.311 139.056L255 133.019C254.967 132.982 254.94 132.937 254.922 132.887C254.904 132.838 254.895 132.785 254.895 132.732C254.895 132.678 254.904 132.625 254.922 132.576C254.94 132.526 254.966 132.481 254.999 132.443C255.032 132.405 255.072 132.375 255.115 132.355C255.158 132.334 255.205 132.323 255.252 132.323C255.299 132.323 255.346 132.334 255.389 132.354C255.433 132.374 255.472 132.404 255.506 132.442L260.816 138.482C260.866 138.539 260.899 138.611 260.913 138.69C260.926 138.769 260.919 138.851 260.892 138.925C260.865 138.999 260.82 139.063 260.761 139.108C260.703 139.153 260.634 139.178 260.563 139.178V139.176Z"
    fill="#1B1818" />
  <path
    d="M255.258 139.176C255.187 139.175 255.118 139.15 255.06 139.105C255.001 139.06 254.955 138.997 254.929 138.922C254.902 138.848 254.895 138.766 254.908 138.688C254.922 138.609 254.955 138.536 255.005 138.479L260.315 132.439C260.349 132.401 260.388 132.372 260.432 132.351C260.475 132.331 260.522 132.32 260.569 132.321C260.616 132.321 260.662 132.331 260.706 132.352C260.749 132.373 260.789 132.403 260.822 132.441C260.855 132.478 260.881 132.523 260.899 132.573C260.917 132.622 260.926 132.675 260.926 132.729C260.926 132.782 260.917 132.835 260.899 132.885C260.88 132.934 260.854 132.979 260.821 133.017L255.496 139.056C255.433 139.129 255.347 139.172 255.258 139.176Z"
    fill="#1B1818" />
  <path
    d="M260.563 145.218C260.469 145.217 260.378 145.174 260.311 145.099L255 139.059C254.967 139.021 254.94 138.977 254.922 138.927C254.904 138.878 254.895 138.825 254.895 138.771C254.895 138.718 254.904 138.665 254.922 138.615C254.94 138.566 254.966 138.521 254.999 138.483C255.032 138.445 255.072 138.415 255.115 138.394C255.158 138.374 255.205 138.363 255.252 138.363C255.299 138.363 255.346 138.373 255.389 138.394C255.433 138.414 255.472 138.444 255.506 138.482L260.816 144.524C260.866 144.581 260.9 144.653 260.914 144.732C260.927 144.811 260.92 144.893 260.893 144.967C260.866 145.041 260.821 145.105 260.762 145.15C260.703 145.194 260.634 145.218 260.563 145.218V145.218Z"
    fill="#1B1818" />
  <path
    d="M255.258 145.218C255.163 145.217 255.072 145.174 255.005 145.099C254.939 145.022 254.901 144.919 254.901 144.812C254.901 144.704 254.939 144.601 255.005 144.524L260.315 138.482C260.349 138.444 260.388 138.414 260.432 138.394C260.475 138.373 260.522 138.363 260.569 138.363C260.616 138.363 260.662 138.374 260.706 138.394C260.749 138.415 260.789 138.445 260.822 138.483C260.855 138.521 260.881 138.566 260.899 138.615C260.917 138.665 260.926 138.718 260.926 138.771C260.926 138.825 260.917 138.878 260.899 138.927C260.88 138.977 260.854 139.021 260.821 139.059L255.496 145.096C255.433 145.17 255.348 145.213 255.258 145.218Z"
    fill="#1B1818" />
  <path
    d="M260.563 151.255C260.469 151.254 260.378 151.212 260.311 151.136L255 145.096C254.934 145.02 254.897 144.917 254.897 144.809C254.897 144.701 254.934 144.598 255 144.522C255.033 144.484 255.073 144.453 255.116 144.433C255.159 144.412 255.206 144.402 255.253 144.402C255.3 144.402 255.347 144.412 255.39 144.433C255.433 144.453 255.473 144.484 255.506 144.522L260.816 150.561C260.866 150.618 260.9 150.691 260.914 150.77C260.928 150.848 260.92 150.93 260.893 151.004C260.866 151.079 260.821 151.142 260.762 151.187C260.703 151.231 260.634 151.255 260.563 151.255Z"
    fill="#1B1818" />
  <path
    d="M255.258 151.255C255.163 151.254 255.072 151.212 255.005 151.136C254.939 151.059 254.901 150.956 254.901 150.849C254.901 150.741 254.939 150.638 255.005 150.561L260.315 144.521C260.383 144.45 260.473 144.411 260.565 144.412C260.658 144.414 260.746 144.457 260.812 144.531C260.877 144.606 260.915 144.706 260.917 144.812C260.918 144.917 260.884 145.019 260.821 145.096L255.496 151.136C255.433 151.209 255.347 151.251 255.258 151.255Z"
    fill="#1B1818" />
  <path
    d="M260.563 157.295C260.469 157.294 260.378 157.251 260.311 157.176L255 151.136C254.934 151.059 254.897 150.956 254.897 150.849C254.897 150.741 254.934 150.638 255 150.561C255.033 150.523 255.073 150.493 255.116 150.472C255.159 150.452 255.206 150.441 255.253 150.441C255.3 150.441 255.347 150.452 255.39 150.472C255.433 150.493 255.473 150.523 255.506 150.561L260.816 156.601C260.866 156.658 260.9 156.73 260.914 156.809C260.928 156.888 260.92 156.97 260.893 157.044C260.866 157.118 260.821 157.182 260.762 157.226C260.703 157.271 260.634 157.295 260.563 157.295Z"
    fill="#1B1818" />
  <path
    d="M255.258 157.295C255.163 157.294 255.072 157.251 255.005 157.176C254.939 157.099 254.901 156.996 254.901 156.888C254.901 156.781 254.939 156.678 255.005 156.601L260.315 150.561C260.383 150.489 260.473 150.45 260.565 150.452C260.658 150.454 260.746 150.497 260.812 150.571C260.877 150.646 260.915 150.746 260.917 150.852C260.918 150.957 260.884 151.059 260.821 151.136L255.496 157.176C255.433 157.248 255.347 157.291 255.258 157.295Z"
    fill="#1B1818" />
  <path
    d="M260.563 163.473C260.469 163.472 260.378 163.429 260.311 163.354L255 157.314C254.934 157.238 254.897 157.134 254.897 157.027C254.897 156.919 254.934 156.816 255 156.739C255.033 156.701 255.073 156.671 255.116 156.651C255.159 156.63 255.206 156.619 255.253 156.619C255.3 156.619 255.347 156.63 255.39 156.651C255.433 156.671 255.473 156.701 255.506 156.739L260.816 162.779C260.866 162.836 260.9 162.909 260.914 162.987C260.928 163.066 260.92 163.148 260.893 163.222C260.866 163.296 260.821 163.36 260.762 163.405C260.703 163.449 260.634 163.473 260.563 163.473Z"
    fill="#1B1818" />
  <path
    d="M255.258 163.473C255.163 163.472 255.072 163.429 255.005 163.354C254.939 163.277 254.901 163.174 254.901 163.066C254.901 162.959 254.939 162.856 255.005 162.779L260.315 156.739C260.383 156.667 260.473 156.628 260.565 156.63C260.658 156.632 260.746 156.675 260.812 156.749C260.877 156.824 260.915 156.924 260.917 157.03C260.918 157.135 260.884 157.237 260.821 157.314L255.496 163.354C255.433 163.426 255.347 163.469 255.258 163.473Z"
    fill="#1B1818" />
  <path
    d="M260.563 169.513C260.469 169.512 260.378 169.469 260.311 169.394L255 163.354C254.934 163.277 254.897 163.174 254.897 163.067C254.897 162.959 254.934 162.856 255 162.779C255.033 162.741 255.073 162.711 255.116 162.69C255.159 162.67 255.206 162.659 255.253 162.659C255.3 162.659 255.347 162.67 255.39 162.69C255.433 162.711 255.473 162.741 255.506 162.779L260.816 168.819C260.866 168.876 260.9 168.948 260.914 169.027C260.928 169.106 260.92 169.188 260.893 169.262C260.866 169.336 260.821 169.4 260.762 169.444C260.703 169.489 260.634 169.513 260.563 169.513Z"
    fill="#1B1818" />
  <path
    d="M255.258 169.513C255.163 169.512 255.072 169.469 255.005 169.394C254.939 169.317 254.901 169.214 254.901 169.106C254.901 168.999 254.939 168.895 255.005 168.819L260.315 162.779C260.383 162.707 260.473 162.668 260.565 162.67C260.658 162.672 260.746 162.715 260.812 162.789C260.877 162.864 260.915 162.964 260.917 163.069C260.918 163.175 260.884 163.277 260.821 163.354L255.496 169.394C255.433 169.466 255.347 169.509 255.258 169.513Z"
    fill="#1B1818" />
  <path
    d="M260.563 175.553C260.469 175.552 260.378 175.509 260.311 175.434L255 169.394C254.934 169.317 254.897 169.214 254.897 169.106C254.897 168.999 254.934 168.896 255 168.819C255.033 168.781 255.073 168.751 255.116 168.73C255.159 168.71 255.206 168.699 255.253 168.699C255.3 168.699 255.347 168.71 255.39 168.73C255.433 168.751 255.473 168.781 255.506 168.819L260.816 174.859C260.866 174.916 260.9 174.988 260.914 175.067C260.928 175.146 260.92 175.227 260.893 175.302C260.866 175.376 260.821 175.439 260.762 175.484C260.703 175.529 260.634 175.553 260.563 175.553Z"
    fill="#1B1818" />
  <path
    d="M255.258 175.553C255.163 175.552 255.072 175.509 255.005 175.433C254.939 175.357 254.901 175.254 254.901 175.146C254.901 175.039 254.939 174.935 255.005 174.859L260.315 168.819C260.348 168.779 260.388 168.747 260.431 168.725C260.475 168.702 260.523 168.69 260.571 168.69C260.619 168.689 260.666 168.699 260.711 168.719C260.755 168.74 260.796 168.77 260.83 168.809C260.864 168.847 260.89 168.893 260.908 168.944C260.926 168.994 260.935 169.049 260.934 169.103C260.934 169.158 260.923 169.212 260.904 169.262C260.884 169.311 260.856 169.356 260.821 169.394L255.496 175.433C255.433 175.506 255.347 175.549 255.258 175.553Z"
    fill="#1B1818" />
  <path
    d="M260.563 181.593C260.469 181.592 260.378 181.549 260.311 181.473L255 175.434C254.934 175.357 254.897 175.254 254.897 175.146C254.897 175.039 254.934 174.935 255 174.859C255.033 174.821 255.073 174.791 255.116 174.77C255.159 174.749 255.206 174.739 255.253 174.739C255.3 174.739 255.347 174.749 255.39 174.77C255.433 174.791 255.473 174.821 255.506 174.859L260.816 180.899C260.866 180.956 260.9 181.028 260.914 181.107C260.928 181.186 260.92 181.267 260.893 181.342C260.866 181.416 260.821 181.479 260.762 181.524C260.703 181.569 260.634 181.593 260.563 181.593Z"
    fill="#1B1818" />
  <path
    d="M255.258 181.593C255.163 181.592 255.072 181.549 255.005 181.473C254.939 181.397 254.901 181.294 254.901 181.186C254.901 181.079 254.939 180.975 255.005 180.899L260.315 174.859C260.383 174.787 260.473 174.748 260.565 174.75C260.658 174.752 260.746 174.794 260.812 174.869C260.877 174.943 260.915 175.044 260.917 175.149C260.918 175.255 260.884 175.357 260.821 175.434L255.496 181.473C255.433 181.546 255.347 181.589 255.258 181.593Z"
    fill="#1B1818" />
  <path
    d="M260.563 187.632C260.469 187.631 260.378 187.589 260.311 187.513L255 181.473C254.934 181.397 254.897 181.294 254.897 181.186C254.897 181.078 254.934 180.975 255 180.899C255.033 180.861 255.073 180.83 255.116 180.81C255.159 180.789 255.206 180.779 255.253 180.779C255.3 180.779 255.347 180.789 255.39 180.81C255.433 180.83 255.473 180.861 255.506 180.899L260.816 186.938C260.866 186.995 260.9 187.068 260.914 187.147C260.928 187.225 260.92 187.307 260.893 187.381C260.866 187.456 260.821 187.519 260.762 187.564C260.703 187.608 260.634 187.632 260.563 187.632Z"
    fill="#1B1818" />
  <path
    d="M255.258 187.632C255.163 187.631 255.072 187.589 255.005 187.513C254.939 187.436 254.901 187.333 254.901 187.226C254.901 187.118 254.939 187.015 255.005 186.938L260.315 180.898C260.348 180.859 260.388 180.826 260.431 180.804C260.475 180.782 260.523 180.77 260.571 180.769C260.619 180.768 260.666 180.778 260.711 180.799C260.755 180.819 260.796 180.85 260.83 180.888C260.864 180.927 260.89 180.973 260.908 181.023C260.926 181.074 260.935 181.128 260.934 181.183C260.934 181.237 260.923 181.291 260.904 181.341C260.884 181.391 260.856 181.436 260.821 181.473L255.496 187.508C255.433 187.582 255.348 187.627 255.258 187.632Z"
    fill="#1B1818" />
</svg>