<svg width="261" height="150" viewBox="0 0 261 150" fill="none" xmlns="http://www.w3.org/2000/svg">
  <path d="M37.849 120.278H4.96851V137.179H37.849V120.278Z" fill="#494747" />
  <path
    d="M104.39 115.377H102.967L102.875 115.067C102.796 114.805 102.717 114.543 102.635 114.286L101.811 111.673L104.39 115.377Z"
    fill="#41B6D3" />
  <path d="M57.9222 115.197L57.0815 114.614L64.8885 98.0682V62.063H65.858V98.3806L57.9222 115.197Z" fill="#41B6D3" />
  <path
    d="M37.1808 115.393L53.5783 102.458C57.0179 99.7437 63.6861 96.6381 75.9189 97.2466C83.9385 97.6523 92.6062 99.6382 99.1035 102.573L99.2576 102.642L103.598 114.576L37.1808 115.393ZM72.9616 98.127C65.6135 98.127 58.664 99.5733 54.0036 103.249L39.8467 114.418L102.407 113.647L98.6765 103.389C91.9732 100.395 82.1567 98.127 72.9616 98.127Z"
    fill="#41B6D3" />
  <path
    d="M69.6191 49.6019V80.2216L62.194 76.8158C58.9185 56.5474 46.2067 40.7416 30.7118 35.5244C46.0393 35.5731 59.7625 41.1433 69.6191 49.6019Z"
    fill="#DEDCDB" />
  <path
    d="M53.7942 72.1262C48.4925 69.0612 42.4188 66.84 35.8628 65.7244V40.0886C41.2394 42.9662 46.0518 47.191 49.9829 52.4846C54.8716 59.0501 58.3298 66.9903 60.0438 75.5847L53.7942 72.1262Z"
    fill="#032B2D" />
  <path
    d="M35.8629 40.0886V65.7243C34.4786 65.4863 33.0736 65.2997 31.6479 65.1645V38.1758C33.0815 38.717 34.4887 39.3556 35.8629 40.0886Z"
    fill="#494747" />
  <path
    d="M38.7181 41.7722V66.2862C38.5389 66.2457 38.3614 66.2071 38.1805 66.1706V41.4233C38.348 41.5248 38.5155 41.6262 38.6729 41.7357L38.7181 41.7722Z"
    fill="#00AAA3" />
  <path
    d="M41.9014 44.0703V67.0974L41.3639 66.9453V43.6504C41.5313 43.7721 41.6821 43.8958 41.8395 44.0216L41.9014 44.0703Z"
    fill="#00AAA3" />
  <path
    d="M45.0865 46.882V68.12C44.9073 68.0551 44.7281 67.9943 44.549 67.9334V46.3708C44.7298 46.5372 44.909 46.7096 45.0865 46.882Z"
    fill="#00AAA3" />
  <path
    d="M48.2698 50.3201V69.3633C48.0923 69.2863 47.9132 69.2112 47.7323 69.1382V49.6873C47.9132 49.8962 48.0923 50.1051 48.2698 50.3201Z"
    fill="#00AAA3" />
  <path
    d="M51.4549 54.5679V70.8544C51.2774 70.7631 51.0982 70.6719 50.9174 70.5846V53.7788L51.1886 54.1723C51.2188 54.217 51.2489 54.2596 51.2774 54.3042C51.3377 54.3914 51.3896 54.4786 51.4549 54.5679Z"
    fill="#00AAA3" />
  <path
    d="M38.1804 41.4312V46.4659C37.4257 45.8736 36.6532 45.3049 35.8628 44.7599V40.0945C36.6465 40.5083 37.419 40.9539 38.1804 41.4312Z"
    fill="#005050" />
  <path
    d="M41.3639 43.6506V49.1883C40.5098 48.3891 39.6279 47.6237 38.718 46.8921V41.7722C39.6178 42.3564 40.4998 42.9825 41.3639 43.6506Z"
    fill="#005050" />
  <path
    d="M44.5489 46.3706V52.4945C43.7038 51.5209 42.8213 50.5905 41.9014 49.7033V44.0703C42.8079 44.7924 43.6904 45.5592 44.5489 46.3706Z"
    fill="#005050" />
  <path
    d="M47.7323 49.6872V56.6164C46.9003 55.3973 46.0172 54.2308 45.0864 53.1214V46.8818C45.9974 47.769 46.8793 48.7041 47.7323 49.6872Z"
    fill="#005050" />
  <path
    d="M50.9173 53.7787V62.0751C50.1183 60.4574 49.2339 58.9037 48.2698 57.4238V50.3242C48.8559 51.022 49.4269 51.7435 49.9829 52.4886C50.301 52.9105 50.6125 53.3406 50.9173 53.7787Z"
    fill="#005050" />
  <path
    d="M60.0439 75.5845C58.1784 74.5277 56.4084 73.5561 54.7087 72.6859C53.9257 69.3851 52.834 66.2035 51.455 63.2028V54.5676C55.5738 60.7115 58.5081 67.8918 60.0439 75.5845V75.5845Z"
    fill="#005050" />
  <path
    d="M38.6729 41.7438L38.7181 41.7722V46.892C38.5406 46.7487 38.3614 46.6067 38.1805 46.466V41.4314C38.3447 41.5328 38.5088 41.6383 38.6729 41.7438Z"
    fill="#839191" />
  <path
    d="M41.8445 44.0216L41.9064 44.0703V49.7033C41.7289 49.5289 41.5498 49.3585 41.3689 49.1881V43.6504C41.5246 43.7721 41.677 43.8898 41.8445 44.0216Z"
    fill="#839191" />
  <path
    d="M44.549 46.3708C44.7298 46.5372 44.909 46.7096 45.0865 46.882V53.1216C44.909 52.9187 44.7298 52.6997 44.549 52.4948V46.3708Z"
    fill="#839191" />
  <path
    d="M47.7323 49.6873C47.9132 49.8901 48.0923 50.1051 48.2698 50.3201V57.4198C48.0946 57.1493 47.9154 56.8788 47.7323 56.6084V49.6873Z"
    fill="#839191" />
  <path
    d="M51.4549 54.5679V63.203C51.2874 62.8237 51.1016 62.4464 50.9174 62.0752V53.7788L51.1886 54.1723C51.2188 54.217 51.2489 54.2596 51.2774 54.3042C51.3377 54.3914 51.3896 54.4786 51.4549 54.5679Z"
    fill="#839191" />
  <path
    d="M62.194 76.8159C61.4639 76.3926 60.7472 75.9822 60.0439 75.5846C58.3287 66.9907 54.8707 59.0509 49.983 52.4845C45.04 45.8112 38.7075 40.8694 31.6479 38.1757V65.1644C31.0283 65.1036 30.4043 65.0542 29.7758 65.0163V36.6584C29.7768 36.4846 29.8108 36.3134 29.8752 36.158C29.9395 36.0027 30.0325 35.8673 30.147 35.7624C30.2614 35.6575 30.3942 35.5859 30.5351 35.5531C30.676 35.5203 30.8213 35.5272 30.9597 35.5732C38.7499 38.196 45.8065 43.5187 51.3678 50.9692C56.8039 58.2702 60.5402 67.1903 62.194 76.8159Z"
    fill="#D1CCCC" />
  <path
    d="M53.7943 72.1261V102.715L50.9374 105.273L21.7494 74.2722V98.8308L13.2727 66.3389C17.5083 65.3761 21.8089 64.8946 26.1184 64.9007C27.3532 64.9007 28.575 64.9392 29.7841 65.0163C30.4126 65.0542 31.0367 65.1035 31.6563 65.1644C33.0808 65.2996 34.4858 65.4863 35.8712 65.7243C36.6527 65.8595 37.4252 66.0082 38.1888 66.1705C38.3697 66.207 38.5472 66.2456 38.7264 66.2861C39.6195 66.4849 40.5014 66.7047 41.3722 66.9454L41.9098 67.0975C42.8029 67.3545 43.6854 67.633 44.5573 67.9333C44.7365 67.9941 44.9156 68.055 45.0948 68.1199C45.9879 68.4363 46.8699 68.7744 47.7407 69.1341C47.9215 69.2071 48.1007 69.2822 48.2782 69.3593C49.1769 69.7433 50.0594 70.149 50.9257 70.5764C51.1066 70.6636 51.2857 70.7549 51.4633 70.8461C52.2537 71.2572 53.0307 71.6839 53.7943 72.1261Z"
    fill="#DEDCDB" />
  <path d="M21.7411 75.4385L50.1169 105.908L38.5137 114.906H0L21.7411 105.995V75.4385Z" fill="#032B2D" />
  <path d="M50.9374 105.273L50.7264 105.438L50.9274 105.263L50.9374 105.273Z" fill="#032B2D" />
  <path d="M21.8382 96.1999L21.7411 75.4385L14.6392 67.8115L21.8382 96.1999Z" fill="#494747" />
  <path
    d="M46.2034 101.705L41.8361 103.48L13.7282 114.906H12.1575V114.904L21.4899 111.111V106.423L1.54063 114.906H0.0301514V114.904L21.4899 105.778V75.1687L21.9923 75.7062V110.906L24.8776 109.734V78.8098H24.881L25.38 79.3453V109.529L28.0627 108.44V82.2257L28.5651 82.7653V108.235L31.2461 107.145V85.6437L31.7484 86.1833V106.941L34.4311 105.849V89.0637L34.9335 89.6033V105.646L37.6145 104.555V92.4817L38.1169 93.0212V104.352L40.7996 103.261V95.9037L41.3019 96.4432V103.056L41.4041 103.015L45.7697 101.241L46.2034 101.705Z"
    fill="#00AAA3" />
  <path d="M24.881 78.8099H24.8776V85.2036L21.9923 82.0939V75.7063L24.881 78.8099Z" fill="#005050" />
  <path d="M28.0627 82.2259V88.6358L25.38 85.7452V79.3455L28.0627 82.2259Z" fill="#005050" />
  <path d="M31.2461 85.6438V92.0679L28.5651 89.1774V82.7654L31.2461 85.6438Z" fill="#005050" />
  <path d="M34.4311 89.0638V95.5001L31.7484 92.6095V86.1833L34.4311 89.0638Z" fill="#005050" />
  <path d="M37.6145 92.4817V98.9301L34.9335 96.0416V89.6033L37.6145 92.4817Z" fill="#005050" />
  <path d="M40.7995 95.9037V102.362L38.1168 99.4718V93.0212L40.7995 95.9037Z" fill="#005050" />
  <path d="M45.7697 101.241L41.404 103.016L41.3019 102.904V96.4434L45.7697 101.241Z" fill="#005050" />
  <path d="M50.117 105.908L41.8362 103.48L46.2035 101.705L50.117 105.908Z" fill="#005050" />
  <path d="M21.49 75.1687L21.9924 75.7063V82.0939L21.49 81.5544L21.4833 81.5462V75.1606L21.49 75.1687Z"
    fill="#839191" />
  <path d="M24.8809 78.8101L25.3799 79.3456V85.7454L24.8776 85.2038V78.8101H24.8809Z" fill="#839191" />
  <path d="M28.0626 82.2258L28.565 82.7654V89.1774L28.0626 88.6358V82.2258Z" fill="#839191" />
  <path d="M31.7483 86.1834V92.6096L31.246 92.068V85.6438L31.7483 86.1834Z" fill="#839191" />
  <path d="M34.431 89.0637L34.9334 89.6033V96.0416L34.431 95.5001V89.0637Z" fill="#839191" />
  <path d="M37.6145 92.4839L38.1169 93.0214V99.4719L37.6145 98.9303V92.4839Z" fill="#839191" />
  <path d="M40.7996 95.9038L41.3019 96.4434V102.904L40.7996 102.362V95.9038Z" fill="#839191" />
  <path d="M46.2034 101.705L41.8361 103.48L41.4041 103.015L45.7697 101.24L46.2034 101.705Z" fill="#839191" />
  <path
    d="M14.6392 67.8116L21.4481 94.7902V98.9526L13.2426 66.485C13.2254 66.4143 13.2221 66.3397 13.2329 66.2672C13.2436 66.1947 13.2682 66.1262 13.3046 66.0671C13.341 66.0081 13.3882 65.9601 13.4425 65.927C13.4969 65.8939 13.5569 65.8766 13.6177 65.8765H15.6272L51.6927 104.6L50.1018 105.924L14.6392 67.8116Z"
    fill="#D1CCCC" />
  <path
    d="M135.835 114.907H121.089C119.07 98.5734 115.228 83.3944 109.797 70.1912C110.926 71.2027 112.029 72.2527 113.106 73.3413C123.537 83.8752 131.538 97.9405 135.835 114.907Z"
    fill="#D1CCCC" />
  <path
    d="M122.039 114.904H117.963C115.009 95.7251 109.936 78.6516 103.146 64.8682C106.159 67.0075 109.044 69.4016 111.778 72.0327C116.573 84.7025 120.11 99.2161 122.039 114.904Z"
    fill="#918B8A" />
  <path d="M61.2094 60.4077V96.3115L54.7388 101.904V57.1743C56.9436 58.148 59.1005 59.2258 61.2094 60.4077Z"
    fill="#494747" />
  <path
    d="M135.835 114.906H103.272C99.0907 101.555 92.5506 89.4717 84.1093 79.5036C75.7473 69.6061 65.7326 61.9924 54.7388 57.1743V101.192L52.8666 102.648V55.5049H52.9235L52.9017 52.8882C52.9002 52.7128 52.9274 52.5387 52.9817 52.3761C53.0361 52.2135 53.1165 52.0656 53.2183 51.9409C53.3202 51.8162 53.4414 51.7172 53.5751 51.6497C53.7087 51.5821 53.8521 51.5474 53.9969 51.5474H61.4957C95.6522 51.5474 125.815 75.3412 135.835 114.906Z"
    fill="#D1CCCC" />
  <path d="M103.272 114.906H37.509L61.2094 96.3196V60.4158C80.5762 71.2167 95.6768 90.7821 103.272 114.915V114.906Z"
    fill="#032B2D" />
  <path
    d="M102.917 113.797L102.687 113.564C101.773 112.631 100.837 111.734 99.8805 110.874V114.908H99.3782V110.424C98.4996 109.647 97.6064 108.904 96.6988 108.192V114.908H96.1964V107.809C95.3178 107.133 94.4247 106.485 93.5171 105.866V114.915H93.0147V105.527C92.1328 104.939 91.2397 104.377 90.3354 103.843V114.915H89.833V103.555C88.9455 103.041 88.0479 102.556 87.1403 102.099L86.4989 114.915V114.935L86.2193 114.915L85.9966 114.898L86.6497 101.855C85.751 101.413 84.8433 100.997 83.9268 100.606L81.5171 114.915H81.0046L83.4478 100.407C82.5447 100.034 81.6348 99.6869 80.7183 99.3664L76.5084 114.906H75.9792L80.231 99.1899C79.3066 98.8775 78.3761 98.5915 77.4395 98.3319L71.0442 114.906H70.4799L76.9304 98.196C76.0719 97.9661 75.2072 97.7632 74.3364 97.5874L65.6286 114.917H65.0392L73.8106 97.4718C72.9175 97.2933 72.0205 97.1398 71.1196 97.0113L59.8027 114.911H59.1697L70.5368 96.9302C69.6593 96.8139 68.7779 96.722 67.8927 96.6543L53.4678 114.911H52.7745L67.2329 96.6077C66.3889 96.5536 65.5438 96.5211 64.6975 96.5103L47.2367 114.906H46.4697L63.9339 96.5022H61.6833L38.0449 114.906H37.1155L61.2094 96.1472V95.8937H64.3509V62.2617C64.5184 62.3672 64.6858 62.4646 64.8533 62.5782V95.8998C65.7464 95.9146 66.6395 95.9532 67.5326 96.0154V64.351L67.7838 64.5275L68.035 64.704V96.0519C68.9281 96.1222 69.8212 96.2176 70.7143 96.3379V66.6716L71.2167 67.059V96.4089C72.1098 96.5441 73.0029 96.6976 73.896 96.8694V69.2457L74.0317 69.3634C74.1539 69.4648 74.2762 69.5662 74.3984 69.6778V96.9748C75.2971 97.1614 76.1902 97.3751 77.0777 97.6158V72.0856C77.21 72.2093 77.3423 72.333 77.4746 72.4608C77.5098 72.4933 77.5449 72.5258 77.5801 72.5623V97.7477C78.4788 97.9979 79.3719 98.273 80.2594 98.5733V75.2459L80.4922 75.4853L80.5341 75.5299C80.6094 75.609 80.6865 75.6902 80.7618 75.7733V98.7477C81.6627 99.0614 82.5559 99.3995 83.4412 99.7619V78.741L83.6237 78.9438L83.9435 79.3191V99.9648C84.8467 100.343 85.7398 100.749 86.6229 101.182V82.6336C86.7937 82.8513 86.9611 83.0684 87.1252 83.2847V101.435C88.0284 101.886 88.9215 102.363 89.8046 102.868V86.9948C89.8649 87.08 89.9251 87.1672 89.9837 87.2544C90.0926 87.4127 90.2014 87.5729 90.3069 87.7332V103.149C91.2135 103.677 92.1066 104.232 92.9863 104.815V91.9341L93.2341 92.3398L93.4887 92.7658V105.139C93.8939 105.41 94.2958 105.689 94.6943 105.977C95.19 106.329 95.6818 106.69 96.1697 107.06V97.6442C96.2182 97.7355 96.2651 97.8268 96.312 97.9181L96.4795 98.2528C96.5448 98.3785 96.6067 98.5043 96.6687 98.6301V107.46C97.5785 108.165 98.4717 108.899 99.348 109.665V104.391C99.4033 104.517 99.4569 104.642 99.5155 104.77L99.6829 105.15C99.7449 105.294 99.8052 105.436 99.8638 105.58V110.105C100.76 110.904 101.639 111.728 102.5 112.592C102.531 112.683 102.563 112.777 102.593 112.87L102.685 113.146L102.761 113.371C102.823 113.519 102.871 113.657 102.917 113.797Z"
    fill="#00AAA3" />
  <path
    d="M64.3509 62.2617V67.1564C63.3227 66.4234 62.2755 65.7121 61.2094 65.0225V60.4077C62.2699 61 63.3171 61.618 64.3509 62.2617Z"
    fill="#005050" />
  <path
    d="M67.5359 64.353V69.5236C66.6573 68.838 65.7642 68.1686 64.8566 67.5154V62.5781C65.7586 63.1502 66.6517 63.7418 67.5359 64.353Z"
    fill="#005050" />
  <path
    d="M70.7194 66.6715V72.126C69.8419 71.3714 68.9488 70.6351 68.04 69.917V64.7039C68.9432 65.3394 69.8363 65.9953 70.7194 66.6715Z"
    fill="#005050" />
  <path
    d="M73.9044 69.2456V75.0024C73.0281 74.1694 72.135 73.358 71.2251 72.5683V67.0691C72.1283 67.7682 73.0214 68.4937 73.9044 69.2456Z"
    fill="#005050" />
  <path
    d="M77.0878 72.0856V78.1872C76.2136 77.2622 75.3205 76.3589 74.4084 75.4772V69.6697C75.3127 70.454 76.2058 71.2593 77.0878 72.0856Z"
    fill="#005050" />
  <path
    d="M80.2728 75.2461V81.7635C79.3998 80.7263 78.5067 79.7121 77.5935 78.7208V72.5583C78.5011 73.4319 79.3942 74.3278 80.2728 75.2461Z"
    fill="#005050" />
  <path
    d="M86.6412 82.6336V90.3843C85.7772 89.0455 84.8841 87.7412 83.9619 86.4714V79.3271L84.1126 79.5036C84.9767 80.5287 85.8196 81.572 86.6412 82.6336Z"
    fill="#005050" />
  <path
    d="M83.4562 78.7408V85.7897C82.5888 84.62 81.6956 83.4787 80.7769 82.3657V75.7732C81.6856 76.7347 82.5787 77.7239 83.4562 78.7408Z"
    fill="#005050" />
  <path
    d="M89.8247 86.9988V95.7212C88.9673 94.1647 88.0742 92.6501 87.1454 91.1774V83.2908C88.0675 84.5024 88.9606 85.7385 89.8247 86.9988Z"
    fill="#005050" />
  <path
    d="M93.0098 91.9461V102.048C92.1602 100.191 91.2671 98.3892 90.3304 96.642V87.7371C91.257 89.1124 92.1502 90.5154 93.0098 91.9461Z"
    fill="#005050" />
  <path
    d="M96.1932 97.6443V107.075C95.7065 106.704 95.2147 106.343 94.7179 105.991C94.3283 105.031 93.9264 104.085 93.5122 103.152V92.78C94.4466 94.3758 95.3403 95.9972 96.1932 97.6443Z"
    fill="#005050" />
  <path
    d="M99.3782 104.405V109.679C98.4996 108.915 97.6065 108.18 96.6989 107.474V98.6462C97.64 100.525 98.5331 102.444 99.3782 104.405Z"
    fill="#005050" />
  <path
    d="M102.516 112.6C101.656 111.738 100.776 110.912 99.8805 110.113V105.594C100.831 107.876 101.709 110.212 102.516 112.6Z"
    fill="#005050" />
  <path
    d="M64.3508 62.2617C64.5183 62.3672 64.6857 62.4646 64.8532 62.5782V67.5154C64.6857 67.3937 64.5183 67.2741 64.3508 67.1564V62.2617Z"
    fill="#839191" />
  <path d="M67.7871 64.5275L68.0383 64.7039V69.9171L67.5359 69.5236V64.353L67.7871 64.5275Z" fill="#839191" />
  <path d="M70.7194 66.6716L71.2217 67.059V72.5582C71.0543 72.4122 70.8868 72.2681 70.7194 72.1261V66.6716Z"
    fill="#839191" />
  <path
    d="M74.0401 69.3592C74.1623 69.4606 74.2845 69.562 74.4068 69.6736V75.4811C74.2416 75.3188 74.0741 75.1586 73.9044 75.0004V69.2456L74.0401 69.3592Z"
    fill="#839191" />
  <path
    d="M77.4846 72.4648C77.5198 72.4972 77.555 72.5297 77.5901 72.5662V78.7287C77.4227 78.5461 77.2552 78.3676 77.0878 78.1911V72.0854C77.2201 72.2132 77.3457 72.337 77.4846 72.4648Z"
    fill="#839191" />
  <path
    d="M80.5475 75.5337C80.6228 75.6128 80.6998 75.694 80.7752 75.7771V82.3696C80.6089 82.1668 80.4414 81.964 80.2728 81.7611V75.2437L80.5056 75.483L80.5475 75.5337Z"
    fill="#839191" />
  <path
    d="M83.9587 79.3272V86.4755C83.7912 86.2463 83.6238 86.0171 83.4563 85.7899V78.741L83.6388 78.9438L83.9587 79.3272Z"
    fill="#839191" />
  <path
    d="M86.6414 82.6335C86.8122 82.8513 86.9796 83.0683 87.1437 83.2847V91.1713C86.9763 90.9076 86.8088 90.6439 86.6414 90.3843V82.6335Z"
    fill="#839191" />
  <path
    d="M90.0039 87.2585C90.1127 87.4167 90.2216 87.577 90.3271 87.7372V96.6422C90.1607 96.3339 89.9933 96.0262 89.8247 95.7192V86.9968C89.885 87.0841 89.9453 87.1713 90.0039 87.2585Z"
    fill="#839191" />
  <path
    d="M93.5121 92.7901V103.162C93.3458 102.788 93.1783 102.417 93.0098 102.048V91.9463L93.2576 92.352C93.343 92.5021 93.4217 92.6461 93.5121 92.7901Z"
    fill="#839191" />
  <path
    d="M102.916 113.797C100.462 111.277 97.8471 108.996 95.0962 106.975C95.0074 106.754 94.8115 106.216 94.7211 105.997C95.2167 106.349 95.7085 106.71 96.1964 107.08V97.644C96.2449 97.7353 96.2918 97.8266 96.3387 97.9179L96.5062 98.2526C96.5715 98.3783 96.6335 98.5041 96.6954 98.6299V107.46C97.6053 108.164 98.4984 108.899 99.3747 109.665V104.391C99.43 104.514 99.4836 104.64 99.5422 104.764L99.7097 105.143C99.7716 105.289 99.8319 105.433 99.8905 105.579V110.099C100.786 110.898 101.666 111.722 102.526 112.586L102.916 113.797Z"
    fill="#839191" />
  <path d="M86.4905 114.906L86.4889 114.927L86.2092 114.906H86.4905Z" fill="#00AAA3" />
  <path d="M90.3271 114.906H89.8247V114.909H90.3271V114.906Z" fill="#00AAA3" />
  <path d="M93.5121 114.906H93.0098V114.909H93.5121V114.906Z" fill="#00AAA3" />
  <path d="M96.6955 114.906H96.1931V114.909H96.6955V114.906Z" fill="#00AAA3" />
  <path d="M99.8805 114.906H99.3782V114.909H99.8805V114.906Z" fill="#00AAA3" />
  <path
    d="M109.797 70.1909C100.118 61.507 88.6306 55.6488 76.2236 53.0605V27.9644C86.1238 33.0355 95.2201 42.5328 102.801 55.7888C105.416 60.3795 107.754 65.1927 109.797 70.1909V70.1909Z"
    fill="#032B2D" />
  <path
    d="M109.797 70.1909C109.351 69.7933 108.904 69.4005 108.458 69.0123L107.92 68.558C107.051 67.8277 106.169 67.1198 105.274 66.4342L104.737 66.0285C103.866 65.3753 102.984 64.7424 102.089 64.1298L101.552 63.7647C100.681 63.1778 99.799 62.6125 98.9059 62.0689L98.638 61.9066C98.5492 61.8498 98.4588 61.7951 98.3684 61.7423C97.4954 61.219 96.6128 60.7146 95.7209 60.2291L95.4529 60.0851L95.1833 59.9411C94.3103 59.4745 93.4283 59.0269 92.5375 58.5982L91.9999 58.3426C91.1258 57.9369 90.2433 57.5434 89.3524 57.1621C89.2637 57.1235 89.1749 57.085 89.0845 57.0505C88.9941 57.016 88.9053 56.9734 88.8149 56.9369C87.9407 56.5758 87.0588 56.2324 86.169 55.9064L85.6315 55.7036C84.7551 55.3899 83.8726 55.0937 82.984 54.8151L82.716 54.732L82.4464 54.6488C81.5689 54.3783 80.687 54.1275 79.8006 53.8962L79.5226 53.8293L79.2547 53.7583C78.2499 53.5027 77.2385 53.2688 76.2203 53.0565V27.9644C77.2407 28.485 78.2516 29.0543 79.253 29.6723L79.7905 30.007C80.6837 30.5696 81.5656 31.1693 82.4364 31.8063C82.6156 31.9361 82.7964 32.0679 82.9739 32.212C83.867 32.8773 84.7496 33.5805 85.6215 34.3216L86.159 34.7841C87.0521 35.5589 87.9341 36.3703 88.8048 37.2182L89.3424 37.7497C90.2355 38.6449 91.118 39.58 91.9899 40.555C92.1707 40.7565 92.3499 40.9594 92.5274 41.1636C93.4205 42.1859 94.3025 43.2522 95.1733 44.3625C95.3519 44.5924 95.5311 44.8236 95.7108 45.0562C96.6039 46.2286 97.4864 47.4457 98.3583 48.7074L98.8959 49.4985C99.7946 50.836 100.677 52.2214 101.542 53.6549C101.723 53.953 101.9 54.2634 102.079 54.5555C102.32 54.9612 102.56 55.377 102.798 55.7929C103.455 56.9437 104.098 58.1161 104.727 59.3102C104.908 59.653 105.087 59.9999 105.264 60.3468C106.18 62.1305 107.062 63.9595 107.91 65.8338C108.091 66.2395 108.27 66.633 108.448 67.0366C108.91 68.0725 109.36 69.1239 109.797 70.1909Z"
    fill="#032B2D" />
  <path d="M79.7956 30.0071V53.9044L79.2581 53.7644V29.6724L79.7956 30.0071Z" fill="#00AAA3" />
  <path
    d="M82.9789 32.2019V54.8234L82.711 54.7382L82.4414 54.657V31.8064C82.6206 31.9362 82.8014 32.0681 82.9789 32.2019Z"
    fill="#00AAA3" />
  <path d="M86.164 34.774V55.9065L85.6265 55.7037V34.3115L86.164 34.774Z" fill="#00AAA3" />
  <path
    d="M89.3475 37.7458V57.1623C89.1683 57.0852 88.9908 57.0101 88.8099 56.9371V37.2144C88.8151 37.218 88.8197 37.2228 88.8233 37.2285L89.3257 37.7296L89.3475 37.7458Z"
    fill="#00AAA3" />
  <path
    d="M92.5324 41.1616V58.6064L91.9949 58.3508V40.551L92.0418 40.6038C92.1657 40.7417 92.2879 40.8796 92.4085 41.0196C92.4504 41.0663 92.4922 41.1129 92.5324 41.1616Z"
    fill="#00AAA3" />
  <path
    d="M95.7159 45.0543V60.2293L95.448 60.0832L95.1783 59.9412V44.3606C95.357 44.5878 95.5361 44.819 95.7159 45.0543Z"
    fill="#00AAA3" />
  <path
    d="M98.9009 49.4945V62.071L98.633 61.9087L98.3634 61.7464V48.7034L98.3835 48.7318C98.556 48.9833 98.7285 49.2389 98.9009 49.4945Z"
    fill="#00AAA3" />
  <path d="M102.084 54.5515V64.1299L101.547 63.7648V53.6509C101.728 53.9491 101.905 54.2493 102.084 54.5515Z"
    fill="#00AAA3" />
  <path
    d="M105.269 60.3427V66.4281C105.09 66.2929 104.911 66.1576 104.732 66.0224V59.3062C104.913 59.649 105.092 59.9958 105.269 60.3427Z"
    fill="#00AAA3" />
  <path
    d="M108.453 67.0326V69.0124L108.3 68.8826L108.022 68.6493L107.915 68.558V65.8318C108.092 66.2185 108.266 66.608 108.438 67.0002C108.444 67.0103 108.449 67.0212 108.453 67.0326V67.0326Z"
    fill="#00AAA3" />
  <path
    d="M76.2237 27.9644V53.0626C74.6608 52.734 73.0833 52.4594 71.4913 52.239V25.8994C73.0991 26.4813 74.6789 27.1707 76.2237 27.9644V27.9644Z"
    fill="#494747" />
  <path
    d="M79.2581 29.6723V35.352C78.2612 34.6948 77.2503 34.0863 76.2255 33.5264V27.9644C77.2458 28.485 78.2567 29.0543 79.2581 29.6723Z"
    fill="#005050" />
  <path
    d="M82.4414 31.8063V37.6483C81.5717 36.964 80.6898 36.319 79.7955 35.7131V30.0071C80.6853 30.5696 81.5672 31.1694 82.4414 31.8063Z"
    fill="#005050" />
  <path
    d="M85.6265 34.3114V40.3522C84.7568 39.5529 83.8743 38.7936 82.979 38.0742V32.1917C83.8699 32.8637 84.7524 33.5703 85.6265 34.3114Z"
    fill="#005050" />
  <path
    d="M88.8099 37.2142V43.5025C87.9425 42.5788 87.0605 41.6951 86.1641 40.8513V34.7659C87.0572 35.5462 87.9391 36.3623 88.8099 37.2142Z"
    fill="#005050" />
  <path
    d="M91.9949 40.551V47.1475C91.1286 46.0833 90.2461 45.0609 89.3474 44.0805V37.7456C90.2416 38.6408 91.1241 39.5759 91.9949 40.551Z"
    fill="#005050" />
  <path
    d="M95.1783 44.3605V51.3425C94.3154 50.1254 93.4334 48.9496 92.5325 47.815V41.1616C93.4278 42.184 94.3098 43.2503 95.1783 44.3605Z"
    fill="#005050" />
  <path
    d="M98.3633 48.7034V56.1742C97.5026 54.7719 96.6201 53.4196 95.7158 52.1173V45.0542C96.6134 46.2267 97.4959 47.4431 98.3633 48.7034Z"
    fill="#005050" />
  <path
    d="M101.547 53.6507V61.7402C100.689 60.1269 99.8074 58.565 98.9009 57.0545V49.4944C99.7996 50.8318 100.682 52.2173 101.547 53.6507Z"
    fill="#005050" />
  <path
    d="M104.732 59.3062V66.0286C104.208 65.6337 103.68 65.2469 103.146 64.8683C102.796 64.1604 102.443 63.4483 102.084 62.7688V54.5515C102.325 54.9572 102.565 55.373 102.803 55.7889C103.461 56.9397 104.104 58.1121 104.732 59.3062Z"
    fill="#005050" />
  <path
    d="M107.915 65.8317V68.558C107.045 67.8277 106.164 67.1205 105.269 66.4362V60.3508C106.19 62.1291 107.072 63.9561 107.915 65.8317Z"
    fill="#005050" />
  <path
    d="M109.797 70.1908C109.351 69.7932 108.904 69.4004 108.458 69.0123V67.0325C108.913 68.071 109.36 69.1238 109.797 70.1908Z"
    fill="#005050" />
  <path d="M79.2581 29.6724L79.7956 30.0071V35.7131L79.2581 35.3521V29.6724Z" fill="#839191" />
  <path
    d="M82.4414 31.8064C82.6206 31.9362 82.8014 32.0681 82.9789 32.2121V38.0946C82.7998 37.9506 82.6206 37.8066 82.4414 37.6687V31.8064Z"
    fill="#839191" />
  <path d="M85.6265 34.3115L86.164 34.774V40.8594C85.9848 40.691 85.8056 40.5247 85.6265 40.3624V34.3115Z"
    fill="#839191" />
  <path
    d="M89.3307 37.7294L89.3475 37.7456V44.0805C89.1683 43.8777 88.9908 43.6931 88.8099 43.5004V37.2122C88.8151 37.2158 88.8197 37.2206 88.8233 37.2264L89.3307 37.7294Z"
    fill="#839191" />
  <path
    d="M92.4169 41.0196C92.4588 41.0663 92.5006 41.1129 92.5408 41.1616V47.815C92.3633 47.5898 92.1842 47.3687 92.0033 47.1476V40.551L92.0502 40.6038C92.1657 40.7417 92.288 40.8796 92.4169 41.0196Z"
    fill="#839191" />
  <path
    d="M95.1783 44.3606C95.357 44.5905 95.5361 44.8217 95.7159 45.0543V52.1114C95.5384 51.8537 95.3592 51.5961 95.1783 51.3426V44.3606Z"
    fill="#839191" />
  <path
    d="M98.3835 48.7318C98.551 48.9833 98.7285 49.2389 98.9009 49.4945V57.0586C98.7234 56.7625 98.5443 56.4663 98.3634 56.1742V48.7034L98.3835 48.7318Z"
    fill="#839191" />
  <path
    d="M101.547 53.6509C101.728 53.9491 101.905 54.2594 102.084 54.5515V62.7688C101.907 62.424 101.728 62.0859 101.547 61.7546V53.6509Z"
    fill="#839191" />
  <path
    d="M104.732 59.3062C104.913 59.649 105.092 59.9958 105.269 60.3427V66.4281C105.09 66.2929 104.911 66.1576 104.732 66.0224V59.3062Z"
    fill="#839191" />
  <path
    d="M108.453 67.0326V69.0124L108.3 68.8826L108.022 68.6493L107.915 68.558V65.8318C108.092 66.2185 108.266 66.608 108.438 67.0002C108.444 67.0103 108.449 67.0212 108.453 67.0326V67.0326Z"
    fill="#839191" />
  <path
    d="M152.667 114.907H121.089C119.07 98.5733 115.228 83.3943 109.797 70.1911C107.755 65.1929 105.417 60.3797 102.803 55.7889C94.0278 40.4456 83.2234 30.139 71.4879 25.8995V52.2391C70.8661 52.1526 70.242 52.0742 69.6157 52.0038V23.4836H71.3372C116.395 23.7372 152.667 61.349 152.667 114.907Z"
    fill="#D1CCCC" />
  <path
    d="M141.057 114.904H135.749C132.734 84.0087 125.612 57.4541 115.9 37.7009C119.268 40.0775 122.485 42.7565 125.523 45.7154C133.021 64.8032 138.478 88.5322 141.057 114.904Z"
    fill="#918B8A" />
  <path
    d="M177.97 114.263H177.076C177.108 101.432 175.461 88.6754 172.194 76.4691L173.046 76.1365C176.342 88.4501 178.004 101.319 177.97 114.263V114.263Z"
    fill="#918B8A" />
  <path
    d="M123.45 43.7682C115.265 36.3318 105.7 30.7271 95.2419 27.3173V5.04883C105.201 11.3817 114.332 23.4105 121.931 40.2792C122.446 41.4232 122.952 42.5849 123.449 43.7641L123.45 43.7682Z"
    fill="#032B2D" />
  <path
    d="M95.242 5.04883V27.3173C93.7907 26.8413 92.3215 26.4092 90.8345 26.0211V2.64307C92.343 3.33461 93.815 4.13806 95.242 5.04883V5.04883Z"
    fill="#494747" />
  <path
    d="M98.8825 7.6454V28.6055L98.3801 28.4128V7.25391L98.4806 7.33302C98.6129 7.43444 98.7485 7.53992 98.8825 7.6454Z"
    fill="#00AAA3" />
  <path d="M102.068 10.3998V29.9055L101.565 29.6905V9.9353L102.068 10.3998Z" fill="#00AAA3" />
  <path
    d="M105.251 13.6313V31.3803C105.083 31.2951 104.916 31.214 104.749 31.1349V13.0815C104.916 13.26 105.083 13.4467 105.251 13.6313Z"
    fill="#00AAA3" />
  <path d="M108.436 17.3757V33.0314L107.934 32.7596V16.751C108.103 16.9579 108.271 17.1661 108.436 17.3757Z"
    fill="#00AAA3" />
  <path
    d="M111.619 21.6803V34.8835C111.452 34.778 111.284 34.6807 111.117 34.5772V20.9683C111.287 21.2022 111.454 21.4395 111.619 21.6803Z"
    fill="#00AAA3" />
  <path
    d="M114.804 26.6033V36.9484C114.637 36.8321 114.469 36.7185 114.302 36.6076V25.7817C114.472 26.0536 114.639 26.3274 114.804 26.6033Z"
    fill="#00AAA3" />
  <path
    d="M117.988 32.2139V39.2243C117.82 39.0965 117.653 38.9707 117.485 38.847V31.2788L117.738 31.7454L117.988 32.2139Z"
    fill="#00AAA3" />
  <path
    d="M121.173 38.6161V41.7683C121.048 41.6601 120.922 41.5546 120.796 41.4518L120.67 41.3484V37.5552C120.84 37.9081 121.008 38.2618 121.173 38.6161Z"
    fill="#00AAA3" />
  <path
    d="M98.38 7.25572V12.2883C97.3485 11.2755 96.303 10.3241 95.2435 9.43429V5.05078C96.2985 5.72288 97.344 6.45786 98.38 7.25572Z"
    fill="#005050" />
  <path
    d="M101.565 9.93548V15.6395C100.681 14.6415 99.7879 13.6895 98.8859 12.7835V7.64941C99.7868 8.36208 100.68 9.1241 101.565 9.93548Z"
    fill="#005050" />
  <path
    d="M104.748 13.0876V19.4854C103.868 18.3481 102.974 17.2568 102.069 16.2114V10.3999C102.971 11.2464 103.864 12.1424 104.748 13.0876Z"
    fill="#005050" />
  <path
    d="M107.934 16.7511V23.8771C107.053 22.583 106.16 21.3375 105.254 20.1407V13.6313C106.159 14.6199 107.052 15.6598 107.934 16.7511Z"
    fill="#005050" />
  <path
    d="M111.117 20.9684V28.8794C110.24 27.4121 109.346 25.9963 108.438 24.6318V17.376C109.343 18.5173 110.236 19.7148 111.117 20.9684Z"
    fill="#005050" />
  <path
    d="M114.302 25.782V34.5591C113.428 32.8917 112.535 31.2791 111.623 29.7213V21.6804C112.529 22.9935 113.422 24.3607 114.302 25.782Z"
    fill="#005050" />
  <path
    d="M117.485 31.2788V38.8531C116.961 38.4622 116.432 38.0782 115.9 37.7009C115.538 36.9666 115.173 36.2411 114.804 35.5244V26.5991C115.713 28.1042 116.607 29.6641 117.485 31.2788Z"
    fill="#005050" />
  <path
    d="M120.671 37.5551V41.3545C119.792 40.6269 118.899 39.919 117.991 39.2307V32.2183C118.902 33.9343 119.795 35.7133 120.671 37.5551Z"
    fill="#005050" />
  <path
    d="M123.449 43.764C122.702 43.0878 121.943 42.4252 121.173 41.7761V38.6157C121.429 39.1634 121.675 39.7131 121.931 40.2709C122.446 41.4204 122.952 42.5848 123.449 43.764Z"
    fill="#005050" />
  <path
    d="M98.4806 7.33294C98.6146 7.43572 98.7485 7.5412 98.8825 7.64938V12.7834C98.715 12.6171 98.5476 12.4508 98.3801 12.2885V7.25586L98.4806 7.33294Z"
    fill="#839191" />
  <path d="M101.565 9.9353L102.068 10.3998V16.2114L101.565 15.6393V9.9353Z" fill="#839191" />
  <path
    d="M104.749 13.0876C104.916 13.2662 105.083 13.4467 105.251 13.6313V20.1406C105.083 19.9195 104.916 19.7025 104.749 19.4854V13.0876Z"
    fill="#839191" />
  <path
    d="M107.934 16.751C108.103 16.9579 108.271 17.1661 108.436 17.3757V24.6194C108.269 24.3679 108.101 24.1184 107.934 23.8709V16.751Z"
    fill="#839191" />
  <path
    d="M111.619 21.6803V29.7211C111.452 29.4371 111.284 29.1531 111.117 28.8732V20.9683C111.287 21.2022 111.454 21.4395 111.619 21.6803Z"
    fill="#839191" />
  <path
    d="M114.302 25.7817C114.471 26.0522 114.638 26.3227 114.804 26.5931V35.5184C114.638 35.1965 114.471 34.8747 114.302 34.5528V25.7817Z"
    fill="#839191" />
  <path d="M117.738 31.7454L117.988 32.2139V39.2243L117.485 38.847V31.2788L117.738 31.7454Z" fill="#839191" />
  <path
    d="M121.173 38.6161V41.7683C121.048 41.6601 120.922 41.5546 120.796 41.4518L120.67 41.3484V37.5552C120.84 37.9081 121.008 38.2618 121.173 38.6161Z"
    fill="#839191" />
  <path
    d="M176.992 114.906H140.112C137.457 87.8751 131.714 63.3834 123.449 43.7661C122.953 42.5856 122.447 41.4239 121.931 40.2812C113.224 20.952 102.506 7.97794 90.8345 2.64511V26.0211C90.2126 25.8589 89.5886 25.7047 88.9623 25.5586V0H90.3019C135.409 0.29007 176.992 47.5715 176.992 114.906Z"
    fill="#D1CCCC" />
  <path d="M260.88 127.763V137.179H37.8774V120.278H159.764L169.486 127.763H260.88Z" fill="#9D9291" />
  <path
    d="M260.88 127.763V130.031H169.533V137.179H159.62V122.207H4.96851V120.278H159.62L162.152 122.207L169.486 127.795V127.763H260.88Z"
    fill="#494747" />
  <path
    d="M223.813 127.755L220.464 127.286L176.994 114.913C176.994 101.281 175.289 88.4716 172.198 76.7085C182.915 61.5863 200.387 51.5718 220.218 51.0363V51.0221L223.567 51.0059L223.813 127.755Z"
    fill="#D1CCCC" />
  <path d="M222.135 127.763L220.464 127.769L220.462 127.286L222.135 127.763Z" fill="#D1CCCC" />
  <path d="M34.3642 124.653H9.11987V125.738H34.3642V124.653Z" fill="#032B2D" />
  <path d="M102.295 124.653H73.5527V125.738H102.295V124.653Z" fill="#032B2D" />
  <path d="M69.7615 124.653H45.7379V125.738H69.7615V124.653Z" fill="#032B2D" />
  <path d="M260.88 125.525V127.793H169.354V127.763L159.638 120.278H0V114.906H176.992L223.688 125.525H260.88Z"
    fill="#D1CCCC" />
  <path
    d="M260.88 122.929V123.74H259.058V125.639H258.388V123.74H256.573V125.639H255.903V123.74H254.088V125.639H253.418V123.74H251.603V125.639H250.933V123.74H249.118V125.639H248.448V123.74H246.633V125.639H245.963V123.74H244.147V125.639H243.478V123.74H241.662V125.639H240.993V123.74H239.177V125.639H238.507V123.74H236.692V125.639H236.022V123.74H234.207V125.639H233.537V123.74H231.722V125.639H231.052V123.74H229.237V125.639H228.567V123.74H226.752V125.639H226.082V123.74H223.764V122.929H260.88Z"
    fill="#D1CCCC" />
  <path d="M260.88 147.549H0V149.37H260.88V147.549Z" fill="#839191" />
  <path d="M260.88 137.179H0V147.413H260.88V137.179Z" fill="#494747" />
  <path
    d="M260.88 134.185V133.374H0V138.396H260.88V135.962H259.065V134.185H260.88ZM2.42647 135.962H0.669833V134.185H2.42647V135.962ZM4.91156 135.962H3.0963V134.185H4.91156V135.962ZM7.39663 135.962H5.58139V134.185H7.39663V135.962ZM9.88172 135.962H8.06647V134.185H9.88172V135.962ZM12.3668 135.962H10.5516V134.185H12.3718L12.3668 135.962ZM14.8519 135.962H13.0417V134.185H14.8569L14.8519 135.962ZM17.337 135.962H15.5217V134.185H17.337V135.962ZM19.822 135.962H18.0068V134.185H19.822V135.962ZM22.3071 135.962H20.4919V134.185H22.3071V135.962ZM24.7922 135.962H22.977V134.185H24.7922V135.962ZM27.2773 135.962H25.462V134.185H27.2756L27.2773 135.962ZM29.7624 135.962H27.9454V134.185H29.7607L29.7624 135.962ZM32.2491 135.962H30.4339V134.185H32.2491V135.962ZM34.7342 135.962H32.919V134.185H34.7342V135.962ZM37.2193 135.962H35.404V134.185H37.2193V135.962ZM39.7044 135.962H37.8891V134.185H39.7044V135.962ZM42.1878 135.962H40.3742V134.185H42.1878V135.962ZM44.6745 135.962H42.8576V134.185H44.6745V135.962ZM47.1596 135.962H45.3444V134.185H47.1596V135.962ZM49.643 135.962H47.8295V134.185H49.643V135.962ZM52.1281 135.962H50.3129V134.185H52.1281V135.962ZM54.6149 135.962H52.7979V134.185H54.6149V135.962ZM57.0983 135.962H55.2847V134.185H57.0983V135.962ZM59.5834 135.962H57.7681V134.185H59.5834V135.962ZM62.0684 135.962H60.2532V134.185H62.0684V135.962ZM64.5535 135.962H62.7383V134.185H64.5535V135.962ZM67.0386 135.962H65.2233V134.185H67.0386V135.962ZM69.5237 135.962H67.7084V134.185H69.5237V135.962ZM72.0088 135.962H70.1935V134.185H72.0088V135.962ZM74.4938 135.962H72.6786V134.185H74.4989L74.4938 135.962ZM76.9789 135.962H75.1687V134.185H76.9839L76.9789 135.962ZM79.464 135.962H77.6488V134.185H79.464V135.962ZM81.9491 135.962H80.1338V134.185H81.9491V135.962ZM84.4342 135.962H82.6189V134.185H84.4342V135.962ZM86.9193 135.962H85.104V134.185H86.9193V135.962ZM89.4043 135.962H87.5891V134.185H89.4027L89.4043 135.962ZM91.8894 135.962H90.0725V134.185H91.8877L91.8894 135.962ZM94.3745 135.962H92.5592V134.185H94.3745V135.962ZM96.8596 135.962H95.0443V134.185H96.8596V135.962ZM99.3463 135.962H97.5294V134.185H99.3463V135.962ZM101.831 135.962H100.016V134.185H101.831V135.962ZM104.317 135.962H102.501V134.185H104.317V135.962ZM106.802 135.962H104.986V134.185H106.802V135.962ZM109.287 135.962H107.471V134.185H109.287V135.962ZM111.772 135.962H109.956V134.185H111.772V135.962ZM114.257 135.962H112.442V134.185H114.257V135.962ZM116.742 135.962H114.927V134.185H116.742V135.962ZM119.227 135.962H117.412V134.185H119.227V135.962ZM121.712 135.962H119.897V134.185H121.712V135.962ZM124.197 135.962H122.382V134.185H124.197V135.962ZM126.682 135.962H124.867V134.185H126.682V135.962ZM129.167 135.962H127.352V134.185H129.167V135.962ZM131.652 135.962H129.837V134.185H131.652V135.962ZM134.137 135.962H132.322V134.185H134.137V135.962ZM136.623 135.962H134.807V134.185H136.626L136.623 135.962ZM139.108 135.962H137.296V134.185H139.111L139.108 135.962ZM141.593 135.962H139.777V134.185H141.593V135.962ZM144.078 135.962H142.263V134.185H144.078V135.962ZM146.563 135.962H144.748V134.185H146.563V135.962ZM149.048 135.962H147.233V134.185H149.048V135.962ZM151.533 135.962H149.718V134.185H151.53L151.533 135.962ZM154.018 135.962H152.2V134.185H154.015L154.018 135.962ZM156.503 135.962H154.688V134.185H156.503V135.962ZM158.988 135.962H157.173V134.185H158.988V135.962ZM161.473 135.962H159.658V134.185H161.473V135.962ZM163.958 135.962H162.143V134.185H163.958V135.962ZM166.444 135.962H164.628V134.185H166.444V135.962ZM168.93 135.962H167.115V134.185H168.93V135.962ZM171.415 135.962H169.6V134.185H171.415V135.962ZM173.9 135.962H172.085V134.185H173.9V135.962ZM176.386 135.962H174.57V134.185H176.386V135.962ZM178.871 135.962H177.055V134.185H178.871V135.962ZM181.356 135.962H179.54V134.185H181.356V135.962ZM183.841 135.962H182.026V134.185H183.849L183.841 135.962ZM186.326 135.962H184.519V134.185H186.334L186.326 135.962ZM188.811 135.962H186.996V134.185H188.811V135.962ZM191.296 135.962H189.481V134.185H191.296V135.962ZM193.781 135.962H191.966V134.185H193.781V135.962ZM196.266 135.962H194.451V134.185H196.266V135.962ZM198.751 135.962H196.936V134.185H198.753L198.751 135.962ZM201.236 135.962H199.423V134.185H201.238L201.236 135.962ZM203.721 135.962H201.906V134.185H203.721V135.962ZM206.207 135.962H204.391V134.185H206.207V135.962ZM208.692 135.962H206.876V134.185H208.692V135.962ZM211.177 135.962H209.361V134.185H211.177V135.962ZM213.662 135.962H211.847V134.185H213.657L213.662 135.962ZM216.147 135.962H214.327V134.185H216.142L216.147 135.962ZM218.632 135.962H216.817V134.185H218.632V135.962ZM221.117 135.962H219.302V134.185H221.117V135.962ZM223.602 135.962H221.787V134.185H223.602V135.962ZM226.087 135.962H224.272V134.185H226.087V135.962ZM228.572 135.962H226.757V134.185H228.572V135.962ZM231.057 135.962H229.242V134.185H231.057V135.962ZM233.542 135.962H231.727V134.185H233.542V135.962ZM236.029 135.962H234.212V134.185H236.029V135.962ZM238.514 135.962H236.699V134.185H238.514V135.962ZM240.999 135.962H239.184V134.185H240.999V135.962ZM243.484 135.962H241.669V134.185H243.484V135.962ZM245.97 135.962H244.154V134.185H245.976L245.97 135.962ZM248.455 135.962H246.646V134.185H248.461L248.455 135.962ZM250.94 135.962H249.124V134.185H250.94V135.962ZM253.425 135.962H251.609V134.185H253.425V135.962ZM255.91 135.962H254.095V134.185H255.91V135.962ZM258.395 135.962H256.58V134.185H258.395V135.962Z"
    fill="#D1CCCC" />
  <path
    d="M223.793 124.383V125.487L177.919 114.918L103.246 114.906L102.93 113.833H178.005L178.045 113.841L223.793 124.383Z"
    fill="#918B8A" />
</svg>