<svg width="375" height="59" viewBox="0 0 375 59" fill="none" xmlns="http://www.w3.org/2000/svg">
  <path
    d="M374.486 58.09H312.881C312.881 52.1462 314.441 46.3873 317.292 41.7976C320.143 37.2078 324.109 34.0721 328.512 32.9264C332.915 31.7807 337.482 32.696 341.432 35.5161C345.382 38.3361 348.47 42.8857 350.169 48.3874H367.16C368.122 48.3874 369.075 48.6384 369.964 49.126C370.852 49.6136 371.66 50.3282 372.34 51.2292C373.02 52.1302 373.56 53.1998 373.928 54.377C374.296 55.5541 374.486 56.8158 374.486 58.09Z"
    fill="#875E00" />
  <path
    d="M375 58.0901H373.971C373.97 55.8432 373.295 53.6889 372.096 52.0999C370.897 50.5109 369.27 49.6168 367.574 49.6139H346.477V48.2512H367.574C369.543 48.2548 371.431 49.2927 372.823 51.1371C374.215 52.9816 374.998 55.482 375 58.0901V58.0901Z"
    fill="#9C7F00" />
  <path
    d="M296.77 25.6437C296.771 27.1729 296.683 28.7 296.508 30.2115C295.911 30.1379 295.304 30.0998 294.693 30.0998H293.636C293.636 29.7182 293.65 29.3339 293.65 28.9497C293.65 14.7774 286.94 3.30325 278.665 3.30325C271.132 3.30325 264.897 12.8123 263.837 25.1967C263.99 11.2397 271.302 0 280.298 0C289.397 0 296.77 11.4714 296.77 25.6437Z"
    fill="#F78F00" />
  <path
    d="M263.677 28.9496C263.677 14.7773 270.387 3.30322 278.665 3.30322C286.942 3.30322 293.65 14.7855 293.65 28.9496C293.65 29.3339 293.65 29.7182 293.636 30.0998H294.693C299.024 30.1002 303.23 32.0118 306.649 35.5323C310.067 39.0529 312.502 43.9818 313.57 49.5404H325.788C327.5 49.5404 329.142 50.4411 330.352 52.0445C331.563 53.6479 332.243 55.8225 332.243 58.0901H263.677V28.9496Z"
    fill="#9C7F00" />
  <path
    d="M57.1605 55.7599C57.1605 56.5284 57.1379 57.2888 57.0926 58.0411H0V57.4742C0 54.9009 0.77175 52.433 2.14547 50.6134C3.5192 48.7938 5.38237 47.7716 7.3251 47.7716H20.035C22.4136 36.6409 29.6379 28.5491 38.1811 28.5491C48.6625 28.5491 57.1605 40.7318 57.1605 55.7599Z"
    fill="#875E00" />
  <path
    d="M91.93 58.0901H33.0699C33.6111 49.4123 39.9321 42.5551 47.6523 42.5551H47.9198C47.7243 41.2795 47.6258 39.9811 47.6255 38.6795C47.6255 28.0121 54.1708 18.5112 62.2346 18.5112C70.2984 18.5112 76.8436 28.0203 76.8436 38.6795C76.859 42.5867 75.9724 46.4067 74.3025 49.6276C76.3655 47.6891 78.8391 46.6663 81.3683 46.7059C87.2016 46.695 91.93 51.808 91.93 58.0901Z"
    fill="#9C7F00" />
  <path
    d="M91.93 58.0901H89.4012C88.9712 52.77 84.4321 48.5837 78.893 48.5837C77.3322 48.5737 75.7819 48.9213 74.3107 49.6112C76.3712 47.6748 78.842 46.653 81.3683 46.6923C87.1996 46.6923 91.93 51.8079 91.93 58.0901Z"
    fill="#F78F00" />
  <path
    d="M76.8662 38.6931C76.871 42.5926 75.9781 46.4013 74.3065 49.6112C73.4357 50.0194 72.6064 50.5687 71.8374 51.2465C73.4876 48.4066 74.3857 44.9259 74.3929 41.3422C74.3929 31.6751 67.86 23.0518 59.8003 23.0518C56.1639 23.0564 52.6544 24.8237 49.9341 28.0203C52.5328 22.4222 57.074 18.5303 62.2407 18.5303C70.3209 18.5194 76.8662 28.0284 76.8662 38.6931Z"
    fill="#F78F00" />
  <path
    d="M66.1132 58.0764H31.1132C31.8107 49.1942 39.5267 42.198 48.9383 42.198C58.3498 42.198 65.4136 49.2051 66.1132 58.0764Z"
    fill="#875E00" />
  <path
    d="M40.0103 44.651L39.5741 43.3127C42.5288 41.6175 45.1729 40.9089 49.3334 40.6936L49.3745 42.149C44.7963 42.3861 42.3971 43.2828 40.0103 44.651Z"
    fill="#9C7F00" />
</svg>