<svg width="147" height="99" viewBox="0 0 147 99" fill="none" xmlns="http://www.w3.org/2000/svg">
  <path d="M100.958 96.1841H71.5101V98.1899H100.958V96.1841Z" fill="white" />
  <path d="M107.534 96.1841H105.639V98.1899H107.534V96.1841Z" fill="white" />
  <path d="M146.23 89.6001H85.5492V91.6059H146.23V89.6001Z" fill="white" />
  <path d="M32.1106 81.5616H0L32.0428 0L32.1106 81.5616Z" fill="white" />
  <path d="M63.6659 75.138H39.5352V0L63.6659 75.138Z" fill="white" />
  <path d="M0.428223 88.1809H64.7216V98.0546H18.5676C14.3564 98.0545 10.2508 96.4957 6.82662 93.5966L0.428223 88.1809Z"
    fill="#F78F00" />
  <path d="M52.0096 60.8665H36.5161V62.8723H52.0096V60.8665Z" fill="#F78F00" />
  <path d="M64.7131 87.1779V89.1837H0.428223V87.1779H35.1338V0H36.8299V79.9369H64.2467V81.9427H36.8299V87.1779H64.7131Z"
    fill="white" />
</svg>